%TF.GenerationSoftware,KiCad,Pcbnew,8.0.5*%
%TF.CreationDate,2024-11-01T13:05:59-07:00*%
%TF.ProjectId,bizcard,62697a63-6172-4642-9e6b-696361645f70,rev?*%
%TF.SameCoordinates,Original*%
%TF.FileFunction,Soldermask,Top*%
%TF.FilePolarity,Negative*%
%FSLAX46Y46*%
G04 Gerber Fmt 4.6, Leading zero omitted, Abs format (unit mm)*
G04 Created by KiCad (PCBNEW 8.0.5) date 2024-11-01 13:05:59*
%MOMM*%
%LPD*%
G01*
G04 APERTURE LIST*
G04 Aperture macros list*
%AMRoundRect*
0 Rectangle with rounded corners*
0 $1 Rounding radius*
0 $2 $3 $4 $5 $6 $7 $8 $9 X,Y pos of 4 corners*
0 Add a 4 corners polygon primitive as box body*
4,1,4,$2,$3,$4,$5,$6,$7,$8,$9,$2,$3,0*
0 Add four circle primitives for the rounded corners*
1,1,$1+$1,$2,$3*
1,1,$1+$1,$4,$5*
1,1,$1+$1,$6,$7*
1,1,$1+$1,$8,$9*
0 Add four rect primitives between the rounded corners*
20,1,$1+$1,$2,$3,$4,$5,0*
20,1,$1+$1,$4,$5,$6,$7,0*
20,1,$1+$1,$6,$7,$8,$9,0*
20,1,$1+$1,$8,$9,$2,$3,0*%
G04 Aperture macros list end*
%ADD10RoundRect,0.045200X-0.255800X-0.180800X0.255800X-0.180800X0.255800X0.180800X-0.255800X0.180800X0*%
%ADD11RoundRect,0.045200X0.255800X0.180800X-0.255800X0.180800X-0.255800X-0.180800X0.255800X-0.180800X0*%
%ADD12R,1.700000X1.700000*%
%ADD13O,1.700000X1.700000*%
%ADD14RoundRect,0.200000X-0.335876X-0.053033X-0.053033X-0.335876X0.335876X0.053033X0.053033X0.335876X0*%
%ADD15RoundRect,0.250000X2.262742X-2.616295X2.616295X-2.262742X-2.262742X2.616295X-2.616295X2.262742X0*%
%ADD16RoundRect,0.250000X1.909188X-2.262742X2.262742X-1.909188X-1.909188X2.262742X-2.262742X1.909188X0*%
G04 APERTURE END LIST*
D10*
%TO.C,D10*%
X124780000Y-77720000D03*
X124780000Y-77150000D03*
X123950000Y-77150000D03*
X123950000Y-77720000D03*
%TD*%
%TO.C,D23*%
X127780000Y-83720000D03*
X127780000Y-83150000D03*
X126950000Y-83150000D03*
X126950000Y-83720000D03*
%TD*%
D11*
%TO.C,D35*%
X126950000Y-89150000D03*
X126950000Y-89720000D03*
X127780000Y-89720000D03*
X127780000Y-89150000D03*
%TD*%
D10*
%TO.C,D7*%
X115780000Y-77720000D03*
X115780000Y-77150000D03*
X114950000Y-77150000D03*
X114950000Y-77720000D03*
%TD*%
%TO.C,D8*%
X118780000Y-77720000D03*
X118780000Y-77150000D03*
X117950000Y-77150000D03*
X117950000Y-77720000D03*
%TD*%
%TO.C,D11*%
X127780000Y-77720000D03*
X127780000Y-77150000D03*
X126950000Y-77150000D03*
X126950000Y-77720000D03*
%TD*%
%TO.C,D15*%
X121780000Y-80720000D03*
X121780000Y-80150000D03*
X120950000Y-80150000D03*
X120950000Y-80720000D03*
%TD*%
D11*
%TO.C,D34*%
X123950000Y-89150000D03*
X123950000Y-89720000D03*
X124780000Y-89720000D03*
X124780000Y-89150000D03*
%TD*%
%TO.C,D29*%
X126950000Y-86150000D03*
X126950000Y-86720000D03*
X127780000Y-86720000D03*
X127780000Y-86150000D03*
%TD*%
D10*
%TO.C,D6*%
X130780000Y-74720000D03*
X130780000Y-74150000D03*
X129950000Y-74150000D03*
X129950000Y-74720000D03*
%TD*%
%TO.C,D20*%
X118780000Y-83720000D03*
X118780000Y-83150000D03*
X117950000Y-83150000D03*
X117950000Y-83720000D03*
%TD*%
D11*
%TO.C,D32*%
X117950000Y-89150000D03*
X117950000Y-89720000D03*
X118780000Y-89720000D03*
X118780000Y-89150000D03*
%TD*%
%TO.C,D28*%
X123950000Y-86150000D03*
X123950000Y-86720000D03*
X124780000Y-86720000D03*
X124780000Y-86150000D03*
%TD*%
%TO.C,D33*%
X120950000Y-89150000D03*
X120950000Y-89720000D03*
X121780000Y-89720000D03*
X121780000Y-89150000D03*
%TD*%
D10*
%TO.C,D9*%
X121780000Y-77720000D03*
X121780000Y-77150000D03*
X120950000Y-77150000D03*
X120950000Y-77720000D03*
%TD*%
D11*
%TO.C,D14*%
X117950000Y-80150000D03*
X117950000Y-80720000D03*
X118780000Y-80720000D03*
X118780000Y-80150000D03*
%TD*%
D10*
%TO.C,D1*%
X118780000Y-74720000D03*
X118780000Y-74150000D03*
X117950000Y-74150000D03*
X117950000Y-74720000D03*
%TD*%
D11*
%TO.C,D30*%
X129950000Y-86150000D03*
X129950000Y-86720000D03*
X130780000Y-86720000D03*
X130780000Y-86150000D03*
%TD*%
%TO.C,D26*%
X117950000Y-86150000D03*
X117950000Y-86720000D03*
X118780000Y-86720000D03*
X118780000Y-86150000D03*
%TD*%
D12*
%TO.C,J2*%
X87580000Y-63000000D03*
D13*
X90120000Y-63000000D03*
X92660000Y-63000000D03*
X95200000Y-63000000D03*
X97740000Y-63000000D03*
X100280000Y-63000000D03*
%TD*%
D11*
%TO.C,D17*%
X126950000Y-80150000D03*
X126950000Y-80720000D03*
X127780000Y-80720000D03*
X127780000Y-80150000D03*
%TD*%
D10*
%TO.C,D4*%
X124780000Y-74720000D03*
X124780000Y-74150000D03*
X123950000Y-74150000D03*
X123950000Y-74720000D03*
%TD*%
D11*
%TO.C,D25*%
X114950000Y-86150000D03*
X114950000Y-86720000D03*
X115780000Y-86720000D03*
X115780000Y-86150000D03*
%TD*%
%TO.C,D16*%
X123950000Y-80150000D03*
X123950000Y-80720000D03*
X124780000Y-80720000D03*
X124780000Y-80150000D03*
%TD*%
D10*
%TO.C,D5*%
X127780000Y-74720000D03*
X127780000Y-74150000D03*
X126950000Y-74150000D03*
X126950000Y-74720000D03*
%TD*%
D14*
%TO.C,R76*%
X80116637Y-67116637D03*
X81283363Y-68283363D03*
%TD*%
D10*
%TO.C,D19*%
X115780000Y-83720000D03*
X115780000Y-83150000D03*
X114950000Y-83150000D03*
X114950000Y-83720000D03*
%TD*%
D14*
%TO.C,R77*%
X81916637Y-65416637D03*
X83083363Y-66583363D03*
%TD*%
D11*
%TO.C,D21*%
X120950000Y-83150000D03*
X120950000Y-83720000D03*
X121780000Y-83720000D03*
X121780000Y-83150000D03*
%TD*%
D10*
%TO.C,D24*%
X130780000Y-83720000D03*
X130780000Y-83150000D03*
X129950000Y-83150000D03*
X129950000Y-83720000D03*
%TD*%
D11*
%TO.C,D13*%
X114950000Y-80150000D03*
X114950000Y-80720000D03*
X115780000Y-80720000D03*
X115780000Y-80150000D03*
%TD*%
%TO.C,D27*%
X120950000Y-86150000D03*
X120950000Y-86720000D03*
X121780000Y-86720000D03*
X121780000Y-86150000D03*
%TD*%
D10*
%TO.C,D40*%
X115780000Y-74720000D03*
X115780000Y-74150000D03*
X114950000Y-74150000D03*
X114950000Y-74720000D03*
%TD*%
D15*
%TO.C,J1*%
X68318019Y-61767767D03*
D16*
X70403984Y-60318198D03*
X71818198Y-58903984D03*
D15*
X73267767Y-56818019D03*
%TD*%
D11*
%TO.C,D31*%
X114950000Y-89150000D03*
X114950000Y-89720000D03*
X115780000Y-89720000D03*
X115780000Y-89150000D03*
%TD*%
D14*
%TO.C,R75*%
X78616637Y-68616637D03*
X79783363Y-69783363D03*
%TD*%
D11*
%TO.C,D18*%
X129950000Y-80150000D03*
X129950000Y-80720000D03*
X130780000Y-80720000D03*
X130780000Y-80150000D03*
%TD*%
D10*
%TO.C,D3*%
X121780000Y-74720000D03*
X121780000Y-74150000D03*
X120950000Y-74150000D03*
X120950000Y-74720000D03*
%TD*%
D11*
%TO.C,D36*%
X129950000Y-89150000D03*
X129950000Y-89720000D03*
X130780000Y-89720000D03*
X130780000Y-89150000D03*
%TD*%
D14*
%TO.C,R74*%
X76816637Y-70316637D03*
X77983363Y-71483363D03*
%TD*%
D10*
%TO.C,D12*%
X130780000Y-77720000D03*
X130780000Y-77150000D03*
X129950000Y-77150000D03*
X129950000Y-77720000D03*
%TD*%
D11*
%TO.C,D22*%
X123950000Y-83150000D03*
X123950000Y-83720000D03*
X124780000Y-83720000D03*
X124780000Y-83150000D03*
%TD*%
M02*
