%TF.GenerationSoftware,KiCad,Pcbnew,8.0.5*%
%TF.CreationDate,2024-11-01T13:05:59-07:00*%
%TF.ProjectId,bizcard,62697a63-6172-4642-9e6b-696361645f70,rev?*%
%TF.SameCoordinates,Original*%
%TF.FileFunction,Legend,Top*%
%TF.FilePolarity,Positive*%
%FSLAX46Y46*%
G04 Gerber Fmt 4.6, Leading zero omitted, Abs format (unit mm)*
G04 Created by KiCad (PCBNEW 8.0.5) date 2024-11-01 13:05:59*
%MOMM*%
%LPD*%
G01*
G04 APERTURE LIST*
G04 Aperture macros list*
%AMRoundRect*
0 Rectangle with rounded corners*
0 $1 Rounding radius*
0 $2 $3 $4 $5 $6 $7 $8 $9 X,Y pos of 4 corners*
0 Add a 4 corners polygon primitive as box body*
4,1,4,$2,$3,$4,$5,$6,$7,$8,$9,$2,$3,0*
0 Add four circle primitives for the rounded corners*
1,1,$1+$1,$2,$3*
1,1,$1+$1,$4,$5*
1,1,$1+$1,$6,$7*
1,1,$1+$1,$8,$9*
0 Add four rect primitives between the rounded corners*
20,1,$1+$1,$2,$3,$4,$5,0*
20,1,$1+$1,$4,$5,$6,$7,0*
20,1,$1+$1,$6,$7,$8,$9,0*
20,1,$1+$1,$8,$9,$2,$3,0*%
G04 Aperture macros list end*
%ADD10C,0.300000*%
%ADD11C,0.400000*%
%ADD12C,0.100000*%
%ADD13C,0.120000*%
%ADD14RoundRect,0.045200X-0.255800X-0.180800X0.255800X-0.180800X0.255800X0.180800X-0.255800X0.180800X0*%
%ADD15RoundRect,0.045200X0.255800X0.180800X-0.255800X0.180800X-0.255800X-0.180800X0.255800X-0.180800X0*%
%ADD16R,1.700000X1.700000*%
%ADD17O,1.700000X1.700000*%
%ADD18RoundRect,0.200000X-0.335876X-0.053033X-0.053033X-0.335876X0.335876X0.053033X0.053033X0.335876X0*%
%ADD19RoundRect,0.250000X2.262742X-2.616295X2.616295X-2.262742X-2.262742X2.616295X-2.616295X2.262742X0*%
%ADD20RoundRect,0.250000X1.909188X-2.262742X2.262742X-1.909188X-1.909188X2.262742X-2.262742X1.909188X0*%
G04 APERTURE END LIST*
D10*
G36*
X80747843Y-81196551D02*
G01*
X80848960Y-81196551D01*
X80848960Y-81953606D01*
X80850928Y-82022588D01*
X80856831Y-82085188D01*
X80869110Y-82151882D01*
X80887056Y-82209385D01*
X80915156Y-82264856D01*
X80929560Y-82284799D01*
X80975081Y-82328012D01*
X81033095Y-82358878D01*
X81094105Y-82375758D01*
X81154012Y-82382703D01*
X81186601Y-82383571D01*
X81249823Y-82380099D01*
X81314752Y-82367270D01*
X81370173Y-82344988D01*
X81421867Y-82307949D01*
X81443056Y-82284799D01*
X81474462Y-82234690D01*
X81498154Y-82172071D01*
X81512322Y-82108441D01*
X81519800Y-82048394D01*
X81523342Y-81981965D01*
X81523656Y-81953606D01*
X81523656Y-81196551D01*
X81624773Y-81196551D01*
X81624773Y-81974122D01*
X81623037Y-82033304D01*
X81615986Y-82102064D01*
X81603511Y-82165029D01*
X81585612Y-82222198D01*
X81556974Y-82283149D01*
X81520525Y-82335754D01*
X81513691Y-82343711D01*
X81468347Y-82386640D01*
X81415625Y-82420688D01*
X81355525Y-82445854D01*
X81288047Y-82462138D01*
X81226181Y-82468923D01*
X81186601Y-82470033D01*
X81121491Y-82466949D01*
X81061534Y-82457697D01*
X80996385Y-82438452D01*
X80938655Y-82410326D01*
X80888344Y-82373317D01*
X80858925Y-82343711D01*
X80821175Y-82292496D01*
X80791235Y-82232936D01*
X80772251Y-82176926D01*
X80758691Y-82115121D01*
X80750555Y-82047520D01*
X80747843Y-81974122D01*
X80747843Y-81196551D01*
G37*
G36*
X81902037Y-81196551D02*
G01*
X82006378Y-81196551D01*
X82280125Y-82300333D01*
X82552993Y-81196551D01*
X82671695Y-81196551D01*
X82942805Y-82293885D01*
X83215966Y-81196551D01*
X83320014Y-81196551D01*
X83009630Y-82446000D01*
X82877153Y-82446000D01*
X82612491Y-81379147D01*
X82348416Y-82446000D01*
X82211835Y-82446000D01*
X81902037Y-81196551D01*
G37*
G36*
X83894087Y-81485304D02*
G01*
X83959525Y-81498514D01*
X84019325Y-81521456D01*
X84073487Y-81554132D01*
X84108723Y-81583431D01*
X84150012Y-81636591D01*
X84176463Y-81698673D01*
X84191946Y-81763451D01*
X84199780Y-81825587D01*
X84203006Y-81895136D01*
X84203098Y-81909935D01*
X84203098Y-82446000D01*
X84109309Y-82446000D01*
X84118688Y-82186027D01*
X84100005Y-82242184D01*
X84074203Y-82300656D01*
X84039440Y-82356579D01*
X83993562Y-82404280D01*
X83954850Y-82428707D01*
X83896150Y-82452235D01*
X83837728Y-82465997D01*
X83784857Y-82470033D01*
X83725898Y-82466387D01*
X83665489Y-82453289D01*
X83606419Y-82427168D01*
X83561814Y-82393829D01*
X83522144Y-82345024D01*
X83495456Y-82284998D01*
X83482634Y-82222222D01*
X83479844Y-82171080D01*
X83575882Y-82171080D01*
X83580913Y-82231742D01*
X83600727Y-82291087D01*
X83639483Y-82337263D01*
X83690825Y-82366911D01*
X83749008Y-82382875D01*
X83791598Y-82385916D01*
X83851048Y-82380939D01*
X83912047Y-82362552D01*
X83964041Y-82330618D01*
X84007031Y-82285135D01*
X84032226Y-82244353D01*
X84057924Y-82190686D01*
X84081185Y-82129664D01*
X84097210Y-82070352D01*
X84106662Y-82004663D01*
X84107843Y-81972657D01*
X84107843Y-81924883D01*
X83911179Y-81924883D01*
X83847291Y-81927088D01*
X83781845Y-81935234D01*
X83719036Y-81951895D01*
X83663660Y-81980009D01*
X83653552Y-81987605D01*
X83612593Y-82032473D01*
X83586805Y-82088675D01*
X83576565Y-82148948D01*
X83575882Y-82171080D01*
X83479844Y-82171080D01*
X83479748Y-82169321D01*
X83484825Y-82107528D01*
X83503061Y-82043844D01*
X83534559Y-81987562D01*
X83579320Y-81938679D01*
X83585848Y-81933090D01*
X83638435Y-81898600D01*
X83693534Y-81875780D01*
X83757886Y-81859184D01*
X83818580Y-81850108D01*
X83885701Y-81845354D01*
X83929058Y-81844576D01*
X84107843Y-81844576D01*
X84107843Y-81839007D01*
X84102488Y-81775292D01*
X84086421Y-81718347D01*
X84056007Y-81663015D01*
X84040139Y-81643222D01*
X83989856Y-81603191D01*
X83929722Y-81579840D01*
X83864436Y-81569165D01*
X83817976Y-81567311D01*
X83759408Y-81571392D01*
X83699769Y-81583633D01*
X83659414Y-81596327D01*
X83605470Y-81621997D01*
X83550728Y-81655153D01*
X83510230Y-81682203D01*
X83510230Y-81577277D01*
X83562737Y-81547423D01*
X83616146Y-81522597D01*
X83653552Y-81509279D01*
X83711300Y-81494751D01*
X83773236Y-81484984D01*
X83833510Y-81481729D01*
X83894087Y-81485304D01*
G37*
G36*
X84660321Y-81241980D02*
G01*
X84660321Y-81504004D01*
X84972756Y-81504004D01*
X84972756Y-81586949D01*
X84660321Y-81586949D01*
X84660321Y-82132392D01*
X84663368Y-82195672D01*
X84676063Y-82254673D01*
X84686113Y-82275127D01*
X84724203Y-82321495D01*
X84777078Y-82352665D01*
X84835124Y-82362969D01*
X84841451Y-82363055D01*
X84972756Y-82363055D01*
X84972756Y-82446000D01*
X84845554Y-82446000D01*
X84782816Y-82440598D01*
X84725503Y-82424392D01*
X84668184Y-82393715D01*
X84647132Y-82377709D01*
X84607461Y-82330576D01*
X84583098Y-82274316D01*
X84570195Y-82213999D01*
X84565387Y-82154061D01*
X84565066Y-82132392D01*
X84565066Y-81586949D01*
X84454571Y-81586949D01*
X84454571Y-81504004D01*
X84565066Y-81504004D01*
X84565066Y-81241980D01*
X84660321Y-81241980D01*
G37*
G36*
X85649864Y-81486067D02*
G01*
X85710073Y-81499081D01*
X85772244Y-81525229D01*
X85825719Y-81563186D01*
X85864633Y-81605120D01*
X85896308Y-81655730D01*
X85921429Y-81711718D01*
X85939997Y-81773086D01*
X85952011Y-81839831D01*
X85957017Y-81899562D01*
X85957836Y-81937193D01*
X85957836Y-81994346D01*
X85257055Y-81994346D01*
X85259108Y-82056743D01*
X85266994Y-82123706D01*
X85280795Y-82182033D01*
X85304371Y-82239169D01*
X85341172Y-82290075D01*
X85393361Y-82332005D01*
X85448432Y-82358867D01*
X85512284Y-82376556D01*
X85574001Y-82384418D01*
X85618730Y-82385916D01*
X85679128Y-82379960D01*
X85737483Y-82367369D01*
X85747397Y-82364813D01*
X85804702Y-82346946D01*
X85859381Y-82324872D01*
X85916523Y-82297246D01*
X85922372Y-82294178D01*
X85922372Y-82395881D01*
X85867378Y-82417439D01*
X85807214Y-82436789D01*
X85747397Y-82451568D01*
X85687359Y-82462820D01*
X85626454Y-82469582D01*
X85609644Y-82470033D01*
X85544211Y-82467142D01*
X85484015Y-82458470D01*
X85418695Y-82440431D01*
X85360917Y-82414066D01*
X85310681Y-82379376D01*
X85281381Y-82351624D01*
X85240742Y-82300513D01*
X85208512Y-82241261D01*
X85188075Y-82185667D01*
X85173478Y-82124420D01*
X85164720Y-82057520D01*
X85161800Y-81984967D01*
X85163508Y-81924434D01*
X85164827Y-81911108D01*
X85261158Y-81911108D01*
X85862289Y-81911108D01*
X85859311Y-81846512D01*
X85850377Y-81788573D01*
X85832427Y-81729390D01*
X85801987Y-81672846D01*
X85777585Y-81643515D01*
X85728429Y-81603330D01*
X85669256Y-81578028D01*
X85607434Y-81567981D01*
X85585024Y-81567311D01*
X85520636Y-81572312D01*
X85461706Y-81587315D01*
X85408235Y-81612319D01*
X85360223Y-81647325D01*
X85318971Y-81698170D01*
X85291100Y-81758703D01*
X85273505Y-81823510D01*
X85263468Y-81887855D01*
X85261158Y-81911108D01*
X85164827Y-81911108D01*
X85170448Y-81854307D01*
X85182725Y-81790333D01*
X85200341Y-81732514D01*
X85228526Y-81671253D01*
X85264397Y-81618854D01*
X85271123Y-81610982D01*
X85316299Y-81567056D01*
X85367637Y-81532218D01*
X85425137Y-81506469D01*
X85488799Y-81489807D01*
X85558622Y-81482234D01*
X85583266Y-81481729D01*
X85649864Y-81486067D01*
G37*
G36*
X86772337Y-81593690D02*
G01*
X86717281Y-81573237D01*
X86711668Y-81572001D01*
X86652747Y-81567385D01*
X86642498Y-81567311D01*
X86577413Y-81573595D01*
X86518154Y-81592444D01*
X86464720Y-81623860D01*
X86417111Y-81667842D01*
X86383107Y-81723133D01*
X86364354Y-81779217D01*
X86352333Y-81846744D01*
X86347387Y-81913734D01*
X86346769Y-81950382D01*
X86346769Y-82446000D01*
X86253859Y-82446000D01*
X86253859Y-81504004D01*
X86346769Y-81504004D01*
X86346769Y-81646739D01*
X86385058Y-81597290D01*
X86431629Y-81557079D01*
X86435868Y-81553829D01*
X86485309Y-81522285D01*
X86545966Y-81497571D01*
X86604360Y-81485179D01*
X86658911Y-81481729D01*
X86715478Y-81484073D01*
X86772337Y-81491987D01*
X86772337Y-81593690D01*
G37*
G36*
X86942917Y-81144674D02*
G01*
X87037292Y-81144674D01*
X87037292Y-82446000D01*
X86942917Y-82446000D01*
X86942917Y-81144674D01*
G37*
G36*
X87809473Y-81486489D02*
G01*
X87869360Y-81500771D01*
X87923889Y-81524573D01*
X87973060Y-81557896D01*
X88016872Y-81600740D01*
X88030286Y-81617137D01*
X88066044Y-81670975D01*
X88094404Y-81730934D01*
X88115366Y-81797014D01*
X88127183Y-81856756D01*
X88133862Y-81920748D01*
X88135506Y-81975002D01*
X88132937Y-82044469D01*
X88125230Y-82109257D01*
X88112386Y-82169365D01*
X88090191Y-82235317D01*
X88060598Y-82294531D01*
X88030286Y-82338728D01*
X87988259Y-82384746D01*
X87940875Y-82421242D01*
X87888132Y-82448218D01*
X87830031Y-82465673D01*
X87766572Y-82473607D01*
X87744229Y-82474136D01*
X87678455Y-82469396D01*
X87618080Y-82455177D01*
X87563105Y-82431478D01*
X87513529Y-82398299D01*
X87469352Y-82355640D01*
X87455827Y-82339314D01*
X87420467Y-82285785D01*
X87392423Y-82225434D01*
X87371695Y-82158263D01*
X87360009Y-82097076D01*
X87353405Y-82031151D01*
X87351779Y-81975002D01*
X87351812Y-81974122D01*
X87449672Y-81974122D01*
X87452474Y-82043705D01*
X87460882Y-82107374D01*
X87474896Y-82165127D01*
X87498329Y-82225032D01*
X87529393Y-82276886D01*
X87572440Y-82324586D01*
X87622742Y-82358658D01*
X87680298Y-82379101D01*
X87745108Y-82385916D01*
X87809661Y-82379101D01*
X87867034Y-82358658D01*
X87917226Y-82324586D01*
X87960237Y-82276886D01*
X87991643Y-82224431D01*
X88015335Y-82164262D01*
X88029503Y-82106549D01*
X88038003Y-82043169D01*
X88040837Y-81974122D01*
X88038003Y-81907067D01*
X88029503Y-81845267D01*
X88012422Y-81779809D01*
X87987628Y-81721504D01*
X87960237Y-81677221D01*
X87917226Y-81629135D01*
X87867034Y-81594789D01*
X87809661Y-81574181D01*
X87745108Y-81567311D01*
X87680573Y-81574126D01*
X87623255Y-81594569D01*
X87573155Y-81628641D01*
X87530272Y-81676341D01*
X87498866Y-81728057D01*
X87475174Y-81787290D01*
X87459196Y-81854041D01*
X87451639Y-81917239D01*
X87449672Y-81974122D01*
X87351812Y-81974122D01*
X87354348Y-81906885D01*
X87362055Y-81843219D01*
X87374899Y-81784004D01*
X87397094Y-81718821D01*
X87426687Y-81660047D01*
X87456999Y-81615965D01*
X87499245Y-81570345D01*
X87546850Y-81534165D01*
X87599812Y-81507422D01*
X87658133Y-81490118D01*
X87721812Y-81482253D01*
X87744229Y-81481729D01*
X87809473Y-81486489D01*
G37*
G36*
X88836466Y-81486489D02*
G01*
X88896353Y-81500771D01*
X88950881Y-81524573D01*
X89000052Y-81557896D01*
X89043865Y-81600740D01*
X89057278Y-81617137D01*
X89093036Y-81670975D01*
X89121396Y-81730934D01*
X89142358Y-81797014D01*
X89154175Y-81856756D01*
X89160854Y-81920748D01*
X89162498Y-81975002D01*
X89159929Y-82044469D01*
X89152223Y-82109257D01*
X89139378Y-82169365D01*
X89117184Y-82235317D01*
X89087590Y-82294531D01*
X89057278Y-82338728D01*
X89015252Y-82384746D01*
X88967867Y-82421242D01*
X88915124Y-82448218D01*
X88857023Y-82465673D01*
X88793565Y-82473607D01*
X88771221Y-82474136D01*
X88705447Y-82469396D01*
X88645073Y-82455177D01*
X88590097Y-82431478D01*
X88540521Y-82398299D01*
X88496345Y-82355640D01*
X88482819Y-82339314D01*
X88447459Y-82285785D01*
X88419415Y-82225434D01*
X88398687Y-82158263D01*
X88387002Y-82097076D01*
X88380397Y-82031151D01*
X88378771Y-81975002D01*
X88378804Y-81974122D01*
X88476664Y-81974122D01*
X88479467Y-82043705D01*
X88487875Y-82107374D01*
X88501888Y-82165127D01*
X88525322Y-82225032D01*
X88556385Y-82276886D01*
X88599433Y-82324586D01*
X88649735Y-82358658D01*
X88707290Y-82379101D01*
X88772100Y-82385916D01*
X88836654Y-82379101D01*
X88894026Y-82358658D01*
X88944218Y-82324586D01*
X88987229Y-82276886D01*
X89018635Y-82224431D01*
X89042327Y-82164262D01*
X89056495Y-82106549D01*
X89064996Y-82043169D01*
X89067829Y-81974122D01*
X89064996Y-81907067D01*
X89056495Y-81845267D01*
X89039415Y-81779809D01*
X89014621Y-81721504D01*
X88987229Y-81677221D01*
X88944218Y-81629135D01*
X88894026Y-81594789D01*
X88836654Y-81574181D01*
X88772100Y-81567311D01*
X88707565Y-81574126D01*
X88650247Y-81594569D01*
X88600147Y-81628641D01*
X88557264Y-81676341D01*
X88525858Y-81728057D01*
X88502166Y-81787290D01*
X88486188Y-81854041D01*
X88478632Y-81917239D01*
X88476664Y-81974122D01*
X88378804Y-81974122D01*
X88381340Y-81906885D01*
X88389047Y-81843219D01*
X88401891Y-81784004D01*
X88424086Y-81718821D01*
X88453679Y-81660047D01*
X88483991Y-81615965D01*
X88526238Y-81570345D01*
X88573842Y-81534165D01*
X88626805Y-81507422D01*
X88685125Y-81490118D01*
X88748804Y-81482253D01*
X88771221Y-81481729D01*
X88836466Y-81486489D01*
G37*
G36*
X89887899Y-81931038D02*
G01*
X90350984Y-81931038D01*
X90350984Y-82017207D01*
X89887899Y-82017207D01*
X89887899Y-81931038D01*
G37*
G36*
X91216189Y-81196551D02*
G01*
X91346615Y-81196551D01*
X91682205Y-82091652D01*
X92019553Y-81196551D01*
X92149099Y-81196551D01*
X92149099Y-82446000D01*
X92046517Y-82446000D01*
X92046517Y-81407577D01*
X91745806Y-82209475D01*
X91618897Y-82209475D01*
X91319065Y-81407870D01*
X91319065Y-82446000D01*
X91216189Y-82446000D01*
X91216189Y-81196551D01*
G37*
G36*
X93015837Y-81486067D02*
G01*
X93076047Y-81499081D01*
X93138217Y-81525229D01*
X93191692Y-81563186D01*
X93230607Y-81605120D01*
X93262281Y-81655730D01*
X93287402Y-81711718D01*
X93305970Y-81773086D01*
X93317985Y-81839831D01*
X93322991Y-81899562D01*
X93323810Y-81937193D01*
X93323810Y-81994346D01*
X92623028Y-81994346D01*
X92625082Y-82056743D01*
X92632968Y-82123706D01*
X92646768Y-82182033D01*
X92670344Y-82239169D01*
X92707146Y-82290075D01*
X92759334Y-82332005D01*
X92814406Y-82358867D01*
X92878257Y-82376556D01*
X92939975Y-82384418D01*
X92984703Y-82385916D01*
X93045102Y-82379960D01*
X93103457Y-82367369D01*
X93113370Y-82364813D01*
X93170675Y-82346946D01*
X93225355Y-82324872D01*
X93282496Y-82297246D01*
X93288346Y-82294178D01*
X93288346Y-82395881D01*
X93233351Y-82417439D01*
X93173188Y-82436789D01*
X93113370Y-82451568D01*
X93053332Y-82462820D01*
X92992427Y-82469582D01*
X92975617Y-82470033D01*
X92910184Y-82467142D01*
X92849989Y-82458470D01*
X92784668Y-82440431D01*
X92726890Y-82414066D01*
X92676655Y-82379376D01*
X92647355Y-82351624D01*
X92606716Y-82300513D01*
X92574485Y-82241261D01*
X92554049Y-82185667D01*
X92539451Y-82124420D01*
X92530693Y-82057520D01*
X92527774Y-81984967D01*
X92529482Y-81924434D01*
X92530801Y-81911108D01*
X92627132Y-81911108D01*
X93228262Y-81911108D01*
X93225284Y-81846512D01*
X93216351Y-81788573D01*
X93198401Y-81729390D01*
X93167961Y-81672846D01*
X93143559Y-81643515D01*
X93094403Y-81603330D01*
X93035229Y-81578028D01*
X92973408Y-81567981D01*
X92950998Y-81567311D01*
X92886609Y-81572312D01*
X92827679Y-81587315D01*
X92774209Y-81612319D01*
X92726196Y-81647325D01*
X92684944Y-81698170D01*
X92657073Y-81758703D01*
X92639478Y-81823510D01*
X92629442Y-81887855D01*
X92627132Y-81911108D01*
X92530801Y-81911108D01*
X92536421Y-81854307D01*
X92548699Y-81790333D01*
X92566314Y-81732514D01*
X92594499Y-81671253D01*
X92630371Y-81618854D01*
X92637097Y-81610982D01*
X92682273Y-81567056D01*
X92733611Y-81532218D01*
X92791111Y-81506469D01*
X92854772Y-81489807D01*
X92924595Y-81482234D01*
X92949239Y-81481729D01*
X93015837Y-81486067D01*
G37*
G36*
X94269323Y-81552364D02*
G01*
X94269323Y-81655239D01*
X94217474Y-81624973D01*
X94164709Y-81598574D01*
X94143880Y-81590466D01*
X94083981Y-81575474D01*
X94021855Y-81567877D01*
X94000265Y-81567311D01*
X93930970Y-81570804D01*
X93869487Y-81581284D01*
X93807627Y-81602339D01*
X93756398Y-81632903D01*
X93720949Y-81666669D01*
X93684276Y-81723144D01*
X93660782Y-81783950D01*
X93647030Y-81844531D01*
X93639171Y-81912922D01*
X93637125Y-81975881D01*
X93639171Y-82039269D01*
X93647030Y-82108100D01*
X93660782Y-82169038D01*
X93684276Y-82230156D01*
X93715792Y-82280531D01*
X93720949Y-82286851D01*
X93769950Y-82330192D01*
X93824216Y-82357957D01*
X93889113Y-82376241D01*
X93953201Y-82384368D01*
X94000265Y-82385916D01*
X94060603Y-82381987D01*
X94120169Y-82370202D01*
X94128053Y-82368037D01*
X94186540Y-82348282D01*
X94240781Y-82323580D01*
X94269323Y-82308540D01*
X94269323Y-82407018D01*
X94212698Y-82430598D01*
X94156654Y-82448469D01*
X94130984Y-82454792D01*
X94070340Y-82465211D01*
X94010482Y-82469795D01*
X93993524Y-82470033D01*
X93931097Y-82467292D01*
X93872778Y-82459071D01*
X93808217Y-82441969D01*
X93749570Y-82416975D01*
X93696837Y-82384089D01*
X93664968Y-82357779D01*
X93623333Y-82309883D01*
X93590312Y-82251043D01*
X93569375Y-82193652D01*
X93554420Y-82128660D01*
X93545447Y-82056070D01*
X93542576Y-81992527D01*
X93542456Y-81975881D01*
X93544370Y-81911117D01*
X93550113Y-81851207D01*
X93562675Y-81783146D01*
X93581220Y-81722670D01*
X93611369Y-81660112D01*
X93650133Y-81608475D01*
X93664968Y-81593690D01*
X93713758Y-81555640D01*
X93768462Y-81525463D01*
X93829080Y-81503159D01*
X93895613Y-81488726D01*
X93955575Y-81482713D01*
X93993524Y-81481729D01*
X94053823Y-81485431D01*
X94112628Y-81495500D01*
X94135966Y-81501073D01*
X94194455Y-81518446D01*
X94250843Y-81542456D01*
X94269323Y-81552364D01*
G37*
G36*
X95257041Y-81879454D02*
G01*
X95257041Y-82446000D01*
X95162372Y-82446000D01*
X95162372Y-81884436D01*
X95160342Y-81822478D01*
X95152843Y-81759441D01*
X95137506Y-81699590D01*
X95108186Y-81643067D01*
X95104633Y-81638533D01*
X95058005Y-81597984D01*
X95003233Y-81575727D01*
X94943857Y-81567590D01*
X94929365Y-81567311D01*
X94864811Y-81572294D01*
X94807439Y-81587242D01*
X94751478Y-81615969D01*
X94714236Y-81647032D01*
X94676124Y-81700335D01*
X94652718Y-81762195D01*
X94640322Y-81827503D01*
X94635702Y-81891787D01*
X94635394Y-81914918D01*
X94635394Y-82446000D01*
X94541019Y-82446000D01*
X94541019Y-81144674D01*
X94635394Y-81144674D01*
X94635394Y-81631792D01*
X94673447Y-81585852D01*
X94714236Y-81550605D01*
X94766343Y-81517310D01*
X94821536Y-81496863D01*
X94885082Y-81485025D01*
X94947536Y-81481729D01*
X95006621Y-81486595D01*
X95067483Y-81504076D01*
X95121238Y-81534269D01*
X95167886Y-81577174D01*
X95173217Y-81583431D01*
X95205879Y-81632158D01*
X95230518Y-81689860D01*
X95247136Y-81756539D01*
X95254994Y-81820836D01*
X95257041Y-81879454D01*
G37*
G36*
X95967109Y-81485304D02*
G01*
X96032547Y-81498514D01*
X96092347Y-81521456D01*
X96146509Y-81554132D01*
X96181744Y-81583431D01*
X96223034Y-81636591D01*
X96249484Y-81698673D01*
X96264968Y-81763451D01*
X96272802Y-81825587D01*
X96276028Y-81895136D01*
X96276120Y-81909935D01*
X96276120Y-82446000D01*
X96182330Y-82446000D01*
X96191709Y-82186027D01*
X96173026Y-82242184D01*
X96147225Y-82300656D01*
X96112461Y-82356579D01*
X96066583Y-82404280D01*
X96027871Y-82428707D01*
X95969172Y-82452235D01*
X95910749Y-82465997D01*
X95857878Y-82470033D01*
X95798920Y-82466387D01*
X95738511Y-82453289D01*
X95679441Y-82427168D01*
X95634836Y-82393829D01*
X95595165Y-82345024D01*
X95568478Y-82284998D01*
X95555655Y-82222222D01*
X95552866Y-82171080D01*
X95648904Y-82171080D01*
X95653935Y-82231742D01*
X95673748Y-82291087D01*
X95712505Y-82337263D01*
X95763846Y-82366911D01*
X95822030Y-82382875D01*
X95864619Y-82385916D01*
X95924070Y-82380939D01*
X95985068Y-82362552D01*
X96037062Y-82330618D01*
X96080053Y-82285135D01*
X96105247Y-82244353D01*
X96130946Y-82190686D01*
X96154207Y-82129664D01*
X96170231Y-82070352D01*
X96179683Y-82004663D01*
X96180865Y-81972657D01*
X96180865Y-81924883D01*
X95984201Y-81924883D01*
X95920312Y-81927088D01*
X95854866Y-81935234D01*
X95792058Y-81951895D01*
X95736682Y-81980009D01*
X95726573Y-81987605D01*
X95685615Y-82032473D01*
X95659826Y-82088675D01*
X95649587Y-82148948D01*
X95648904Y-82171080D01*
X95552866Y-82171080D01*
X95552770Y-82169321D01*
X95557847Y-82107528D01*
X95576083Y-82043844D01*
X95607581Y-81987562D01*
X95652342Y-81938679D01*
X95658869Y-81933090D01*
X95711456Y-81898600D01*
X95766555Y-81875780D01*
X95830907Y-81859184D01*
X95891602Y-81850108D01*
X95958723Y-81845354D01*
X96002079Y-81844576D01*
X96180865Y-81844576D01*
X96180865Y-81839007D01*
X96175510Y-81775292D01*
X96159443Y-81718347D01*
X96129029Y-81663015D01*
X96113161Y-81643222D01*
X96062877Y-81603191D01*
X96002743Y-81579840D01*
X95937457Y-81569165D01*
X95890998Y-81567311D01*
X95832430Y-81571392D01*
X95772790Y-81583633D01*
X95732435Y-81596327D01*
X95678491Y-81621997D01*
X95623749Y-81655153D01*
X95583252Y-81682203D01*
X95583252Y-81577277D01*
X95635758Y-81547423D01*
X95689167Y-81522597D01*
X95726573Y-81509279D01*
X95784321Y-81494751D01*
X95846258Y-81484984D01*
X95906531Y-81481729D01*
X95967109Y-81485304D01*
G37*
G36*
X96733342Y-81241980D02*
G01*
X96733342Y-81504004D01*
X97045778Y-81504004D01*
X97045778Y-81586949D01*
X96733342Y-81586949D01*
X96733342Y-82132392D01*
X96736390Y-82195672D01*
X96749085Y-82254673D01*
X96759134Y-82275127D01*
X96797225Y-82321495D01*
X96850100Y-82352665D01*
X96908146Y-82362969D01*
X96914473Y-82363055D01*
X97045778Y-82363055D01*
X97045778Y-82446000D01*
X96918576Y-82446000D01*
X96855838Y-82440598D01*
X96798524Y-82424392D01*
X96741205Y-82393715D01*
X96720153Y-82377709D01*
X96680483Y-82330576D01*
X96656120Y-82274316D01*
X96643217Y-82213999D01*
X96638408Y-82154061D01*
X96638088Y-82132392D01*
X96638088Y-81586949D01*
X96527592Y-81586949D01*
X96527592Y-81504004D01*
X96638088Y-81504004D01*
X96638088Y-81241980D01*
X96733342Y-81241980D01*
G37*
G36*
X97812505Y-81593690D02*
G01*
X97757448Y-81573237D01*
X97751835Y-81572001D01*
X97692914Y-81567385D01*
X97682665Y-81567311D01*
X97617581Y-81573595D01*
X97558321Y-81592444D01*
X97504887Y-81623860D01*
X97457278Y-81667842D01*
X97423275Y-81723133D01*
X97404522Y-81779217D01*
X97392500Y-81846744D01*
X97387554Y-81913734D01*
X97386936Y-81950382D01*
X97386936Y-82446000D01*
X97294026Y-82446000D01*
X97294026Y-81504004D01*
X97386936Y-81504004D01*
X97386936Y-81646739D01*
X97425226Y-81597290D01*
X97471796Y-81557079D01*
X97476036Y-81553829D01*
X97525477Y-81522285D01*
X97586134Y-81497571D01*
X97644528Y-81485179D01*
X97699079Y-81481729D01*
X97755645Y-81484073D01*
X97812505Y-81491987D01*
X97812505Y-81593690D01*
G37*
G36*
X98345524Y-81486489D02*
G01*
X98405411Y-81500771D01*
X98459939Y-81524573D01*
X98509110Y-81557896D01*
X98552923Y-81600740D01*
X98566336Y-81617137D01*
X98602094Y-81670975D01*
X98630454Y-81730934D01*
X98651416Y-81797014D01*
X98663233Y-81856756D01*
X98669912Y-81920748D01*
X98671556Y-81975002D01*
X98668987Y-82044469D01*
X98661280Y-82109257D01*
X98648436Y-82169365D01*
X98626241Y-82235317D01*
X98596648Y-82294531D01*
X98566336Y-82338728D01*
X98524309Y-82384746D01*
X98476925Y-82421242D01*
X98424182Y-82448218D01*
X98366081Y-82465673D01*
X98302622Y-82473607D01*
X98280279Y-82474136D01*
X98214505Y-82469396D01*
X98154130Y-82455177D01*
X98099155Y-82431478D01*
X98049579Y-82398299D01*
X98005403Y-82355640D01*
X97991877Y-82339314D01*
X97956517Y-82285785D01*
X97928473Y-82225434D01*
X97907745Y-82158263D01*
X97896060Y-82097076D01*
X97889455Y-82031151D01*
X97887829Y-81975002D01*
X97887862Y-81974122D01*
X97985722Y-81974122D01*
X97988525Y-82043705D01*
X97996933Y-82107374D01*
X98010946Y-82165127D01*
X98034380Y-82225032D01*
X98065443Y-82276886D01*
X98108491Y-82324586D01*
X98158792Y-82358658D01*
X98216348Y-82379101D01*
X98281158Y-82385916D01*
X98345711Y-82379101D01*
X98403084Y-82358658D01*
X98453276Y-82324586D01*
X98496287Y-82276886D01*
X98527693Y-82224431D01*
X98551385Y-82164262D01*
X98565553Y-82106549D01*
X98574054Y-82043169D01*
X98576887Y-81974122D01*
X98574054Y-81907067D01*
X98565553Y-81845267D01*
X98548473Y-81779809D01*
X98523679Y-81721504D01*
X98496287Y-81677221D01*
X98453276Y-81629135D01*
X98403084Y-81594789D01*
X98345711Y-81574181D01*
X98281158Y-81567311D01*
X98216623Y-81574126D01*
X98159305Y-81594569D01*
X98109205Y-81628641D01*
X98066322Y-81676341D01*
X98034916Y-81728057D01*
X98011224Y-81787290D01*
X97995246Y-81854041D01*
X97987690Y-81917239D01*
X97985722Y-81974122D01*
X97887862Y-81974122D01*
X97890398Y-81906885D01*
X97898105Y-81843219D01*
X97910949Y-81784004D01*
X97933144Y-81718821D01*
X97962737Y-81660047D01*
X97993049Y-81615965D01*
X98035296Y-81570345D01*
X98082900Y-81534165D01*
X98135863Y-81507422D01*
X98194183Y-81490118D01*
X98257862Y-81482253D01*
X98280279Y-81481729D01*
X98345524Y-81486489D01*
G37*
G36*
X99688583Y-81879454D02*
G01*
X99688583Y-82446000D01*
X99593915Y-82446000D01*
X99593915Y-81884436D01*
X99591967Y-81821912D01*
X99584772Y-81758447D01*
X99570058Y-81698418D01*
X99541928Y-81642136D01*
X99538520Y-81637653D01*
X99494307Y-81597605D01*
X99437833Y-81574181D01*
X99375855Y-81567311D01*
X99314415Y-81572111D01*
X99257592Y-81586509D01*
X99199184Y-81614180D01*
X99157795Y-81644101D01*
X99118044Y-81690043D01*
X99089651Y-81750494D01*
X99074123Y-81815289D01*
X99067735Y-81879668D01*
X99066936Y-81914918D01*
X99066936Y-82446000D01*
X98972561Y-82446000D01*
X98972561Y-81504004D01*
X99066936Y-81504004D01*
X99066936Y-81645567D01*
X99101741Y-81596987D01*
X99150347Y-81556042D01*
X99158674Y-81550312D01*
X99209818Y-81520307D01*
X99270509Y-81496798D01*
X99334538Y-81484140D01*
X99379079Y-81481729D01*
X99438149Y-81486343D01*
X99498961Y-81502916D01*
X99552629Y-81531543D01*
X99599153Y-81572223D01*
X99604466Y-81578156D01*
X99641267Y-81632598D01*
X99664843Y-81691654D01*
X99678643Y-81750758D01*
X99686529Y-81817693D01*
X99688583Y-81879454D01*
G37*
G36*
X100035310Y-81504004D02*
G01*
X100129979Y-81504004D01*
X100129979Y-82446000D01*
X100035310Y-82446000D01*
X100035310Y-81504004D01*
G37*
G36*
X100035310Y-81144674D02*
G01*
X100129979Y-81144674D01*
X100129979Y-81267186D01*
X100035310Y-81267186D01*
X100035310Y-81144674D01*
G37*
G36*
X101154626Y-81552364D02*
G01*
X101154626Y-81655239D01*
X101102778Y-81624973D01*
X101050012Y-81598574D01*
X101029183Y-81590466D01*
X100969284Y-81575474D01*
X100907158Y-81567877D01*
X100885568Y-81567311D01*
X100816274Y-81570804D01*
X100754790Y-81581284D01*
X100692930Y-81602339D01*
X100641701Y-81632903D01*
X100606252Y-81666669D01*
X100569579Y-81723144D01*
X100546086Y-81783950D01*
X100532333Y-81844531D01*
X100524475Y-81912922D01*
X100522428Y-81975881D01*
X100524475Y-82039269D01*
X100532333Y-82108100D01*
X100546086Y-82169038D01*
X100569579Y-82230156D01*
X100601095Y-82280531D01*
X100606252Y-82286851D01*
X100655254Y-82330192D01*
X100709520Y-82357957D01*
X100774417Y-82376241D01*
X100838504Y-82384368D01*
X100885568Y-82385916D01*
X100945907Y-82381987D01*
X101005473Y-82370202D01*
X101013356Y-82368037D01*
X101071844Y-82348282D01*
X101126084Y-82323580D01*
X101154626Y-82308540D01*
X101154626Y-82407018D01*
X101098002Y-82430598D01*
X101041958Y-82448469D01*
X101016287Y-82454792D01*
X100955644Y-82465211D01*
X100895785Y-82469795D01*
X100878827Y-82470033D01*
X100816401Y-82467292D01*
X100758082Y-82459071D01*
X100693520Y-82441969D01*
X100634873Y-82416975D01*
X100582141Y-82384089D01*
X100550272Y-82357779D01*
X100508637Y-82309883D01*
X100475616Y-82251043D01*
X100454679Y-82193652D01*
X100439724Y-82128660D01*
X100430751Y-82056070D01*
X100427879Y-81992527D01*
X100427760Y-81975881D01*
X100429674Y-81911117D01*
X100435417Y-81851207D01*
X100447979Y-81783146D01*
X100466523Y-81722670D01*
X100496673Y-81660112D01*
X100535436Y-81608475D01*
X100550272Y-81593690D01*
X100599061Y-81555640D01*
X100653765Y-81525463D01*
X100714384Y-81503159D01*
X100780916Y-81488726D01*
X100840879Y-81482713D01*
X100878827Y-81481729D01*
X100939126Y-81485431D01*
X100997931Y-81495500D01*
X101021270Y-81501073D01*
X101079758Y-81518446D01*
X101136146Y-81542456D01*
X101154626Y-81552364D01*
G37*
G36*
X101967662Y-81534485D02*
G01*
X101967662Y-81639705D01*
X101912548Y-81609782D01*
X101858628Y-81584201D01*
X101855994Y-81583431D01*
X101796845Y-81573029D01*
X101735685Y-81568076D01*
X101715017Y-81567311D01*
X101654878Y-81570444D01*
X101595499Y-81581456D01*
X101539800Y-81602992D01*
X101516008Y-81617430D01*
X101479744Y-81663696D01*
X101464824Y-81721481D01*
X101462959Y-81756648D01*
X101475415Y-81814827D01*
X101512784Y-81858644D01*
X101565725Y-81889364D01*
X101622913Y-81910521D01*
X101671640Y-81923124D01*
X101723517Y-81934555D01*
X101786183Y-81950767D01*
X101847093Y-81972727D01*
X101902860Y-82001750D01*
X101926043Y-82018086D01*
X101969469Y-82061008D01*
X101999914Y-82116817D01*
X102011844Y-82175367D01*
X102012212Y-82181631D01*
X102007174Y-82245690D01*
X101992062Y-82302458D01*
X101963017Y-82357608D01*
X101931612Y-82394122D01*
X101882647Y-82427333D01*
X101821043Y-82451055D01*
X101756771Y-82464028D01*
X101693978Y-82469366D01*
X101659916Y-82470033D01*
X101600061Y-82468631D01*
X101540930Y-82463245D01*
X101502233Y-82455672D01*
X101443913Y-82437720D01*
X101385440Y-82417835D01*
X101361842Y-82409363D01*
X101361842Y-82291833D01*
X101413261Y-82320795D01*
X101466675Y-82348951D01*
X101503991Y-82364813D01*
X101564016Y-82377673D01*
X101623628Y-82384597D01*
X101663140Y-82385916D01*
X101723755Y-82382618D01*
X101781656Y-82371026D01*
X101837626Y-82345524D01*
X101853942Y-82333159D01*
X101893414Y-82284352D01*
X101912762Y-82224614D01*
X101914905Y-82193355D01*
X101906276Y-82135214D01*
X101875631Y-82090187D01*
X101825700Y-82059316D01*
X101765342Y-82034678D01*
X101706792Y-82017317D01*
X101682484Y-82011345D01*
X101629728Y-81999035D01*
X101567527Y-81981565D01*
X101508749Y-81957911D01*
X101456655Y-81926735D01*
X101448597Y-81920487D01*
X101406402Y-81877284D01*
X101378038Y-81823480D01*
X101368583Y-81763096D01*
X101373155Y-81701483D01*
X101389577Y-81640960D01*
X101422329Y-81585483D01*
X101464131Y-81547381D01*
X101521169Y-81515645D01*
X101577396Y-81496154D01*
X101638827Y-81484870D01*
X101696845Y-81481729D01*
X101756379Y-81482726D01*
X101818375Y-81487156D01*
X101857753Y-81494332D01*
X101915339Y-81513255D01*
X101967662Y-81534485D01*
G37*
G36*
X102931347Y-81196551D02*
G01*
X102931347Y-81672824D01*
X102833454Y-81672824D01*
X102833454Y-81196551D01*
X102931347Y-81196551D01*
G37*
G36*
X103339330Y-82360417D02*
G01*
X104028681Y-82360417D01*
X104028681Y-82446000D01*
X103221800Y-82446000D01*
X103221800Y-82346348D01*
X103531305Y-82024534D01*
X103573197Y-81981848D01*
X103620171Y-81933610D01*
X103665096Y-81887056D01*
X103707974Y-81842184D01*
X103737348Y-81811163D01*
X103780496Y-81763513D01*
X103817888Y-81718290D01*
X103849895Y-81671652D01*
X103870998Y-81615012D01*
X103877922Y-81552830D01*
X103878032Y-81542985D01*
X103872756Y-81477094D01*
X103856929Y-81418055D01*
X103826512Y-81359824D01*
X103793621Y-81320528D01*
X103742739Y-81286487D01*
X103680916Y-81267803D01*
X103620781Y-81261263D01*
X103595785Y-81260738D01*
X103531873Y-81267332D01*
X103473323Y-81282903D01*
X103416517Y-81304747D01*
X103409965Y-81307632D01*
X103353873Y-81337822D01*
X103301640Y-81369612D01*
X103244583Y-81406006D01*
X103236748Y-81411094D01*
X103236748Y-81301478D01*
X103290451Y-81268267D01*
X103343587Y-81240913D01*
X103382414Y-81222929D01*
X103442167Y-81199766D01*
X103501734Y-81184021D01*
X103561116Y-81175696D01*
X103594026Y-81174276D01*
X103653061Y-81177212D01*
X103717247Y-81188062D01*
X103776384Y-81206905D01*
X103830472Y-81233743D01*
X103866015Y-81257807D01*
X103908270Y-81299912D01*
X103940147Y-81352367D01*
X103961645Y-81415172D01*
X103971811Y-81477243D01*
X103974459Y-81534778D01*
X103969718Y-81596482D01*
X103955497Y-81655380D01*
X103945736Y-81681617D01*
X103918061Y-81737307D01*
X103885088Y-81788415D01*
X103849050Y-81834803D01*
X103840223Y-81845162D01*
X103796919Y-81891690D01*
X103752789Y-81937633D01*
X103708625Y-81983208D01*
X103339330Y-82360417D01*
G37*
G36*
X104954850Y-82034792D02*
G01*
X105130411Y-82034792D01*
X105130411Y-82119496D01*
X104954850Y-82119496D01*
X104954850Y-82446000D01*
X104852268Y-82446000D01*
X104852268Y-82119496D01*
X104255240Y-82119496D01*
X104255240Y-82034792D01*
X104367788Y-82034792D01*
X104852268Y-82034792D01*
X104852268Y-81283306D01*
X104367788Y-82034792D01*
X104255240Y-82034792D01*
X104255240Y-82021896D01*
X104792184Y-81196551D01*
X104954850Y-81196551D01*
X104954850Y-82034792D01*
G37*
G36*
X128803162Y-101227833D02*
G01*
X128858765Y-101236879D01*
X128916021Y-101251768D01*
X128974108Y-101271707D01*
X128987139Y-101276739D01*
X128987139Y-101386942D01*
X128931880Y-101356523D01*
X128877672Y-101332962D01*
X128859644Y-101326858D01*
X128799416Y-101312908D01*
X128747097Y-101308979D01*
X128675858Y-101314732D01*
X128611617Y-101331992D01*
X128554374Y-101360757D01*
X128504129Y-101401028D01*
X128460882Y-101452806D01*
X128424634Y-101516090D01*
X128412094Y-101544625D01*
X128393024Y-101605496D01*
X128381117Y-101670149D01*
X128374461Y-101734027D01*
X128371417Y-101793225D01*
X128370648Y-101857846D01*
X128370768Y-101871422D01*
X128403771Y-101820344D01*
X128446646Y-101777014D01*
X128462505Y-101763857D01*
X128514450Y-101730562D01*
X128573675Y-101708164D01*
X128632431Y-101697402D01*
X128680272Y-101694981D01*
X128747333Y-101700366D01*
X128809261Y-101716523D01*
X128866056Y-101743451D01*
X128917718Y-101781150D01*
X128944934Y-101807528D01*
X128985818Y-101859199D01*
X129016661Y-101916762D01*
X129037462Y-101980214D01*
X129047299Y-102039290D01*
X129049861Y-102091826D01*
X129046234Y-102161598D01*
X129035353Y-102226053D01*
X129017218Y-102285191D01*
X128991828Y-102339012D01*
X128953040Y-102395084D01*
X128946692Y-102402503D01*
X128898569Y-102448299D01*
X128844471Y-102482846D01*
X128784398Y-102506145D01*
X128718351Y-102518197D01*
X128677928Y-102520033D01*
X128617506Y-102515919D01*
X128551121Y-102500119D01*
X128491413Y-102472470D01*
X128438381Y-102432971D01*
X128392027Y-102381623D01*
X128371354Y-102351505D01*
X128341548Y-102296150D01*
X128316794Y-102233582D01*
X128297092Y-102163801D01*
X128286052Y-102108240D01*
X128395387Y-102108240D01*
X128398936Y-102171790D01*
X128411681Y-102236760D01*
X128433695Y-102293561D01*
X128469540Y-102347695D01*
X128515400Y-102389633D01*
X128569560Y-102417845D01*
X128632021Y-102432332D01*
X128670307Y-102434450D01*
X128730336Y-102429028D01*
X128790030Y-102409966D01*
X128841423Y-102377178D01*
X128871075Y-102347695D01*
X128907062Y-102293561D01*
X128929162Y-102236760D01*
X128941958Y-102171790D01*
X128945520Y-102108240D01*
X128941958Y-102044703D01*
X128929162Y-101979783D01*
X128907062Y-101923070D01*
X128871075Y-101869077D01*
X128825214Y-101826998D01*
X128771054Y-101798690D01*
X128708594Y-101784154D01*
X128670307Y-101782029D01*
X128610278Y-101787469D01*
X128550585Y-101806596D01*
X128499191Y-101839494D01*
X128469540Y-101869077D01*
X128433695Y-101923070D01*
X128411681Y-101979783D01*
X128398936Y-102044703D01*
X128395387Y-102108240D01*
X128286052Y-102108240D01*
X128284968Y-102102783D01*
X128276077Y-102037149D01*
X128270419Y-101966899D01*
X128267994Y-101892032D01*
X128267893Y-101872594D01*
X128269018Y-101811399D01*
X128274022Y-101734671D01*
X128283027Y-101663503D01*
X128296035Y-101597894D01*
X128313046Y-101537844D01*
X128339938Y-101470601D01*
X128373084Y-101412044D01*
X128395974Y-101381080D01*
X128438252Y-101335907D01*
X128484851Y-101298390D01*
X128535773Y-101268530D01*
X128591017Y-101246326D01*
X128650582Y-101231779D01*
X128714470Y-101224888D01*
X128741235Y-101224276D01*
X128803162Y-101227833D01*
G37*
G36*
X129386916Y-101246551D02*
G01*
X129990098Y-101246551D01*
X129990098Y-101332133D01*
X129488912Y-101332133D01*
X129488912Y-101722238D01*
X129545858Y-101706782D01*
X129550461Y-101705825D01*
X129609903Y-101700032D01*
X129658318Y-101699084D01*
X129727826Y-101702824D01*
X129791707Y-101714045D01*
X129849962Y-101732747D01*
X129902592Y-101758930D01*
X129956882Y-101798931D01*
X129964013Y-101805476D01*
X130007867Y-101855343D01*
X130040949Y-101912362D01*
X130063261Y-101976534D01*
X130073812Y-102037231D01*
X130076560Y-102091826D01*
X130073733Y-102152933D01*
X130062880Y-102220500D01*
X130043886Y-102281781D01*
X130016752Y-102336777D01*
X129981478Y-102385488D01*
X129960789Y-102407486D01*
X129914167Y-102445734D01*
X129860909Y-102476069D01*
X129801015Y-102498491D01*
X129734486Y-102512999D01*
X129673975Y-102519044D01*
X129635457Y-102520033D01*
X129574173Y-102517789D01*
X129511878Y-102511057D01*
X129493894Y-102508309D01*
X129433709Y-102496559D01*
X129374461Y-102481762D01*
X129338263Y-102471380D01*
X129338263Y-102365281D01*
X129394797Y-102389790D01*
X129453159Y-102409645D01*
X129483343Y-102417451D01*
X129543754Y-102427268D01*
X129602864Y-102431462D01*
X129626371Y-102431812D01*
X129693585Y-102427451D01*
X129754431Y-102414366D01*
X129808909Y-102392557D01*
X129863374Y-102356951D01*
X129881654Y-102340661D01*
X129923072Y-102290817D01*
X129952655Y-102232730D01*
X129968834Y-102175142D01*
X129975953Y-102111243D01*
X129976323Y-102091826D01*
X129971947Y-102032625D01*
X129956230Y-101971974D01*
X129929082Y-101918796D01*
X129890504Y-101873092D01*
X129884878Y-101867905D01*
X129834118Y-101831488D01*
X129775042Y-101805476D01*
X129716528Y-101791251D01*
X129651647Y-101784992D01*
X129631940Y-101784667D01*
X129571969Y-101793117D01*
X129534634Y-101802545D01*
X129478582Y-101820759D01*
X129422034Y-101845385D01*
X129386916Y-101863215D01*
X129386916Y-101246551D01*
G37*
G36*
X130846763Y-101229510D02*
G01*
X130907309Y-101245214D01*
X130962497Y-101271386D01*
X131012327Y-101308027D01*
X131056799Y-101355137D01*
X131070433Y-101373166D01*
X131100830Y-101424540D01*
X131126074Y-101485789D01*
X131146167Y-101556912D01*
X131158532Y-101620921D01*
X131167599Y-101691249D01*
X131173370Y-101767897D01*
X131175534Y-101829530D01*
X131175946Y-101872594D01*
X131175018Y-101936595D01*
X131172236Y-101997035D01*
X131165642Y-102072085D01*
X131155750Y-102140806D01*
X131142561Y-102203198D01*
X131121438Y-102272287D01*
X131095162Y-102331488D01*
X131070433Y-102371729D01*
X131027747Y-102422328D01*
X130979703Y-102462459D01*
X130926301Y-102492121D01*
X130867540Y-102511314D01*
X130803422Y-102520038D01*
X130780858Y-102520619D01*
X130716647Y-102515385D01*
X130657444Y-102499681D01*
X130603249Y-102473509D01*
X130554061Y-102436868D01*
X130509881Y-102389758D01*
X130496267Y-102371729D01*
X130465870Y-102320439D01*
X130440625Y-102259261D01*
X130420532Y-102188193D01*
X130408168Y-102124219D01*
X130399100Y-102053916D01*
X130393330Y-101977284D01*
X130391166Y-101915657D01*
X130390754Y-101872594D01*
X130492750Y-101872594D01*
X130493881Y-101939236D01*
X130497274Y-102001847D01*
X130502930Y-102060429D01*
X130513181Y-102127989D01*
X130526967Y-102189252D01*
X130548176Y-102254456D01*
X130565143Y-102292887D01*
X130599608Y-102348047D01*
X130641198Y-102389659D01*
X130697453Y-102420626D01*
X130763014Y-102433897D01*
X130780858Y-102434450D01*
X130842710Y-102427676D01*
X130904090Y-102403345D01*
X130955541Y-102361319D01*
X130992417Y-102310030D01*
X131001556Y-102292887D01*
X131026159Y-102233728D01*
X131042773Y-102177503D01*
X131055852Y-102114981D01*
X131065396Y-102046161D01*
X131070486Y-101986572D01*
X131073314Y-101922953D01*
X131073950Y-101872594D01*
X131072819Y-101805948D01*
X131069425Y-101743322D01*
X131063770Y-101684718D01*
X131053519Y-101617117D01*
X131039733Y-101555798D01*
X131018524Y-101490508D01*
X131001556Y-101452008D01*
X130966853Y-101396962D01*
X130924548Y-101355437D01*
X130866891Y-101324534D01*
X130808297Y-101311979D01*
X130780858Y-101310738D01*
X130720948Y-101317498D01*
X130661203Y-101341779D01*
X130610764Y-101383718D01*
X130574263Y-101434901D01*
X130565143Y-101452008D01*
X130540541Y-101511266D01*
X130523927Y-101567559D01*
X130510848Y-101630134D01*
X130501304Y-101698992D01*
X130496214Y-101758602D01*
X130493386Y-101822232D01*
X130492750Y-101872594D01*
X130390754Y-101872594D01*
X130391681Y-101808591D01*
X130394463Y-101748142D01*
X130401058Y-101673074D01*
X130410950Y-101604326D01*
X130424139Y-101541898D01*
X130445262Y-101472749D01*
X130471537Y-101413476D01*
X130496267Y-101373166D01*
X130538778Y-101322567D01*
X130586296Y-101282436D01*
X130638823Y-101252774D01*
X130696357Y-101233581D01*
X130758898Y-101224857D01*
X130780858Y-101224276D01*
X130846763Y-101229510D01*
G37*
G36*
X131390196Y-101981038D02*
G01*
X131853280Y-101981038D01*
X131853280Y-102067207D01*
X131390196Y-102067207D01*
X131390196Y-101981038D01*
G37*
G36*
X132644627Y-101822182D02*
G01*
X132698565Y-101846934D01*
X132745606Y-101890046D01*
X132771828Y-101924178D01*
X132802277Y-101979797D01*
X132820038Y-102036314D01*
X132828665Y-102098952D01*
X132829568Y-102128756D01*
X132825786Y-102195711D01*
X132814441Y-102256773D01*
X132791647Y-102320562D01*
X132758558Y-102376329D01*
X132722003Y-102417744D01*
X132669013Y-102457601D01*
X132613948Y-102483972D01*
X132549981Y-102503151D01*
X132489875Y-102513640D01*
X132423586Y-102519134D01*
X132380845Y-102520033D01*
X132321136Y-102516612D01*
X132260274Y-102506349D01*
X132219058Y-102495706D01*
X132160522Y-102475046D01*
X132105384Y-102450134D01*
X132048415Y-102419382D01*
X132042617Y-102415986D01*
X132042617Y-102300508D01*
X132089371Y-102337937D01*
X132140777Y-102371803D01*
X132196662Y-102399666D01*
X132206748Y-102403676D01*
X132262876Y-102420696D01*
X132324816Y-102431206D01*
X132371759Y-102433571D01*
X132434328Y-102430810D01*
X132499902Y-102420607D01*
X132557482Y-102402888D01*
X132613500Y-102373432D01*
X132637593Y-102355023D01*
X132681088Y-102305842D01*
X132707801Y-102252627D01*
X132723266Y-102190473D01*
X132727572Y-102128756D01*
X132721011Y-102065075D01*
X132698330Y-102004270D01*
X132659450Y-101953940D01*
X132644627Y-101940884D01*
X132591672Y-101907590D01*
X132535687Y-101887142D01*
X132471312Y-101875304D01*
X132408102Y-101872008D01*
X132255108Y-101872008D01*
X132255108Y-101784080D01*
X132414550Y-101784080D01*
X132480129Y-101780655D01*
X132543921Y-101768612D01*
X132602402Y-101745062D01*
X132626748Y-101729272D01*
X132667798Y-101685572D01*
X132691808Y-101630235D01*
X132698849Y-101569831D01*
X132694196Y-101511304D01*
X132677838Y-101454088D01*
X132645850Y-101401229D01*
X132624404Y-101379028D01*
X132570703Y-101343788D01*
X132511359Y-101323232D01*
X132449851Y-101313835D01*
X132407223Y-101312203D01*
X132347132Y-101316747D01*
X132287516Y-101329104D01*
X132263608Y-101335944D01*
X132207081Y-101356046D01*
X132149562Y-101381234D01*
X132092802Y-101409531D01*
X132079547Y-101416544D01*
X132079547Y-101308979D01*
X132135152Y-101286645D01*
X132193564Y-101266289D01*
X132253718Y-101249319D01*
X132264194Y-101246844D01*
X132325922Y-101233916D01*
X132384930Y-101226346D01*
X132422757Y-101224276D01*
X132491453Y-101227377D01*
X132553123Y-101236682D01*
X132616189Y-101255377D01*
X132669690Y-101282515D01*
X132707935Y-101312496D01*
X132748839Y-101361021D01*
X132778057Y-101417203D01*
X132795587Y-101481042D01*
X132801339Y-101543182D01*
X132801431Y-101552538D01*
X132796622Y-101613177D01*
X132780225Y-101674392D01*
X132752191Y-101729859D01*
X132714534Y-101777875D01*
X132666537Y-101813578D01*
X132644627Y-101822182D01*
G37*
G36*
X133588926Y-101229510D02*
G01*
X133649472Y-101245214D01*
X133704661Y-101271386D01*
X133754491Y-101308027D01*
X133798963Y-101355137D01*
X133812596Y-101373166D01*
X133842993Y-101424540D01*
X133868238Y-101485789D01*
X133888330Y-101556912D01*
X133900695Y-101620921D01*
X133909763Y-101691249D01*
X133915533Y-101767897D01*
X133917697Y-101829530D01*
X133918109Y-101872594D01*
X133917182Y-101936595D01*
X133914400Y-101997035D01*
X133907805Y-102072085D01*
X133897913Y-102140806D01*
X133884724Y-102203198D01*
X133863601Y-102272287D01*
X133837326Y-102331488D01*
X133812596Y-102371729D01*
X133769910Y-102422328D01*
X133721866Y-102462459D01*
X133668464Y-102492121D01*
X133609704Y-102511314D01*
X133545585Y-102520038D01*
X133523022Y-102520619D01*
X133458811Y-102515385D01*
X133399607Y-102499681D01*
X133345412Y-102473509D01*
X133296224Y-102436868D01*
X133252044Y-102389758D01*
X133238430Y-102371729D01*
X133208033Y-102320439D01*
X133182788Y-102259261D01*
X133162696Y-102188193D01*
X133150331Y-102124219D01*
X133141263Y-102053916D01*
X133135493Y-101977284D01*
X133133329Y-101915657D01*
X133132917Y-101872594D01*
X133234913Y-101872594D01*
X133236044Y-101939236D01*
X133239438Y-102001847D01*
X133245093Y-102060429D01*
X133255344Y-102127989D01*
X133269130Y-102189252D01*
X133290339Y-102254456D01*
X133307307Y-102292887D01*
X133341772Y-102348047D01*
X133383361Y-102389659D01*
X133439617Y-102420626D01*
X133505178Y-102433897D01*
X133523022Y-102434450D01*
X133584874Y-102427676D01*
X133646253Y-102403345D01*
X133697705Y-102361319D01*
X133734580Y-102310030D01*
X133743720Y-102292887D01*
X133768322Y-102233728D01*
X133784936Y-102177503D01*
X133798015Y-102114981D01*
X133807559Y-102046161D01*
X133812649Y-101986572D01*
X133815477Y-101922953D01*
X133816113Y-101872594D01*
X133814982Y-101805948D01*
X133811589Y-101743322D01*
X133805933Y-101684718D01*
X133795682Y-101617117D01*
X133781896Y-101555798D01*
X133760687Y-101490508D01*
X133743720Y-101452008D01*
X133709016Y-101396962D01*
X133666711Y-101355437D01*
X133609054Y-101324534D01*
X133550460Y-101311979D01*
X133523022Y-101310738D01*
X133463112Y-101317498D01*
X133403367Y-101341779D01*
X133352927Y-101383718D01*
X133316427Y-101434901D01*
X133307307Y-101452008D01*
X133282704Y-101511266D01*
X133266090Y-101567559D01*
X133253011Y-101630134D01*
X133243467Y-101698992D01*
X133238377Y-101758602D01*
X133235549Y-101822232D01*
X133234913Y-101872594D01*
X133132917Y-101872594D01*
X133133844Y-101808591D01*
X133136627Y-101748142D01*
X133143221Y-101673074D01*
X133153113Y-101604326D01*
X133166302Y-101541898D01*
X133187425Y-101472749D01*
X133213700Y-101413476D01*
X133238430Y-101373166D01*
X133280941Y-101322567D01*
X133328459Y-101282436D01*
X133380986Y-101252774D01*
X133438520Y-101233581D01*
X133501062Y-101224857D01*
X133523022Y-101224276D01*
X133588926Y-101229510D01*
G37*
G36*
X134188632Y-101246551D02*
G01*
X134955653Y-101246551D01*
X134955653Y-101328616D01*
X134506050Y-102496000D01*
X134398486Y-102496000D01*
X134846036Y-101333013D01*
X134188632Y-101333013D01*
X134188632Y-101246551D01*
G37*
G36*
X135200384Y-101981038D02*
G01*
X135663468Y-101981038D01*
X135663468Y-102067207D01*
X135200384Y-102067207D01*
X135200384Y-101981038D01*
G37*
G36*
X135974731Y-102409538D02*
G01*
X136246720Y-102409538D01*
X136246720Y-101345616D01*
X135909665Y-101480731D01*
X135909665Y-101384597D01*
X136252875Y-101246551D01*
X136347837Y-101246551D01*
X136347837Y-102409538D01*
X136620119Y-102409538D01*
X136620119Y-102496000D01*
X135974731Y-102496000D01*
X135974731Y-102409538D01*
G37*
G36*
X136930796Y-101246551D02*
G01*
X137697816Y-101246551D01*
X137697816Y-101328616D01*
X137248214Y-102496000D01*
X137140649Y-102496000D01*
X137588200Y-101333013D01*
X136930796Y-101333013D01*
X136930796Y-101246551D01*
G37*
G36*
X138466562Y-101227367D02*
G01*
X138530581Y-101238787D01*
X138587728Y-101258622D01*
X138644625Y-101291595D01*
X138669707Y-101312203D01*
X138712150Y-101360527D01*
X138742467Y-101416690D01*
X138760657Y-101480694D01*
X138766626Y-101543129D01*
X138766720Y-101552538D01*
X138762315Y-101612788D01*
X138747088Y-101672174D01*
X138717776Y-101728307D01*
X138711033Y-101737479D01*
X138669144Y-101785070D01*
X138621627Y-101821422D01*
X138601710Y-101830682D01*
X138656883Y-101859121D01*
X138700848Y-101898221D01*
X138731256Y-101935316D01*
X138763868Y-101991621D01*
X138782892Y-102048365D01*
X138792132Y-102110859D01*
X138793099Y-102140480D01*
X138789575Y-102205996D01*
X138779003Y-102265598D01*
X138757761Y-102327658D01*
X138726926Y-102381668D01*
X138692861Y-102421554D01*
X138644784Y-102459926D01*
X138588516Y-102488874D01*
X138524058Y-102508396D01*
X138462289Y-102517629D01*
X138406218Y-102520033D01*
X138339434Y-102516571D01*
X138278668Y-102506184D01*
X138215380Y-102485315D01*
X138160282Y-102455022D01*
X138119574Y-102421554D01*
X138080517Y-102374445D01*
X138051053Y-102319285D01*
X138031182Y-102256075D01*
X138021784Y-102195487D01*
X138020171Y-102159237D01*
X138120454Y-102159237D01*
X138125162Y-102220494D01*
X138141712Y-102280999D01*
X138170180Y-102332601D01*
X138195778Y-102362057D01*
X138243352Y-102397760D01*
X138300013Y-102421779D01*
X138358009Y-102433319D01*
X138406218Y-102435916D01*
X138469599Y-102431300D01*
X138532319Y-102415071D01*
X138585952Y-102387157D01*
X138616658Y-102362057D01*
X138653778Y-102316034D01*
X138678749Y-102261387D01*
X138691573Y-102198115D01*
X138693447Y-102159237D01*
X138688685Y-102098055D01*
X138671941Y-102037457D01*
X138643141Y-101985576D01*
X138617244Y-101955832D01*
X138569624Y-101920412D01*
X138512823Y-101896584D01*
X138454626Y-101885135D01*
X138406218Y-101882559D01*
X138342837Y-101887139D01*
X138280116Y-101903239D01*
X138226484Y-101930931D01*
X138195778Y-101955832D01*
X138159367Y-102001783D01*
X138134871Y-102056543D01*
X138122293Y-102120114D01*
X138120454Y-102159237D01*
X138020171Y-102159237D01*
X138019337Y-102140480D01*
X138024252Y-102075407D01*
X138038997Y-102016038D01*
X138063572Y-101962372D01*
X138081473Y-101935023D01*
X138123650Y-101888941D01*
X138172450Y-101849813D01*
X138211605Y-101830682D01*
X138158570Y-101799628D01*
X138114377Y-101754483D01*
X138101110Y-101737186D01*
X138069572Y-101680986D01*
X138052261Y-101623284D01*
X138045770Y-101559284D01*
X138045729Y-101554297D01*
X138148591Y-101554297D01*
X138153900Y-101615196D01*
X138172252Y-101673345D01*
X138207581Y-101725738D01*
X138215708Y-101733962D01*
X138268634Y-101770339D01*
X138328168Y-101790306D01*
X138391048Y-101797606D01*
X138406218Y-101797856D01*
X138470345Y-101792802D01*
X138531917Y-101775331D01*
X138583299Y-101745380D01*
X138596727Y-101733962D01*
X138635441Y-101683772D01*
X138656690Y-101627627D01*
X138664459Y-101568531D01*
X138664725Y-101554297D01*
X138659346Y-101493398D01*
X138640753Y-101435249D01*
X138604961Y-101382855D01*
X138596727Y-101374632D01*
X138548402Y-101340938D01*
X138489886Y-101319723D01*
X138428511Y-101311299D01*
X138406218Y-101310738D01*
X138341380Y-101315815D01*
X138279671Y-101333366D01*
X138228837Y-101363454D01*
X138215708Y-101374925D01*
X138177496Y-101424947D01*
X138156521Y-101481001D01*
X138148853Y-101540064D01*
X138148591Y-101554297D01*
X138045729Y-101554297D01*
X138045715Y-101552538D01*
X138050344Y-101489274D01*
X138064228Y-101432068D01*
X138091431Y-101374110D01*
X138130723Y-101324064D01*
X138142436Y-101312789D01*
X138195302Y-101274065D01*
X138248713Y-101249257D01*
X138308799Y-101232920D01*
X138375562Y-101225054D01*
X138406218Y-101224276D01*
X138466562Y-101227367D01*
G37*
G36*
X139162687Y-102410417D02*
G01*
X139852038Y-102410417D01*
X139852038Y-102496000D01*
X139045157Y-102496000D01*
X139045157Y-102396348D01*
X139354662Y-102074534D01*
X139396554Y-102031848D01*
X139443528Y-101983610D01*
X139488453Y-101937056D01*
X139531331Y-101892184D01*
X139560705Y-101861163D01*
X139603853Y-101813513D01*
X139641245Y-101768290D01*
X139673252Y-101721652D01*
X139694355Y-101665012D01*
X139701279Y-101602830D01*
X139701389Y-101592985D01*
X139696113Y-101527094D01*
X139680286Y-101468055D01*
X139649869Y-101409824D01*
X139616979Y-101370528D01*
X139566097Y-101336487D01*
X139504273Y-101317803D01*
X139444138Y-101311263D01*
X139419142Y-101310738D01*
X139355230Y-101317332D01*
X139296680Y-101332903D01*
X139239874Y-101354747D01*
X139233322Y-101357632D01*
X139177230Y-101387822D01*
X139124997Y-101419612D01*
X139067940Y-101456006D01*
X139060105Y-101461094D01*
X139060105Y-101351478D01*
X139113808Y-101318267D01*
X139166944Y-101290913D01*
X139205771Y-101272929D01*
X139265524Y-101249766D01*
X139325092Y-101234021D01*
X139384473Y-101225696D01*
X139417383Y-101224276D01*
X139476418Y-101227212D01*
X139540604Y-101238062D01*
X139599741Y-101256905D01*
X139653829Y-101283743D01*
X139689372Y-101307807D01*
X139731627Y-101349912D01*
X139763504Y-101402367D01*
X139785002Y-101465172D01*
X139795168Y-101527243D01*
X139797816Y-101584778D01*
X139793076Y-101646482D01*
X139778854Y-101705380D01*
X139769093Y-101731617D01*
X139741418Y-101787307D01*
X139708445Y-101838415D01*
X139672407Y-101884803D01*
X139663580Y-101895162D01*
X139620276Y-101941690D01*
X139576146Y-101987633D01*
X139531982Y-102033208D01*
X139162687Y-102410417D01*
G37*
G36*
X75895006Y-101277037D02*
G01*
X75964887Y-101288256D01*
X76030046Y-101308104D01*
X76090482Y-101336582D01*
X76146195Y-101373689D01*
X76197185Y-101419426D01*
X76225513Y-101451010D01*
X76267393Y-101509046D01*
X76302174Y-101572878D01*
X76324889Y-101628116D01*
X76343061Y-101687064D01*
X76356689Y-101749722D01*
X76365775Y-101816089D01*
X76370318Y-101886165D01*
X76370886Y-101922594D01*
X76368614Y-101994305D01*
X76361800Y-102062307D01*
X76350443Y-102126599D01*
X76334543Y-102187182D01*
X76314099Y-102244056D01*
X76289113Y-102297220D01*
X76251492Y-102358458D01*
X76225513Y-102392420D01*
X76177356Y-102443588D01*
X76124476Y-102486083D01*
X76066874Y-102519906D01*
X76004549Y-102545056D01*
X75937502Y-102561534D01*
X75865731Y-102569339D01*
X75835701Y-102570033D01*
X75776112Y-102567272D01*
X75705902Y-102556053D01*
X75640443Y-102536205D01*
X75579735Y-102507727D01*
X75523778Y-102470620D01*
X75472573Y-102424883D01*
X75444131Y-102393299D01*
X75402251Y-102335516D01*
X75367469Y-102271895D01*
X75344755Y-102216794D01*
X75326583Y-102157956D01*
X75312954Y-102095381D01*
X75303868Y-102029069D01*
X75299325Y-101959020D01*
X75298757Y-101922594D01*
X75404857Y-101922594D01*
X75406679Y-101986167D01*
X75412147Y-102046315D01*
X75424108Y-102116683D01*
X75441765Y-102181698D01*
X75465118Y-102241361D01*
X75494167Y-102295672D01*
X75521507Y-102335267D01*
X75568184Y-102386464D01*
X75620508Y-102427068D01*
X75678478Y-102457081D01*
X75742095Y-102476500D01*
X75811358Y-102485327D01*
X75835701Y-102485916D01*
X75895360Y-102482245D01*
X75961717Y-102468149D01*
X76022367Y-102443481D01*
X76077308Y-102408242D01*
X76126540Y-102362430D01*
X76149016Y-102335560D01*
X76182368Y-102285447D01*
X76210067Y-102229995D01*
X76232113Y-102169206D01*
X76248506Y-102103079D01*
X76259247Y-102031613D01*
X76263769Y-101970598D01*
X76264787Y-101922594D01*
X76262978Y-101858535D01*
X76257551Y-101797957D01*
X76245680Y-101727128D01*
X76228156Y-101661738D01*
X76204979Y-101601786D01*
X76176150Y-101547272D01*
X76149016Y-101507577D01*
X76102637Y-101456479D01*
X76050551Y-101415953D01*
X75992756Y-101386000D01*
X75929252Y-101366618D01*
X75860040Y-101357808D01*
X75835701Y-101357221D01*
X75776021Y-101360899D01*
X75709581Y-101375022D01*
X75648787Y-101399738D01*
X75593640Y-101435046D01*
X75544140Y-101480947D01*
X75521507Y-101507870D01*
X75487902Y-101557949D01*
X75459992Y-101613480D01*
X75437778Y-101674464D01*
X75421261Y-101740900D01*
X75410438Y-101812789D01*
X75405882Y-101874226D01*
X75404857Y-101922594D01*
X75298757Y-101922594D01*
X75301029Y-101850663D01*
X75307843Y-101782441D01*
X75319201Y-101717929D01*
X75335101Y-101657127D01*
X75355544Y-101600033D01*
X75380530Y-101546649D01*
X75418151Y-101485136D01*
X75444131Y-101451010D01*
X75492485Y-101400095D01*
X75545591Y-101357810D01*
X75603448Y-101324155D01*
X75666056Y-101299129D01*
X75733415Y-101282733D01*
X75805526Y-101274966D01*
X75835701Y-101274276D01*
X75895006Y-101277037D01*
G37*
G36*
X76588067Y-101604004D02*
G01*
X76685666Y-101604004D01*
X76895226Y-102399161D01*
X77103028Y-101604004D01*
X77214110Y-101604004D01*
X77423377Y-102403264D01*
X77632058Y-101604004D01*
X77729658Y-101604004D01*
X77483461Y-102546000D01*
X77363293Y-102546000D01*
X77158129Y-101764032D01*
X76953552Y-102546000D01*
X76835143Y-102546000D01*
X76588067Y-101604004D01*
G37*
G36*
X78479159Y-101586067D02*
G01*
X78539369Y-101599081D01*
X78601539Y-101625229D01*
X78655014Y-101663186D01*
X78693928Y-101705120D01*
X78725603Y-101755730D01*
X78750724Y-101811718D01*
X78769292Y-101873086D01*
X78781306Y-101939831D01*
X78786312Y-101999562D01*
X78787132Y-102037193D01*
X78787132Y-102094346D01*
X78086350Y-102094346D01*
X78088404Y-102156743D01*
X78096290Y-102223706D01*
X78110090Y-102282033D01*
X78133666Y-102339169D01*
X78170467Y-102390075D01*
X78222656Y-102432005D01*
X78277727Y-102458867D01*
X78341579Y-102476556D01*
X78403296Y-102484418D01*
X78448025Y-102485916D01*
X78508424Y-102479960D01*
X78566778Y-102467369D01*
X78576692Y-102464813D01*
X78633997Y-102446946D01*
X78688677Y-102424872D01*
X78745818Y-102397246D01*
X78751667Y-102394178D01*
X78751667Y-102495881D01*
X78696673Y-102517439D01*
X78636509Y-102536789D01*
X78576692Y-102551568D01*
X78516654Y-102562820D01*
X78455749Y-102569582D01*
X78438939Y-102570033D01*
X78373506Y-102567142D01*
X78313310Y-102558470D01*
X78247990Y-102540431D01*
X78190212Y-102514066D01*
X78139976Y-102479376D01*
X78110677Y-102451624D01*
X78070038Y-102400513D01*
X78037807Y-102341261D01*
X78017370Y-102285667D01*
X78002773Y-102224420D01*
X77994015Y-102157520D01*
X77991095Y-102084967D01*
X77992803Y-102024434D01*
X77994122Y-102011108D01*
X78090453Y-102011108D01*
X78691584Y-102011108D01*
X78688606Y-101946512D01*
X78679672Y-101888573D01*
X78661722Y-101829390D01*
X78631282Y-101772846D01*
X78606880Y-101743515D01*
X78557725Y-101703330D01*
X78498551Y-101678028D01*
X78436730Y-101667981D01*
X78414319Y-101667311D01*
X78349931Y-101672312D01*
X78291001Y-101687315D01*
X78237530Y-101712319D01*
X78189518Y-101747325D01*
X78148266Y-101798170D01*
X78120395Y-101858703D01*
X78102800Y-101923510D01*
X78092764Y-101987855D01*
X78090453Y-102011108D01*
X77994122Y-102011108D01*
X77999743Y-101954307D01*
X78012020Y-101890333D01*
X78029636Y-101832514D01*
X78057821Y-101771253D01*
X78093692Y-101718854D01*
X78100418Y-101710982D01*
X78145594Y-101667056D01*
X78196932Y-101632218D01*
X78254432Y-101606469D01*
X78318094Y-101589807D01*
X78387917Y-101582234D01*
X78412561Y-101581729D01*
X78479159Y-101586067D01*
G37*
G36*
X79797711Y-101979454D02*
G01*
X79797711Y-102546000D01*
X79703042Y-102546000D01*
X79703042Y-101984436D01*
X79701095Y-101921912D01*
X79693900Y-101858447D01*
X79679186Y-101798418D01*
X79651056Y-101742136D01*
X79647648Y-101737653D01*
X79603434Y-101697605D01*
X79546961Y-101674181D01*
X79484982Y-101667311D01*
X79423543Y-101672111D01*
X79366720Y-101686509D01*
X79308312Y-101714180D01*
X79266922Y-101744101D01*
X79227172Y-101790043D01*
X79198778Y-101850494D01*
X79183251Y-101915289D01*
X79176862Y-101979668D01*
X79176064Y-102014918D01*
X79176064Y-102546000D01*
X79081688Y-102546000D01*
X79081688Y-101604004D01*
X79176064Y-101604004D01*
X79176064Y-101745567D01*
X79210868Y-101696987D01*
X79259475Y-101656042D01*
X79267801Y-101650312D01*
X79318946Y-101620307D01*
X79379636Y-101596798D01*
X79443665Y-101584140D01*
X79488206Y-101581729D01*
X79547277Y-101586343D01*
X79608089Y-101602916D01*
X79661757Y-101631543D01*
X79708280Y-101672223D01*
X79713593Y-101678156D01*
X79750395Y-101732598D01*
X79773971Y-101791654D01*
X79787771Y-101850758D01*
X79795657Y-101917693D01*
X79797711Y-101979454D01*
G37*
G36*
X80617238Y-101299426D02*
G01*
X80682510Y-101310046D01*
X80740320Y-101328493D01*
X80797253Y-101359158D01*
X80822065Y-101378323D01*
X80863483Y-101423368D01*
X80893067Y-101477022D01*
X80910817Y-101539285D01*
X80916641Y-101600829D01*
X80916734Y-101610159D01*
X80912839Y-101674721D01*
X80899375Y-101735091D01*
X80873457Y-101787679D01*
X80867494Y-101795685D01*
X80825221Y-101842178D01*
X80776779Y-101875361D01*
X80768136Y-101878630D01*
X80823970Y-101902233D01*
X80873210Y-101941828D01*
X80902372Y-101977109D01*
X80932408Y-102029178D01*
X80952615Y-102087784D01*
X80962991Y-102152929D01*
X80964508Y-102191945D01*
X80960891Y-102252673D01*
X80947529Y-102316725D01*
X80924322Y-102373456D01*
X80891269Y-102422865D01*
X80861633Y-102453676D01*
X80812700Y-102489650D01*
X80755661Y-102516788D01*
X80690515Y-102535090D01*
X80628224Y-102543746D01*
X80571765Y-102546000D01*
X80162610Y-102546000D01*
X80162610Y-102460417D01*
X80263726Y-102460417D01*
X80563559Y-102460417D01*
X80626679Y-102457303D01*
X80689473Y-102446120D01*
X80748206Y-102423817D01*
X80789825Y-102395351D01*
X80828156Y-102348433D01*
X80852290Y-102287548D01*
X80861376Y-102228783D01*
X80862512Y-102196048D01*
X80857969Y-102132722D01*
X80841998Y-102072297D01*
X80810765Y-102018590D01*
X80789825Y-101997039D01*
X80736244Y-101963036D01*
X80674709Y-101943201D01*
X80609423Y-101934133D01*
X80563559Y-101932559D01*
X80263726Y-101932559D01*
X80263726Y-102460417D01*
X80162610Y-102460417D01*
X80162610Y-101846390D01*
X80263726Y-101846390D01*
X80542749Y-101846390D01*
X80607412Y-101842837D01*
X80669386Y-101830343D01*
X80724867Y-101805911D01*
X80747327Y-101789531D01*
X80785206Y-101743063D01*
X80805997Y-101688016D01*
X80813599Y-101628050D01*
X80813859Y-101613383D01*
X80808619Y-101552566D01*
X80790507Y-101496249D01*
X80755641Y-101447986D01*
X80747620Y-101440752D01*
X80693394Y-101407879D01*
X80636406Y-101391132D01*
X80576212Y-101383915D01*
X80542749Y-101383013D01*
X80263726Y-101383013D01*
X80263726Y-101846390D01*
X80162610Y-101846390D01*
X80162610Y-101296551D01*
X80555352Y-101296551D01*
X80617238Y-101299426D01*
G37*
G36*
X81765820Y-101693690D02*
G01*
X81710763Y-101673237D01*
X81705150Y-101672001D01*
X81646229Y-101667385D01*
X81635980Y-101667311D01*
X81570895Y-101673595D01*
X81511636Y-101692444D01*
X81458202Y-101723860D01*
X81410593Y-101767842D01*
X81376590Y-101823133D01*
X81357836Y-101879217D01*
X81345815Y-101946744D01*
X81340869Y-102013734D01*
X81340251Y-102050382D01*
X81340251Y-102546000D01*
X81247341Y-102546000D01*
X81247341Y-101604004D01*
X81340251Y-101604004D01*
X81340251Y-101746739D01*
X81378540Y-101697290D01*
X81425111Y-101657079D01*
X81429351Y-101653829D01*
X81478791Y-101622285D01*
X81539449Y-101597571D01*
X81597842Y-101585179D01*
X81652393Y-101581729D01*
X81708960Y-101584073D01*
X81765820Y-101591987D01*
X81765820Y-101693690D01*
G37*
G36*
X82297981Y-101585304D02*
G01*
X82363419Y-101598514D01*
X82423219Y-101621456D01*
X82477381Y-101654132D01*
X82512617Y-101683431D01*
X82553906Y-101736591D01*
X82580357Y-101798673D01*
X82595840Y-101863451D01*
X82603674Y-101925587D01*
X82606900Y-101995136D01*
X82606992Y-102009935D01*
X82606992Y-102546000D01*
X82513203Y-102546000D01*
X82522582Y-102286027D01*
X82503898Y-102342184D01*
X82478097Y-102400656D01*
X82443334Y-102456579D01*
X82397456Y-102504280D01*
X82358744Y-102528707D01*
X82300044Y-102552235D01*
X82241621Y-102565997D01*
X82188750Y-102570033D01*
X82129792Y-102566387D01*
X82069383Y-102553289D01*
X82010313Y-102527168D01*
X81965708Y-102493829D01*
X81926038Y-102445024D01*
X81899350Y-102384998D01*
X81886527Y-102322222D01*
X81883738Y-102271080D01*
X81979776Y-102271080D01*
X81984807Y-102331742D01*
X82004620Y-102391087D01*
X82043377Y-102437263D01*
X82094719Y-102466911D01*
X82152902Y-102482875D01*
X82195492Y-102485916D01*
X82254942Y-102480939D01*
X82315940Y-102462552D01*
X82367935Y-102430618D01*
X82410925Y-102385135D01*
X82436120Y-102344353D01*
X82461818Y-102290686D01*
X82485079Y-102229664D01*
X82501104Y-102170352D01*
X82510556Y-102104663D01*
X82511737Y-102072657D01*
X82511737Y-102024883D01*
X82315073Y-102024883D01*
X82251185Y-102027088D01*
X82185739Y-102035234D01*
X82122930Y-102051895D01*
X82067554Y-102080009D01*
X82057446Y-102087605D01*
X82016487Y-102132473D01*
X81990699Y-102188675D01*
X81980459Y-102248948D01*
X81979776Y-102271080D01*
X81883738Y-102271080D01*
X81883642Y-102269321D01*
X81888719Y-102207528D01*
X81906955Y-102143844D01*
X81938453Y-102087562D01*
X81983214Y-102038679D01*
X81989741Y-102033090D01*
X82042329Y-101998600D01*
X82097428Y-101975780D01*
X82161779Y-101959184D01*
X82222474Y-101950108D01*
X82289595Y-101945354D01*
X82332951Y-101944576D01*
X82511737Y-101944576D01*
X82511737Y-101939007D01*
X82506382Y-101875292D01*
X82490315Y-101818347D01*
X82459901Y-101763015D01*
X82444033Y-101743222D01*
X82393750Y-101703191D01*
X82333615Y-101679840D01*
X82268329Y-101669165D01*
X82221870Y-101667311D01*
X82163302Y-101671392D01*
X82103662Y-101683633D01*
X82063307Y-101696327D01*
X82009364Y-101721997D01*
X81954622Y-101755153D01*
X81914124Y-101782203D01*
X81914124Y-101677277D01*
X81966630Y-101647423D01*
X82020039Y-101622597D01*
X82057446Y-101609279D01*
X82115194Y-101594751D01*
X82177130Y-101584984D01*
X82237404Y-101581729D01*
X82297981Y-101585304D01*
G37*
G36*
X83042233Y-101244674D02*
G01*
X83137780Y-101244674D01*
X83137780Y-102011694D01*
X83583866Y-101604004D01*
X83715464Y-101604004D01*
X83227466Y-102049796D01*
X83729825Y-102546000D01*
X83604968Y-102546000D01*
X83137780Y-102085846D01*
X83137780Y-102546000D01*
X83042233Y-102546000D01*
X83042233Y-101244674D01*
G37*
G36*
X84308161Y-101586067D02*
G01*
X84368371Y-101599081D01*
X84430541Y-101625229D01*
X84484016Y-101663186D01*
X84522931Y-101705120D01*
X84554605Y-101755730D01*
X84579726Y-101811718D01*
X84598294Y-101873086D01*
X84610308Y-101939831D01*
X84615314Y-101999562D01*
X84616134Y-102037193D01*
X84616134Y-102094346D01*
X83915352Y-102094346D01*
X83917406Y-102156743D01*
X83925292Y-102223706D01*
X83939092Y-102282033D01*
X83962668Y-102339169D01*
X83999469Y-102390075D01*
X84051658Y-102432005D01*
X84106730Y-102458867D01*
X84170581Y-102476556D01*
X84232298Y-102484418D01*
X84277027Y-102485916D01*
X84337426Y-102479960D01*
X84395780Y-102467369D01*
X84405694Y-102464813D01*
X84462999Y-102446946D01*
X84517679Y-102424872D01*
X84574820Y-102397246D01*
X84580670Y-102394178D01*
X84580670Y-102495881D01*
X84525675Y-102517439D01*
X84465511Y-102536789D01*
X84405694Y-102551568D01*
X84345656Y-102562820D01*
X84284751Y-102569582D01*
X84267941Y-102570033D01*
X84202508Y-102567142D01*
X84142312Y-102558470D01*
X84076992Y-102540431D01*
X84019214Y-102514066D01*
X83968979Y-102479376D01*
X83939679Y-102451624D01*
X83899040Y-102400513D01*
X83866809Y-102341261D01*
X83846372Y-102285667D01*
X83831775Y-102224420D01*
X83823017Y-102157520D01*
X83820097Y-102084967D01*
X83821805Y-102024434D01*
X83823124Y-102011108D01*
X83919455Y-102011108D01*
X84520586Y-102011108D01*
X84517608Y-101946512D01*
X84508674Y-101888573D01*
X84490725Y-101829390D01*
X84460284Y-101772846D01*
X84435882Y-101743515D01*
X84386727Y-101703330D01*
X84327553Y-101678028D01*
X84265732Y-101667981D01*
X84243321Y-101667311D01*
X84178933Y-101672312D01*
X84120003Y-101687315D01*
X84066532Y-101712319D01*
X84018520Y-101747325D01*
X83977268Y-101798170D01*
X83949397Y-101858703D01*
X83931802Y-101923510D01*
X83921766Y-101987855D01*
X83919455Y-102011108D01*
X83823124Y-102011108D01*
X83828745Y-101954307D01*
X83841022Y-101890333D01*
X83858638Y-101832514D01*
X83886823Y-101771253D01*
X83922694Y-101718854D01*
X83929420Y-101710982D01*
X83974597Y-101667056D01*
X84025934Y-101632218D01*
X84083434Y-101606469D01*
X84147096Y-101589807D01*
X84216919Y-101582234D01*
X84241563Y-101581729D01*
X84308161Y-101586067D01*
G37*
G36*
X84945275Y-102423487D02*
G01*
X85048150Y-102423487D01*
X85048150Y-102546000D01*
X84945275Y-102546000D01*
X84945275Y-102423487D01*
G37*
G36*
X86095073Y-101652364D02*
G01*
X86095073Y-101755239D01*
X86043224Y-101724973D01*
X85990459Y-101698574D01*
X85969630Y-101690466D01*
X85909731Y-101675474D01*
X85847605Y-101667877D01*
X85826015Y-101667311D01*
X85756721Y-101670804D01*
X85695237Y-101681284D01*
X85633377Y-101702339D01*
X85582148Y-101732903D01*
X85546699Y-101766669D01*
X85510026Y-101823144D01*
X85486532Y-101883950D01*
X85472780Y-101944531D01*
X85464921Y-102012922D01*
X85462875Y-102075881D01*
X85464921Y-102139269D01*
X85472780Y-102208100D01*
X85486532Y-102269038D01*
X85510026Y-102330156D01*
X85541542Y-102380531D01*
X85546699Y-102386851D01*
X85595700Y-102430192D01*
X85649966Y-102457957D01*
X85714863Y-102476241D01*
X85778951Y-102484368D01*
X85826015Y-102485916D01*
X85886353Y-102481987D01*
X85945919Y-102470202D01*
X85953803Y-102468037D01*
X86012291Y-102448282D01*
X86066531Y-102423580D01*
X86095073Y-102408540D01*
X86095073Y-102507018D01*
X86038448Y-102530598D01*
X85982404Y-102548469D01*
X85956734Y-102554792D01*
X85896090Y-102565211D01*
X85836232Y-102569795D01*
X85819274Y-102570033D01*
X85756847Y-102567292D01*
X85698528Y-102559071D01*
X85633967Y-102541969D01*
X85575320Y-102516975D01*
X85522587Y-102484089D01*
X85490718Y-102457779D01*
X85449083Y-102409883D01*
X85416063Y-102351043D01*
X85395125Y-102293652D01*
X85380170Y-102228660D01*
X85371197Y-102156070D01*
X85368326Y-102092527D01*
X85368206Y-102075881D01*
X85370120Y-102011117D01*
X85375863Y-101951207D01*
X85388425Y-101883146D01*
X85406970Y-101822670D01*
X85437119Y-101760112D01*
X85475883Y-101708475D01*
X85490718Y-101693690D01*
X85539508Y-101655640D01*
X85594212Y-101625463D01*
X85654830Y-101603159D01*
X85721363Y-101588726D01*
X85781325Y-101582713D01*
X85819274Y-101581729D01*
X85879573Y-101585431D01*
X85938378Y-101595500D01*
X85961716Y-101601073D01*
X86020205Y-101618446D01*
X86076593Y-101642456D01*
X86095073Y-101652364D01*
G37*
G36*
X86766724Y-101586489D02*
G01*
X86826611Y-101600771D01*
X86881139Y-101624573D01*
X86930310Y-101657896D01*
X86974123Y-101700740D01*
X86987536Y-101717137D01*
X87023295Y-101770975D01*
X87051655Y-101830934D01*
X87072616Y-101897014D01*
X87084433Y-101956756D01*
X87091112Y-102020748D01*
X87092756Y-102075002D01*
X87090187Y-102144469D01*
X87082481Y-102209257D01*
X87069636Y-102269365D01*
X87047442Y-102335317D01*
X87017849Y-102394531D01*
X86987536Y-102438728D01*
X86945510Y-102484746D01*
X86898125Y-102521242D01*
X86845382Y-102548218D01*
X86787282Y-102565673D01*
X86723823Y-102573607D01*
X86701479Y-102574136D01*
X86635705Y-102569396D01*
X86575331Y-102555177D01*
X86520355Y-102531478D01*
X86470779Y-102498299D01*
X86426603Y-102455640D01*
X86413077Y-102439314D01*
X86377717Y-102385785D01*
X86349673Y-102325434D01*
X86328945Y-102258263D01*
X86317260Y-102197076D01*
X86310655Y-102131151D01*
X86309030Y-102075002D01*
X86309063Y-102074122D01*
X86406922Y-102074122D01*
X86409725Y-102143705D01*
X86418133Y-102207374D01*
X86432146Y-102265127D01*
X86455580Y-102325032D01*
X86486643Y-102376886D01*
X86529691Y-102424586D01*
X86579993Y-102458658D01*
X86637548Y-102479101D01*
X86702358Y-102485916D01*
X86766912Y-102479101D01*
X86824284Y-102458658D01*
X86874476Y-102424586D01*
X86917487Y-102376886D01*
X86948893Y-102324431D01*
X86972585Y-102264262D01*
X86986753Y-102206549D01*
X86995254Y-102143169D01*
X86998088Y-102074122D01*
X86995254Y-102007067D01*
X86986753Y-101945267D01*
X86969673Y-101879809D01*
X86944879Y-101821504D01*
X86917487Y-101777221D01*
X86874476Y-101729135D01*
X86824284Y-101694789D01*
X86766912Y-101674181D01*
X86702358Y-101667311D01*
X86637823Y-101674126D01*
X86580506Y-101694569D01*
X86530405Y-101728641D01*
X86487522Y-101776341D01*
X86456117Y-101828057D01*
X86432425Y-101887290D01*
X86416446Y-101954041D01*
X86408890Y-102017239D01*
X86406922Y-102074122D01*
X86309063Y-102074122D01*
X86311598Y-102006885D01*
X86319305Y-101943219D01*
X86332149Y-101884004D01*
X86354344Y-101818821D01*
X86383937Y-101760047D01*
X86414249Y-101715965D01*
X86456496Y-101670345D01*
X86504100Y-101634165D01*
X86557063Y-101607422D01*
X86615383Y-101590118D01*
X86679062Y-101582253D01*
X86701479Y-101581729D01*
X86766724Y-101586489D01*
G37*
G36*
X88068164Y-101786013D02*
G01*
X88095676Y-101733303D01*
X88134980Y-101686546D01*
X88186076Y-101645742D01*
X88197711Y-101638295D01*
X88250848Y-101610951D01*
X88309365Y-101592556D01*
X88373260Y-101583110D01*
X88411081Y-101581729D01*
X88470029Y-101587243D01*
X88529076Y-101606627D01*
X88580426Y-101639968D01*
X88610383Y-101669949D01*
X88643466Y-101721826D01*
X88664660Y-101781164D01*
X88677066Y-101842383D01*
X88683343Y-101900704D01*
X88685927Y-101965665D01*
X88686001Y-101979454D01*
X88686001Y-102546000D01*
X88592212Y-102546000D01*
X88592212Y-101984436D01*
X88590439Y-101918223D01*
X88583892Y-101851965D01*
X88570501Y-101790737D01*
X88544902Y-101735942D01*
X88541800Y-101731792D01*
X88495520Y-101690043D01*
X88438598Y-101669578D01*
X88408737Y-101667311D01*
X88348708Y-101672074D01*
X88285511Y-101688818D01*
X88226904Y-101717618D01*
X88190383Y-101743515D01*
X88145376Y-101791252D01*
X88116542Y-101844022D01*
X88097555Y-101907058D01*
X88089116Y-101969260D01*
X88087508Y-102014918D01*
X88087508Y-102546000D01*
X87992840Y-102546000D01*
X87992840Y-101984436D01*
X87991119Y-101920301D01*
X87984762Y-101855608D01*
X87971760Y-101795034D01*
X87946905Y-101739358D01*
X87943894Y-101735016D01*
X87902169Y-101693758D01*
X87845154Y-101670551D01*
X87809365Y-101667311D01*
X87749336Y-101672129D01*
X87686139Y-101689066D01*
X87627532Y-101718198D01*
X87591011Y-101744394D01*
X87546004Y-101792077D01*
X87517170Y-101844708D01*
X87498183Y-101907522D01*
X87489744Y-101969466D01*
X87488136Y-102014918D01*
X87488136Y-102546000D01*
X87393761Y-102546000D01*
X87393761Y-101604004D01*
X87488136Y-101604004D01*
X87488136Y-101742343D01*
X87524368Y-101692351D01*
X87573477Y-101651987D01*
X87599218Y-101635071D01*
X87658008Y-101606941D01*
X87717478Y-101590532D01*
X87783160Y-101582562D01*
X87814347Y-101581729D01*
X87876350Y-101589642D01*
X87931665Y-101610800D01*
X87975841Y-101638002D01*
X88019922Y-101683498D01*
X88050194Y-101737635D01*
X88068164Y-101786013D01*
G37*
D11*
G36*
X80666250Y-76554688D02*
G01*
X80844692Y-76574575D01*
X81012647Y-76607720D01*
X81170115Y-76654122D01*
X81317096Y-76713782D01*
X81453589Y-76786700D01*
X81579596Y-76872876D01*
X81695115Y-76972309D01*
X81798498Y-77083409D01*
X81888097Y-77204584D01*
X81963912Y-77335834D01*
X82025942Y-77477159D01*
X82074188Y-77628559D01*
X82108649Y-77790034D01*
X82129325Y-77961584D01*
X82136218Y-78143210D01*
X82129303Y-78324491D01*
X82108557Y-78495744D01*
X82073982Y-78656967D01*
X82025576Y-78808161D01*
X81963340Y-78949325D01*
X81887273Y-79080461D01*
X81797376Y-79201567D01*
X81693650Y-79312644D01*
X81577993Y-79412078D01*
X81451941Y-79498254D01*
X81315493Y-79571172D01*
X81168650Y-79630832D01*
X81011411Y-79677234D01*
X80843776Y-79710379D01*
X80665746Y-79730265D01*
X80477320Y-79736894D01*
X80288391Y-79730265D01*
X80109948Y-79710379D01*
X79941993Y-79677234D01*
X79784525Y-79630832D01*
X79637545Y-79571172D01*
X79501051Y-79498254D01*
X79375045Y-79412078D01*
X79259525Y-79312644D01*
X79156142Y-79201567D01*
X79066543Y-79080461D01*
X78990729Y-78949325D01*
X78928698Y-78808161D01*
X78880453Y-78656967D01*
X78845992Y-78495744D01*
X78825315Y-78324491D01*
X78818423Y-78143210D01*
X79700628Y-78143210D01*
X79703639Y-78308554D01*
X79712672Y-78463137D01*
X79732432Y-78641232D01*
X79761602Y-78802511D01*
X79800181Y-78946974D01*
X79858897Y-79098134D01*
X79893336Y-79164633D01*
X79987147Y-79296252D01*
X80099962Y-79395543D01*
X80231781Y-79462507D01*
X80382604Y-79497143D01*
X80477320Y-79502421D01*
X80639788Y-79486398D01*
X80782902Y-79438327D01*
X80906662Y-79358210D01*
X81011067Y-79246046D01*
X81062038Y-79167564D01*
X81127279Y-79029302D01*
X81179022Y-78866207D01*
X81211830Y-78711325D01*
X81235265Y-78539198D01*
X81247263Y-78389080D01*
X81253263Y-78227926D01*
X81254012Y-78143210D01*
X81251013Y-77976205D01*
X81242014Y-77820305D01*
X81222329Y-77641048D01*
X81193270Y-77479143D01*
X81154838Y-77334590D01*
X81096346Y-77184031D01*
X81062038Y-77118122D01*
X80968692Y-76987360D01*
X80855992Y-76888715D01*
X80723938Y-76822187D01*
X80572529Y-76787776D01*
X80477320Y-76782533D01*
X80315638Y-76798731D01*
X80172960Y-76847328D01*
X80049286Y-76928321D01*
X79944615Y-77041712D01*
X79893336Y-77121053D01*
X79827845Y-77259908D01*
X79775904Y-77423132D01*
X79742971Y-77577767D01*
X79719447Y-77749325D01*
X79707403Y-77898756D01*
X79701381Y-78059017D01*
X79700628Y-78143210D01*
X78818423Y-78143210D01*
X78825326Y-77961916D01*
X78846038Y-77790630D01*
X78880556Y-77629349D01*
X78928882Y-77478075D01*
X78991015Y-77336807D01*
X79066955Y-77205546D01*
X79156703Y-77084291D01*
X79260258Y-76973042D01*
X79376086Y-76873437D01*
X79502288Y-76787112D01*
X79638861Y-76714068D01*
X79785808Y-76654305D01*
X79943127Y-76607823D01*
X80110819Y-76574621D01*
X80288883Y-76554700D01*
X80477320Y-76548060D01*
X80666250Y-76554688D01*
G37*
G36*
X84574006Y-77485952D02*
G01*
X85072994Y-78949944D01*
X85484787Y-77720425D01*
X85198290Y-77720425D01*
X85198290Y-77485952D01*
X86016748Y-77485952D01*
X86016748Y-77720425D01*
X85758828Y-77720425D01*
X85097174Y-79690000D01*
X84594522Y-79690000D01*
X84130705Y-78297815D01*
X83663224Y-79690000D01*
X83164236Y-79690000D01*
X82501116Y-77720425D01*
X82261514Y-77720425D01*
X82261514Y-77485952D01*
X83502756Y-77485952D01*
X83502756Y-77720425D01*
X83244836Y-77720425D01*
X83648569Y-78922833D01*
X84139497Y-77485952D01*
X84574006Y-77485952D01*
G37*
G36*
X87426309Y-77446929D02*
G01*
X87577818Y-77470542D01*
X87743240Y-77519658D01*
X87890784Y-77591442D01*
X88020451Y-77685895D01*
X88096964Y-77761458D01*
X88196467Y-77892868D01*
X88276803Y-78045299D01*
X88329110Y-78188381D01*
X88368108Y-78346061D01*
X88393797Y-78518338D01*
X88404765Y-78666670D01*
X88406176Y-78705212D01*
X86899686Y-78705212D01*
X86899686Y-78722065D01*
X86904168Y-78868974D01*
X86920728Y-79019987D01*
X86954593Y-79165697D01*
X87019337Y-79307520D01*
X87027181Y-79319239D01*
X87133779Y-79423531D01*
X87277261Y-79484532D01*
X87439707Y-79502421D01*
X87591769Y-79488222D01*
X87733363Y-79440342D01*
X87822924Y-79382254D01*
X87924578Y-79266720D01*
X87987502Y-79128303D01*
X88010502Y-79033475D01*
X88352687Y-79033475D01*
X88305518Y-79182970D01*
X88231089Y-79331325D01*
X88134769Y-79455682D01*
X88016560Y-79556043D01*
X88000244Y-79566901D01*
X87855210Y-79641273D01*
X87706741Y-79688918D01*
X87538147Y-79720293D01*
X87377620Y-79734238D01*
X87262387Y-79736894D01*
X87091158Y-79729613D01*
X86932845Y-79707771D01*
X86787447Y-79671367D01*
X86630020Y-79608461D01*
X86491190Y-79524587D01*
X86389707Y-79438674D01*
X86286366Y-79317876D01*
X86204407Y-79179150D01*
X86143828Y-79022495D01*
X86109678Y-78878254D01*
X86090376Y-78721561D01*
X86085624Y-78587243D01*
X86092801Y-78432637D01*
X86899686Y-78432637D01*
X86899686Y-78470739D01*
X87604571Y-78470739D01*
X87601737Y-78314350D01*
X87591269Y-78155403D01*
X87569859Y-78004747D01*
X87528929Y-77862924D01*
X87523971Y-77851584D01*
X87432208Y-77729868D01*
X87285333Y-77675095D01*
X87249930Y-77673531D01*
X87106135Y-77706910D01*
X86997202Y-77816755D01*
X86981019Y-77847920D01*
X86934713Y-77995692D01*
X86911123Y-78158070D01*
X86901672Y-78310170D01*
X86899686Y-78432637D01*
X86092801Y-78432637D01*
X86093209Y-78423842D01*
X86115964Y-78272070D01*
X86163294Y-78105291D01*
X86232468Y-77955256D01*
X86323486Y-77821965D01*
X86396301Y-77742407D01*
X86521632Y-77639316D01*
X86664068Y-77557553D01*
X86823608Y-77497120D01*
X86969624Y-77463053D01*
X87127519Y-77443797D01*
X87262387Y-77439057D01*
X87426309Y-77446929D01*
G37*
G36*
X88727111Y-79690000D02*
G01*
X88727111Y-79455526D01*
X89038521Y-79455526D01*
X89038521Y-77720425D01*
X88727111Y-77720425D01*
X88727111Y-77485952D01*
X89767585Y-77485952D01*
X89767585Y-77794431D01*
X89862590Y-77677348D01*
X89976105Y-77577863D01*
X90068004Y-77522588D01*
X90207417Y-77471687D01*
X90357118Y-77445665D01*
X90495185Y-77439057D01*
X90647806Y-77449401D01*
X90801106Y-77486552D01*
X90946637Y-77560645D01*
X91052059Y-77655212D01*
X91143442Y-77792970D01*
X91199565Y-77942573D01*
X91229287Y-78094437D01*
X91240918Y-78265866D01*
X91241103Y-78291953D01*
X91241103Y-79455526D01*
X91554710Y-79455526D01*
X91554710Y-79690000D01*
X90246057Y-79690000D01*
X90246057Y-79455526D01*
X90512038Y-79455526D01*
X90512038Y-78270704D01*
X90505097Y-78110821D01*
X90478444Y-77963542D01*
X90440963Y-77877962D01*
X90319881Y-77785580D01*
X90194766Y-77767320D01*
X90045393Y-77790504D01*
X89913058Y-77876156D01*
X89870167Y-77932184D01*
X89811764Y-78068055D01*
X89782011Y-78213483D01*
X89769188Y-78368638D01*
X89767585Y-78455352D01*
X89767585Y-79455526D01*
X90035764Y-79455526D01*
X90035764Y-79690000D01*
X88727111Y-79690000D01*
G37*
G36*
X95286973Y-76599659D02*
G01*
X95442273Y-76613773D01*
X95610546Y-76643131D01*
X95759087Y-76686039D01*
X95907445Y-76753223D01*
X95962805Y-76787662D01*
X96086545Y-76896197D01*
X96174930Y-77029096D01*
X96227961Y-77186358D01*
X96245362Y-77343947D01*
X96245638Y-77367983D01*
X96230221Y-77515858D01*
X96176927Y-77658683D01*
X96085564Y-77778896D01*
X96050733Y-77810551D01*
X95926202Y-77892841D01*
X95790499Y-77949834D01*
X95631256Y-77991622D01*
X95472610Y-78015715D01*
X95638916Y-78037568D01*
X95789973Y-78070704D01*
X95946931Y-78123623D01*
X96083133Y-78191899D01*
X96183357Y-78262644D01*
X96291709Y-78372508D01*
X96369103Y-78499132D01*
X96415540Y-78642518D01*
X96431019Y-78802665D01*
X96418860Y-78965151D01*
X96382384Y-79110789D01*
X96309094Y-79259408D01*
X96202705Y-79385096D01*
X96085171Y-79474577D01*
X95942023Y-79547787D01*
X95801756Y-79597225D01*
X95642420Y-79636144D01*
X95464014Y-79664544D01*
X95307559Y-79679691D01*
X95138900Y-79688106D01*
X95004396Y-79690000D01*
X93294208Y-79690000D01*
X93294208Y-79455526D01*
X93687683Y-79455526D01*
X94481228Y-79455526D01*
X94775785Y-79455526D01*
X94938183Y-79447953D01*
X95099910Y-79420750D01*
X95251417Y-79366500D01*
X95359037Y-79297257D01*
X95459114Y-79180994D01*
X95522126Y-79030956D01*
X95547146Y-78867045D01*
X95548814Y-78806329D01*
X95536815Y-78649846D01*
X95494633Y-78499092D01*
X95412144Y-78362993D01*
X95356839Y-78307341D01*
X95233558Y-78227646D01*
X95078863Y-78174033D01*
X94914983Y-78148273D01*
X94775785Y-78142477D01*
X94481228Y-78142477D01*
X94481228Y-79455526D01*
X93687683Y-79455526D01*
X93687683Y-77908004D01*
X94481228Y-77908004D01*
X94750872Y-77908004D01*
X94916698Y-77899623D01*
X95075772Y-77870160D01*
X95218397Y-77812544D01*
X95276239Y-77773914D01*
X95373856Y-77664427D01*
X95430953Y-77521346D01*
X95447697Y-77362121D01*
X95431454Y-77202523D01*
X95376065Y-77061347D01*
X95281368Y-76956189D01*
X95143970Y-76884019D01*
X94996519Y-76847253D01*
X94838983Y-76831408D01*
X94750872Y-76829427D01*
X94481228Y-76829427D01*
X94481228Y-77908004D01*
X93687683Y-77908004D01*
X93687683Y-76829427D01*
X93294208Y-76829427D01*
X93294208Y-76594954D01*
X95117969Y-76594954D01*
X95286973Y-76599659D01*
G37*
G36*
X98912770Y-77466901D02*
G01*
X98912770Y-78095582D01*
X98679763Y-78095582D01*
X98649721Y-77950685D01*
X98584508Y-77848653D01*
X98452731Y-77778757D01*
X98345638Y-77767320D01*
X98193277Y-77792082D01*
X98064640Y-77866370D01*
X97968283Y-77976880D01*
X97901694Y-78107625D01*
X97856897Y-78264104D01*
X97835373Y-78424801D01*
X97830530Y-78558667D01*
X97830530Y-79455526D01*
X98228402Y-79455526D01*
X98228402Y-79690000D01*
X96790056Y-79690000D01*
X96790056Y-79455526D01*
X97101465Y-79455526D01*
X97101465Y-77720425D01*
X96767341Y-77720425D01*
X96767341Y-77485952D01*
X97830530Y-77485952D01*
X97830530Y-77869169D01*
X97912217Y-77731968D01*
X98010180Y-77621607D01*
X98113363Y-77544570D01*
X98256932Y-77480273D01*
X98408089Y-77447404D01*
X98545673Y-77439057D01*
X98695315Y-77445934D01*
X98701012Y-77446385D01*
X98847733Y-77459946D01*
X98912770Y-77466901D01*
G37*
G36*
X100225913Y-77444460D02*
G01*
X100386476Y-77460667D01*
X100531655Y-77487679D01*
X100685563Y-77534356D01*
X100837122Y-77608478D01*
X100910188Y-77660341D01*
X101016682Y-77769250D01*
X101097020Y-77902351D01*
X101151201Y-78059645D01*
X101176824Y-78213724D01*
X101183496Y-78355701D01*
X101183496Y-79455526D01*
X101496371Y-79455526D01*
X101496371Y-79690000D01*
X100453698Y-79690000D01*
X100453698Y-79414494D01*
X100340801Y-79526086D01*
X100218630Y-79613567D01*
X100132031Y-79658492D01*
X99992137Y-79706268D01*
X99838435Y-79731994D01*
X99728297Y-79736894D01*
X99569890Y-79725857D01*
X99415002Y-79687056D01*
X99271862Y-79611179D01*
X99211724Y-79560307D01*
X99116669Y-79434526D01*
X99061221Y-79295751D01*
X99034289Y-79132748D01*
X99031472Y-79052526D01*
X99036259Y-78994640D01*
X99756874Y-78994640D01*
X99769934Y-79146424D01*
X99821866Y-79285757D01*
X99836008Y-79306050D01*
X99960040Y-79391702D01*
X100078541Y-79408632D01*
X100231132Y-79380788D01*
X100350384Y-79297257D01*
X100427870Y-79167930D01*
X100453598Y-79014079D01*
X100453698Y-79002700D01*
X100453698Y-78564528D01*
X100179658Y-78564528D01*
X100029278Y-78582910D01*
X99894833Y-78649800D01*
X99866050Y-78675903D01*
X99787686Y-78801043D01*
X99757833Y-78956479D01*
X99756874Y-78994640D01*
X99036259Y-78994640D01*
X99043849Y-78902860D01*
X99088305Y-78753109D01*
X99165093Y-78626072D01*
X99274212Y-78521750D01*
X99290126Y-78510307D01*
X99435893Y-78431447D01*
X99590412Y-78380927D01*
X99742894Y-78351355D01*
X99913871Y-78334456D01*
X100070481Y-78330055D01*
X100453698Y-78330055D01*
X100453698Y-78192302D01*
X100441391Y-78040047D01*
X100394130Y-77893043D01*
X100327669Y-77800293D01*
X100203010Y-77718219D01*
X100047368Y-77679596D01*
X99938590Y-77673531D01*
X99788839Y-77685895D01*
X99649552Y-77731576D01*
X99601535Y-77761458D01*
X99500235Y-77876863D01*
X99443557Y-78012173D01*
X99433740Y-78048688D01*
X99200733Y-78048688D01*
X99200733Y-77579741D01*
X99349522Y-77531931D01*
X99502434Y-77494012D01*
X99606664Y-77474228D01*
X99753925Y-77454204D01*
X99906553Y-77442492D01*
X100049965Y-77439057D01*
X100225913Y-77444460D01*
G37*
G36*
X103039497Y-79690000D02*
G01*
X101722784Y-79690000D01*
X101722784Y-79455526D01*
X102034194Y-79455526D01*
X102034194Y-76735638D01*
X101722784Y-76735638D01*
X101722784Y-76501165D01*
X102763259Y-76501165D01*
X102763259Y-78533754D01*
X103647662Y-77720425D01*
X103386078Y-77720425D01*
X103386078Y-77485952D01*
X104385520Y-77485952D01*
X104385520Y-77720425D01*
X103979588Y-77720425D01*
X103414654Y-78240662D01*
X104337892Y-79455526D01*
X104574564Y-79455526D01*
X104574564Y-79690000D01*
X103317934Y-79690000D01*
X103317934Y-79455526D01*
X103575122Y-79455526D01*
X102967690Y-78654654D01*
X102763259Y-78840767D01*
X102763259Y-79455526D01*
X103039497Y-79455526D01*
X103039497Y-79690000D01*
G37*
G36*
X106002443Y-77446929D02*
G01*
X106153952Y-77470542D01*
X106319374Y-77519658D01*
X106466918Y-77591442D01*
X106596585Y-77685895D01*
X106673098Y-77761458D01*
X106772601Y-77892868D01*
X106852937Y-78045299D01*
X106905244Y-78188381D01*
X106944242Y-78346061D01*
X106969931Y-78518338D01*
X106980899Y-78666670D01*
X106982310Y-78705212D01*
X105475820Y-78705212D01*
X105475820Y-78722065D01*
X105480302Y-78868974D01*
X105496861Y-79019987D01*
X105530727Y-79165697D01*
X105595471Y-79307520D01*
X105603315Y-79319239D01*
X105709913Y-79423531D01*
X105853395Y-79484532D01*
X106015841Y-79502421D01*
X106167903Y-79488222D01*
X106309497Y-79440342D01*
X106399058Y-79382254D01*
X106500712Y-79266720D01*
X106563636Y-79128303D01*
X106586636Y-79033475D01*
X106928821Y-79033475D01*
X106881652Y-79182970D01*
X106807223Y-79331325D01*
X106710903Y-79455682D01*
X106592694Y-79556043D01*
X106576378Y-79566901D01*
X106431344Y-79641273D01*
X106282875Y-79688918D01*
X106114281Y-79720293D01*
X105953754Y-79734238D01*
X105838521Y-79736894D01*
X105667292Y-79729613D01*
X105508979Y-79707771D01*
X105363581Y-79671367D01*
X105206154Y-79608461D01*
X105067324Y-79524587D01*
X104965841Y-79438674D01*
X104862500Y-79317876D01*
X104780541Y-79179150D01*
X104719962Y-79022495D01*
X104685812Y-78878254D01*
X104666510Y-78721561D01*
X104661758Y-78587243D01*
X104668935Y-78432637D01*
X105475820Y-78432637D01*
X105475820Y-78470739D01*
X106180705Y-78470739D01*
X106177871Y-78314350D01*
X106167403Y-78155403D01*
X106145993Y-78004747D01*
X106105063Y-77862924D01*
X106100105Y-77851584D01*
X106008342Y-77729868D01*
X105861467Y-77675095D01*
X105826064Y-77673531D01*
X105682269Y-77706910D01*
X105573336Y-77816755D01*
X105557153Y-77847920D01*
X105510847Y-77995692D01*
X105487257Y-78158070D01*
X105477806Y-78310170D01*
X105475820Y-78432637D01*
X104668935Y-78432637D01*
X104669343Y-78423842D01*
X104692098Y-78272070D01*
X104739428Y-78105291D01*
X104808602Y-77955256D01*
X104899620Y-77821965D01*
X104972435Y-77742407D01*
X105097766Y-77639316D01*
X105240202Y-77557553D01*
X105399742Y-77497120D01*
X105545758Y-77463053D01*
X105703653Y-77443797D01*
X105838521Y-77439057D01*
X106002443Y-77446929D01*
G37*
D12*
X68880634Y-44852039D02*
X69385711Y-45357115D01*
X69385711Y-45357115D02*
X69453054Y-45491802D01*
X69453054Y-45491802D02*
X69453054Y-45626489D01*
X69453054Y-45626489D02*
X69385711Y-45761176D01*
X69385711Y-45761176D02*
X69318367Y-45828520D01*
X70294848Y-44852039D02*
X69890787Y-45256100D01*
X70092818Y-45054070D02*
X69385711Y-44346963D01*
X69385711Y-44346963D02*
X69419383Y-44515322D01*
X69419383Y-44515322D02*
X69419383Y-44650009D01*
X69419383Y-44650009D02*
X69385711Y-44751024D01*
%TO.C,D10*%
X123765000Y-78035000D02*
X124965000Y-78035000D01*
X124740000Y-76685000D02*
X125190000Y-76685000D01*
X124965000Y-76835000D02*
X123765000Y-76835000D01*
X125215000Y-76685000D02*
X125215000Y-77085000D01*
%TO.C,D23*%
X126765000Y-84035000D02*
X127965000Y-84035000D01*
X127740000Y-82685000D02*
X128190000Y-82685000D01*
X127965000Y-82835000D02*
X126765000Y-82835000D01*
X128215000Y-82685000D02*
X128215000Y-83085000D01*
%TO.C,D35*%
X126515000Y-90185000D02*
X126515000Y-89785000D01*
X126765000Y-90035000D02*
X127965000Y-90035000D01*
X126990000Y-90185000D02*
X126540000Y-90185000D01*
X127965000Y-88835000D02*
X126765000Y-88835000D01*
%TO.C,D7*%
X114765000Y-78035000D02*
X115965000Y-78035000D01*
X115740000Y-76685000D02*
X116190000Y-76685000D01*
X115965000Y-76835000D02*
X114765000Y-76835000D01*
X116215000Y-76685000D02*
X116215000Y-77085000D01*
%TO.C,D8*%
X117765000Y-78035000D02*
X118965000Y-78035000D01*
X118740000Y-76685000D02*
X119190000Y-76685000D01*
X118965000Y-76835000D02*
X117765000Y-76835000D01*
X119215000Y-76685000D02*
X119215000Y-77085000D01*
%TO.C,D11*%
X126765000Y-78035000D02*
X127965000Y-78035000D01*
X127740000Y-76685000D02*
X128190000Y-76685000D01*
X127965000Y-76835000D02*
X126765000Y-76835000D01*
X128215000Y-76685000D02*
X128215000Y-77085000D01*
%TO.C,D15*%
X120765000Y-81035000D02*
X121965000Y-81035000D01*
X121740000Y-79685000D02*
X122190000Y-79685000D01*
X121965000Y-79835000D02*
X120765000Y-79835000D01*
X122215000Y-79685000D02*
X122215000Y-80085000D01*
%TO.C,D34*%
X123515000Y-90185000D02*
X123515000Y-89785000D01*
X123765000Y-90035000D02*
X124965000Y-90035000D01*
X123990000Y-90185000D02*
X123540000Y-90185000D01*
X124965000Y-88835000D02*
X123765000Y-88835000D01*
%TO.C,D29*%
X126515000Y-87185000D02*
X126515000Y-86785000D01*
X126765000Y-87035000D02*
X127965000Y-87035000D01*
X126990000Y-87185000D02*
X126540000Y-87185000D01*
X127965000Y-85835000D02*
X126765000Y-85835000D01*
%TO.C,D6*%
X129765000Y-75035000D02*
X130965000Y-75035000D01*
X130740000Y-73685000D02*
X131190000Y-73685000D01*
X130965000Y-73835000D02*
X129765000Y-73835000D01*
X131215000Y-73685000D02*
X131215000Y-74085000D01*
%TO.C,D20*%
X117765000Y-84035000D02*
X118965000Y-84035000D01*
X118740000Y-82685000D02*
X119190000Y-82685000D01*
X118965000Y-82835000D02*
X117765000Y-82835000D01*
X119215000Y-82685000D02*
X119215000Y-83085000D01*
%TO.C,D32*%
X117515000Y-90185000D02*
X117515000Y-89785000D01*
X117765000Y-90035000D02*
X118965000Y-90035000D01*
X117990000Y-90185000D02*
X117540000Y-90185000D01*
X118965000Y-88835000D02*
X117765000Y-88835000D01*
%TO.C,D28*%
X123515000Y-87185000D02*
X123515000Y-86785000D01*
X123765000Y-87035000D02*
X124965000Y-87035000D01*
X123990000Y-87185000D02*
X123540000Y-87185000D01*
X124965000Y-85835000D02*
X123765000Y-85835000D01*
%TO.C,D33*%
X120515000Y-90185000D02*
X120515000Y-89785000D01*
X120765000Y-90035000D02*
X121965000Y-90035000D01*
X120990000Y-90185000D02*
X120540000Y-90185000D01*
X121965000Y-88835000D02*
X120765000Y-88835000D01*
%TO.C,D9*%
X120765000Y-78035000D02*
X121965000Y-78035000D01*
X121740000Y-76685000D02*
X122190000Y-76685000D01*
X121965000Y-76835000D02*
X120765000Y-76835000D01*
X122215000Y-76685000D02*
X122215000Y-77085000D01*
%TO.C,D14*%
X117515000Y-81185000D02*
X117515000Y-80785000D01*
X117765000Y-81035000D02*
X118965000Y-81035000D01*
X117990000Y-81185000D02*
X117540000Y-81185000D01*
X118965000Y-79835000D02*
X117765000Y-79835000D01*
%TO.C,D1*%
X117765000Y-75035000D02*
X118965000Y-75035000D01*
X118740000Y-73685000D02*
X119190000Y-73685000D01*
X118965000Y-73835000D02*
X117765000Y-73835000D01*
X119215000Y-73685000D02*
X119215000Y-74085000D01*
%TO.C,D30*%
X129515000Y-87185000D02*
X129515000Y-86785000D01*
X129765000Y-87035000D02*
X130965000Y-87035000D01*
X129990000Y-87185000D02*
X129540000Y-87185000D01*
X130965000Y-85835000D02*
X129765000Y-85835000D01*
%TO.C,D26*%
X117515000Y-87185000D02*
X117515000Y-86785000D01*
X117765000Y-87035000D02*
X118965000Y-87035000D01*
X117990000Y-87185000D02*
X117540000Y-87185000D01*
X118965000Y-85835000D02*
X117765000Y-85835000D01*
D13*
%TO.C,J2*%
X86250000Y-64330000D02*
X86250000Y-63000000D01*
X87580000Y-64330000D02*
X86250000Y-64330000D01*
X88850000Y-61670000D02*
X101610000Y-61670000D01*
X88850000Y-64330000D02*
X88850000Y-61670000D01*
X88850000Y-64330000D02*
X101610000Y-64330000D01*
X101610000Y-64330000D02*
X101610000Y-61670000D01*
D12*
%TO.C,D17*%
X126515000Y-81185000D02*
X126515000Y-80785000D01*
X126765000Y-81035000D02*
X127965000Y-81035000D01*
X126990000Y-81185000D02*
X126540000Y-81185000D01*
X127965000Y-79835000D02*
X126765000Y-79835000D01*
%TO.C,D4*%
X123765000Y-75035000D02*
X124965000Y-75035000D01*
X124740000Y-73685000D02*
X125190000Y-73685000D01*
X124965000Y-73835000D02*
X123765000Y-73835000D01*
X125215000Y-73685000D02*
X125215000Y-74085000D01*
%TO.C,D25*%
X114515000Y-87185000D02*
X114515000Y-86785000D01*
X114765000Y-87035000D02*
X115965000Y-87035000D01*
X114990000Y-87185000D02*
X114540000Y-87185000D01*
X115965000Y-85835000D02*
X114765000Y-85835000D01*
%TO.C,D16*%
X123515000Y-81185000D02*
X123515000Y-80785000D01*
X123765000Y-81035000D02*
X124965000Y-81035000D01*
X123990000Y-81185000D02*
X123540000Y-81185000D01*
X124965000Y-79835000D02*
X123765000Y-79835000D01*
%TO.C,D5*%
X126765000Y-75035000D02*
X127965000Y-75035000D01*
X127740000Y-73685000D02*
X128190000Y-73685000D01*
X127965000Y-73835000D02*
X126765000Y-73835000D01*
X128215000Y-73685000D02*
X128215000Y-74085000D01*
D13*
%TO.C,R76*%
X80162770Y-67901697D02*
X80498303Y-68237230D01*
X80901697Y-67162770D02*
X81237230Y-67498303D01*
D12*
%TO.C,D19*%
X114765000Y-84035000D02*
X115965000Y-84035000D01*
X115740000Y-82685000D02*
X116190000Y-82685000D01*
X115965000Y-82835000D02*
X114765000Y-82835000D01*
X116215000Y-82685000D02*
X116215000Y-83085000D01*
D13*
%TO.C,R77*%
X81962770Y-66201697D02*
X82298303Y-66537230D01*
X82701697Y-65462770D02*
X83037230Y-65798303D01*
D12*
%TO.C,D21*%
X120515000Y-84185000D02*
X120515000Y-83785000D01*
X120765000Y-84035000D02*
X121965000Y-84035000D01*
X120990000Y-84185000D02*
X120540000Y-84185000D01*
X121965000Y-82835000D02*
X120765000Y-82835000D01*
%TO.C,D24*%
X129765000Y-84035000D02*
X130965000Y-84035000D01*
X130740000Y-82685000D02*
X131190000Y-82685000D01*
X130965000Y-82835000D02*
X129765000Y-82835000D01*
X131215000Y-82685000D02*
X131215000Y-83085000D01*
%TO.C,D13*%
X114515000Y-81185000D02*
X114515000Y-80785000D01*
X114765000Y-81035000D02*
X115965000Y-81035000D01*
X114990000Y-81185000D02*
X114540000Y-81185000D01*
X115965000Y-79835000D02*
X114765000Y-79835000D01*
%TO.C,D27*%
X120515000Y-87185000D02*
X120515000Y-86785000D01*
X120765000Y-87035000D02*
X121965000Y-87035000D01*
X120990000Y-87185000D02*
X120540000Y-87185000D01*
X121965000Y-85835000D02*
X120765000Y-85835000D01*
%TO.C,D40*%
X114765000Y-75035000D02*
X115965000Y-75035000D01*
X115740000Y-73685000D02*
X116190000Y-73685000D01*
X115965000Y-73835000D02*
X114765000Y-73835000D01*
X116215000Y-73685000D02*
X116215000Y-74085000D01*
%TO.C,D31*%
X114515000Y-90185000D02*
X114515000Y-89785000D01*
X114765000Y-90035000D02*
X115965000Y-90035000D01*
X114990000Y-90185000D02*
X114540000Y-90185000D01*
X115965000Y-88835000D02*
X114765000Y-88835000D01*
D13*
%TO.C,R75*%
X78662770Y-69401697D02*
X78998303Y-69737230D01*
X79401697Y-68662770D02*
X79737230Y-68998303D01*
D12*
%TO.C,D18*%
X129515000Y-81185000D02*
X129515000Y-80785000D01*
X129765000Y-81035000D02*
X130965000Y-81035000D01*
X129990000Y-81185000D02*
X129540000Y-81185000D01*
X130965000Y-79835000D02*
X129765000Y-79835000D01*
%TO.C,D3*%
X120765000Y-75035000D02*
X121965000Y-75035000D01*
X121740000Y-73685000D02*
X122190000Y-73685000D01*
X121965000Y-73835000D02*
X120765000Y-73835000D01*
X122215000Y-73685000D02*
X122215000Y-74085000D01*
%TO.C,D36*%
X129515000Y-90185000D02*
X129515000Y-89785000D01*
X129765000Y-90035000D02*
X130965000Y-90035000D01*
X129990000Y-90185000D02*
X129540000Y-90185000D01*
X130965000Y-88835000D02*
X129765000Y-88835000D01*
D13*
%TO.C,R74*%
X76862770Y-71101697D02*
X77198303Y-71437230D01*
X77601697Y-70362770D02*
X77937230Y-70698303D01*
D12*
%TO.C,D12*%
X129765000Y-78035000D02*
X130965000Y-78035000D01*
X130740000Y-76685000D02*
X131190000Y-76685000D01*
X130965000Y-76835000D02*
X129765000Y-76835000D01*
X131215000Y-76685000D02*
X131215000Y-77085000D01*
%TO.C,D22*%
X123515000Y-84185000D02*
X123515000Y-83785000D01*
X123765000Y-84035000D02*
X124965000Y-84035000D01*
X123990000Y-84185000D02*
X123540000Y-84185000D01*
X124965000Y-82835000D02*
X123765000Y-82835000D01*
%TD*%
%LPC*%
D14*
%TO.C,D10*%
X124780000Y-77720000D03*
X124780000Y-77150000D03*
X123950000Y-77150000D03*
X123950000Y-77720000D03*
%TD*%
%TO.C,D23*%
X127780000Y-83720000D03*
X127780000Y-83150000D03*
X126950000Y-83150000D03*
X126950000Y-83720000D03*
%TD*%
D15*
%TO.C,D35*%
X126950000Y-89150000D03*
X126950000Y-89720000D03*
X127780000Y-89720000D03*
X127780000Y-89150000D03*
%TD*%
D14*
%TO.C,D7*%
X115780000Y-77720000D03*
X115780000Y-77150000D03*
X114950000Y-77150000D03*
X114950000Y-77720000D03*
%TD*%
%TO.C,D8*%
X118780000Y-77720000D03*
X118780000Y-77150000D03*
X117950000Y-77150000D03*
X117950000Y-77720000D03*
%TD*%
%TO.C,D11*%
X127780000Y-77720000D03*
X127780000Y-77150000D03*
X126950000Y-77150000D03*
X126950000Y-77720000D03*
%TD*%
%TO.C,D15*%
X121780000Y-80720000D03*
X121780000Y-80150000D03*
X120950000Y-80150000D03*
X120950000Y-80720000D03*
%TD*%
D15*
%TO.C,D34*%
X123950000Y-89150000D03*
X123950000Y-89720000D03*
X124780000Y-89720000D03*
X124780000Y-89150000D03*
%TD*%
%TO.C,D29*%
X126950000Y-86150000D03*
X126950000Y-86720000D03*
X127780000Y-86720000D03*
X127780000Y-86150000D03*
%TD*%
D14*
%TO.C,D6*%
X130780000Y-74720000D03*
X130780000Y-74150000D03*
X129950000Y-74150000D03*
X129950000Y-74720000D03*
%TD*%
%TO.C,D20*%
X118780000Y-83720000D03*
X118780000Y-83150000D03*
X117950000Y-83150000D03*
X117950000Y-83720000D03*
%TD*%
D15*
%TO.C,D32*%
X117950000Y-89150000D03*
X117950000Y-89720000D03*
X118780000Y-89720000D03*
X118780000Y-89150000D03*
%TD*%
%TO.C,D28*%
X123950000Y-86150000D03*
X123950000Y-86720000D03*
X124780000Y-86720000D03*
X124780000Y-86150000D03*
%TD*%
%TO.C,D33*%
X120950000Y-89150000D03*
X120950000Y-89720000D03*
X121780000Y-89720000D03*
X121780000Y-89150000D03*
%TD*%
D14*
%TO.C,D9*%
X121780000Y-77720000D03*
X121780000Y-77150000D03*
X120950000Y-77150000D03*
X120950000Y-77720000D03*
%TD*%
D15*
%TO.C,D14*%
X117950000Y-80150000D03*
X117950000Y-80720000D03*
X118780000Y-80720000D03*
X118780000Y-80150000D03*
%TD*%
D14*
%TO.C,D1*%
X118780000Y-74720000D03*
X118780000Y-74150000D03*
X117950000Y-74150000D03*
X117950000Y-74720000D03*
%TD*%
D15*
%TO.C,D30*%
X129950000Y-86150000D03*
X129950000Y-86720000D03*
X130780000Y-86720000D03*
X130780000Y-86150000D03*
%TD*%
%TO.C,D26*%
X117950000Y-86150000D03*
X117950000Y-86720000D03*
X118780000Y-86720000D03*
X118780000Y-86150000D03*
%TD*%
D16*
%TO.C,J2*%
X87580000Y-63000000D03*
D17*
X90120000Y-63000000D03*
X92660000Y-63000000D03*
X95200000Y-63000000D03*
X97740000Y-63000000D03*
X100280000Y-63000000D03*
%TD*%
D15*
%TO.C,D17*%
X126950000Y-80150000D03*
X126950000Y-80720000D03*
X127780000Y-80720000D03*
X127780000Y-80150000D03*
%TD*%
D14*
%TO.C,D4*%
X124780000Y-74720000D03*
X124780000Y-74150000D03*
X123950000Y-74150000D03*
X123950000Y-74720000D03*
%TD*%
D15*
%TO.C,D25*%
X114950000Y-86150000D03*
X114950000Y-86720000D03*
X115780000Y-86720000D03*
X115780000Y-86150000D03*
%TD*%
%TO.C,D16*%
X123950000Y-80150000D03*
X123950000Y-80720000D03*
X124780000Y-80720000D03*
X124780000Y-80150000D03*
%TD*%
D14*
%TO.C,D5*%
X127780000Y-74720000D03*
X127780000Y-74150000D03*
X126950000Y-74150000D03*
X126950000Y-74720000D03*
%TD*%
D18*
%TO.C,R76*%
X80116637Y-67116637D03*
X81283363Y-68283363D03*
%TD*%
D14*
%TO.C,D19*%
X115780000Y-83720000D03*
X115780000Y-83150000D03*
X114950000Y-83150000D03*
X114950000Y-83720000D03*
%TD*%
D18*
%TO.C,R77*%
X81916637Y-65416637D03*
X83083363Y-66583363D03*
%TD*%
D15*
%TO.C,D21*%
X120950000Y-83150000D03*
X120950000Y-83720000D03*
X121780000Y-83720000D03*
X121780000Y-83150000D03*
%TD*%
D14*
%TO.C,D24*%
X130780000Y-83720000D03*
X130780000Y-83150000D03*
X129950000Y-83150000D03*
X129950000Y-83720000D03*
%TD*%
D15*
%TO.C,D13*%
X114950000Y-80150000D03*
X114950000Y-80720000D03*
X115780000Y-80720000D03*
X115780000Y-80150000D03*
%TD*%
%TO.C,D27*%
X120950000Y-86150000D03*
X120950000Y-86720000D03*
X121780000Y-86720000D03*
X121780000Y-86150000D03*
%TD*%
D14*
%TO.C,D40*%
X115780000Y-74720000D03*
X115780000Y-74150000D03*
X114950000Y-74150000D03*
X114950000Y-74720000D03*
%TD*%
D19*
%TO.C,J1*%
X68318019Y-61767767D03*
D20*
X70403984Y-60318198D03*
X71818198Y-58903984D03*
D19*
X73267767Y-56818019D03*
%TD*%
D15*
%TO.C,D31*%
X114950000Y-89150000D03*
X114950000Y-89720000D03*
X115780000Y-89720000D03*
X115780000Y-89150000D03*
%TD*%
D18*
%TO.C,R75*%
X78616637Y-68616637D03*
X79783363Y-69783363D03*
%TD*%
D15*
%TO.C,D18*%
X129950000Y-80150000D03*
X129950000Y-80720000D03*
X130780000Y-80720000D03*
X130780000Y-80150000D03*
%TD*%
D14*
%TO.C,D3*%
X121780000Y-74720000D03*
X121780000Y-74150000D03*
X120950000Y-74150000D03*
X120950000Y-74720000D03*
%TD*%
D15*
%TO.C,D36*%
X129950000Y-89150000D03*
X129950000Y-89720000D03*
X130780000Y-89720000D03*
X130780000Y-89150000D03*
%TD*%
D18*
%TO.C,R74*%
X76816637Y-70316637D03*
X77983363Y-71483363D03*
%TD*%
D14*
%TO.C,D12*%
X130780000Y-77720000D03*
X130780000Y-77150000D03*
X129950000Y-77150000D03*
X129950000Y-77720000D03*
%TD*%
D15*
%TO.C,D22*%
X123950000Y-83150000D03*
X123950000Y-83720000D03*
X124780000Y-83720000D03*
X124780000Y-83150000D03*
%TD*%
%LPD*%
M02*
