%TF.GenerationSoftware,KiCad,Pcbnew,8.0.5*%
%TF.CreationDate,2024-11-01T13:05:59-07:00*%
%TF.ProjectId,bizcard,62697a63-6172-4642-9e6b-696361645f70,rev?*%
%TF.SameCoordinates,Original*%
%TF.FileFunction,Legend,Bot*%
%TF.FilePolarity,Positive*%
%FSLAX46Y46*%
G04 Gerber Fmt 4.6, Leading zero omitted, Abs format (unit mm)*
G04 Created by KiCad (PCBNEW 8.0.5) date 2024-11-01 13:05:59*
%MOMM*%
%LPD*%
G01*
G04 APERTURE LIST*
G04 Aperture macros list*
%AMRoundRect*
0 Rectangle with rounded corners*
0 $1 Rounding radius*
0 $2 $3 $4 $5 $6 $7 $8 $9 X,Y pos of 4 corners*
0 Add a 4 corners polygon primitive as box body*
4,1,4,$2,$3,$4,$5,$6,$7,$8,$9,$2,$3,0*
0 Add four circle primitives for the rounded corners*
1,1,$1+$1,$2,$3*
1,1,$1+$1,$4,$5*
1,1,$1+$1,$6,$7*
1,1,$1+$1,$8,$9*
0 Add four rect primitives between the rounded corners*
20,1,$1+$1,$2,$3,$4,$5,0*
20,1,$1+$1,$4,$5,$6,$7,0*
20,1,$1+$1,$6,$7,$8,$9,0*
20,1,$1+$1,$8,$9,$2,$3,0*%
%AMRotRect*
0 Rectangle, with rotation*
0 The origin of the aperture is its center*
0 $1 length*
0 $2 width*
0 $3 Rotation angle, in degrees counterclockwise*
0 Add horizontal line*
21,1,$1,$2,0,0,$3*%
G04 Aperture macros list end*
%ADD10C,0.100000*%
%ADD11C,0.150000*%
%ADD12C,0.120000*%
%ADD13C,0.200000*%
%ADD14R,1.700000X1.700000*%
%ADD15O,1.700000X1.700000*%
%ADD16RoundRect,0.135000X-0.135000X-0.185000X0.135000X-0.185000X0.135000X0.185000X-0.135000X0.185000X0*%
%ADD17RoundRect,0.140000X-0.170000X0.140000X-0.170000X-0.140000X0.170000X-0.140000X0.170000X0.140000X0*%
%ADD18RoundRect,0.140000X0.170000X-0.140000X0.170000X0.140000X-0.170000X0.140000X-0.170000X-0.140000X0*%
%ADD19RoundRect,0.140000X0.021213X-0.219203X0.219203X-0.021213X-0.021213X0.219203X-0.219203X0.021213X0*%
%ADD20RoundRect,0.051000X0.225000X0.450000X-0.225000X0.450000X-0.225000X-0.450000X0.225000X-0.450000X0*%
%ADD21RoundRect,0.051000X-0.225000X-0.450000X0.225000X-0.450000X0.225000X0.450000X-0.225000X0.450000X0*%
%ADD22RoundRect,0.140000X0.140000X0.170000X-0.140000X0.170000X-0.140000X-0.170000X0.140000X-0.170000X0*%
%ADD23RoundRect,0.135000X0.185000X-0.135000X0.185000X0.135000X-0.185000X0.135000X-0.185000X-0.135000X0*%
%ADD24RoundRect,0.135000X-0.185000X0.135000X-0.185000X-0.135000X0.185000X-0.135000X0.185000X0.135000X0*%
%ADD25RoundRect,0.135000X0.135000X0.185000X-0.135000X0.185000X-0.135000X-0.185000X0.135000X-0.185000X0*%
%ADD26RoundRect,0.218750X0.026517X-0.335876X0.335876X-0.026517X-0.026517X0.335876X-0.335876X0.026517X0*%
%ADD27RoundRect,0.250000X0.159099X-0.512652X0.512652X-0.159099X-0.159099X0.512652X-0.512652X0.159099X0*%
%ADD28RoundRect,0.140000X0.219203X0.021213X0.021213X0.219203X-0.219203X-0.021213X-0.021213X-0.219203X0*%
%ADD29RoundRect,0.200000X-0.053033X0.335876X-0.335876X0.053033X0.053033X-0.335876X0.335876X-0.053033X0*%
%ADD30RoundRect,0.125000X0.530330X-0.353553X-0.353553X0.530330X-0.530330X0.353553X0.353553X-0.530330X0*%
%ADD31RoundRect,0.125000X0.530330X0.353553X0.353553X0.530330X-0.530330X-0.353553X-0.353553X-0.530330X0*%
%ADD32RoundRect,0.140000X-0.219203X-0.021213X-0.021213X-0.219203X0.219203X0.021213X0.021213X0.219203X0*%
%ADD33RotRect,0.600000X1.200000X45.000000*%
%ADD34RoundRect,0.218750X-0.026517X0.335876X-0.335876X0.026517X0.026517X-0.335876X0.335876X-0.026517X0*%
%ADD35RoundRect,0.070000X0.247487X0.671751X-0.671751X-0.247487X-0.247487X-0.671751X0.671751X0.247487X0*%
%ADD36RoundRect,0.225000X0.017678X-0.335876X0.335876X-0.017678X-0.017678X0.335876X-0.335876X0.017678X0*%
%ADD37RoundRect,0.140000X-0.140000X-0.170000X0.140000X-0.170000X0.140000X0.170000X-0.140000X0.170000X0*%
%ADD38RoundRect,0.200000X0.053033X-0.335876X0.335876X-0.053033X-0.053033X0.335876X-0.335876X0.053033X0*%
G04 APERTURE END LIST*
D10*
G36*
X99146475Y-91461468D02*
G01*
X98268667Y-91461468D01*
X98268667Y-91545000D01*
X99253820Y-91545000D01*
X99253820Y-91436922D01*
X98870237Y-91037951D01*
X98817871Y-90984594D01*
X98759154Y-90924297D01*
X98702997Y-90866104D01*
X98649400Y-90810014D01*
X98612683Y-90771238D01*
X98558129Y-90710998D01*
X98510702Y-90653582D01*
X98469801Y-90593918D01*
X98442598Y-90520920D01*
X98433849Y-90446907D01*
X98433531Y-90427955D01*
X98438755Y-90353388D01*
X98457520Y-90276325D01*
X98489931Y-90207964D01*
X98535990Y-90148304D01*
X98542707Y-90141458D01*
X98608750Y-90097030D01*
X98679722Y-90074396D01*
X98755605Y-90064642D01*
X98798063Y-90063422D01*
X98872685Y-90070479D01*
X98946759Y-90089141D01*
X99018504Y-90115908D01*
X99035101Y-90123140D01*
X99102420Y-90158953D01*
X99169740Y-90199733D01*
X99235136Y-90241475D01*
X99235136Y-90132299D01*
X99172224Y-90093610D01*
X99101332Y-90057546D01*
X99060013Y-90038510D01*
X98986588Y-90010087D01*
X98913452Y-89990763D01*
X98840606Y-89980540D01*
X98800261Y-89978792D01*
X98716347Y-89983666D01*
X98638675Y-89998287D01*
X98567243Y-90022655D01*
X98502052Y-90056771D01*
X98467602Y-90080642D01*
X98410221Y-90140038D01*
X98373460Y-90205610D01*
X98349252Y-90283874D01*
X98338493Y-90361059D01*
X98336444Y-90417697D01*
X98342249Y-90493040D01*
X98359662Y-90564876D01*
X98371615Y-90596849D01*
X98405618Y-90665245D01*
X98446147Y-90728099D01*
X98495835Y-90791597D01*
X98501308Y-90797983D01*
X98555347Y-90855868D01*
X98610376Y-90913223D01*
X98665439Y-90970174D01*
X99146475Y-91461468D01*
G37*
G36*
X97782501Y-91415307D02*
G01*
X97677355Y-91415307D01*
X97677355Y-91545000D01*
X97782501Y-91545000D01*
X97782501Y-91415307D01*
G37*
G36*
X96473848Y-90006636D02*
G01*
X95693859Y-90006636D01*
X95693859Y-90091999D01*
X96369801Y-90091999D01*
X96369801Y-90682578D01*
X95759804Y-90682578D01*
X95759804Y-90766109D01*
X96369801Y-90766109D01*
X96369801Y-91545000D01*
X96473848Y-91545000D01*
X96473848Y-90006636D01*
G37*
G36*
X95032439Y-90368866D02*
G01*
X95105684Y-90386138D01*
X95182931Y-90420842D01*
X95251342Y-90471219D01*
X95302948Y-90526873D01*
X95339994Y-90580822D01*
X95376161Y-90652882D01*
X95403286Y-90732927D01*
X95418984Y-90805731D01*
X95428402Y-90884081D01*
X95431542Y-90967976D01*
X95429550Y-91037167D01*
X95421457Y-91118359D01*
X95407138Y-91193666D01*
X95381739Y-91276266D01*
X95347375Y-91350390D01*
X95304047Y-91416039D01*
X95252402Y-91471818D01*
X95183848Y-91522308D01*
X95106353Y-91557090D01*
X95032813Y-91574400D01*
X94952704Y-91580170D01*
X94873256Y-91574374D01*
X94800325Y-91556986D01*
X94723476Y-91522049D01*
X94655498Y-91471335D01*
X94604291Y-91415307D01*
X94567140Y-91361109D01*
X94530870Y-91288397D01*
X94503667Y-91207313D01*
X94487925Y-91133348D01*
X94478479Y-91053569D01*
X94475331Y-90967976D01*
X94475364Y-90966877D01*
X94570219Y-90966877D01*
X94573839Y-91054547D01*
X94584696Y-91135107D01*
X94602793Y-91208557D01*
X94633054Y-91285263D01*
X94673168Y-91352292D01*
X94679628Y-91360970D01*
X94736518Y-91420475D01*
X94802658Y-91462350D01*
X94878049Y-91486593D01*
X94951605Y-91493342D01*
X94962591Y-91493204D01*
X95035410Y-91484526D01*
X95109874Y-91458080D01*
X95174995Y-91414001D01*
X95230774Y-91352292D01*
X95237040Y-91343442D01*
X95275333Y-91275722D01*
X95303879Y-91197904D01*
X95320588Y-91123165D01*
X95330137Y-91041008D01*
X95332623Y-90966877D01*
X95329004Y-90880765D01*
X95318146Y-90801583D01*
X95300050Y-90729331D01*
X95269789Y-90653794D01*
X95229675Y-90587690D01*
X95223237Y-90579012D01*
X95166502Y-90519506D01*
X95100470Y-90477632D01*
X95025142Y-90453389D01*
X94951605Y-90446639D01*
X94940663Y-90446778D01*
X94858334Y-90457884D01*
X94785256Y-90486758D01*
X94721428Y-90533400D01*
X94673168Y-90588789D01*
X94633054Y-90655467D01*
X94602793Y-90731121D01*
X94584696Y-90803112D01*
X94573839Y-90881697D01*
X94570219Y-90966877D01*
X94475364Y-90966877D01*
X94477346Y-90901154D01*
X94485532Y-90822377D01*
X94500015Y-90748877D01*
X94525706Y-90667643D01*
X94560465Y-90594008D01*
X94604291Y-90527972D01*
X94655498Y-90471944D01*
X94723476Y-90421229D01*
X94800325Y-90386292D01*
X94873256Y-90368904D01*
X94952704Y-90363108D01*
X95032439Y-90368866D01*
G37*
G36*
X94075628Y-89941789D02*
G01*
X93981106Y-89941789D01*
X93981106Y-91545000D01*
X94075628Y-91545000D01*
X94075628Y-89941789D01*
G37*
G36*
X93492376Y-89941789D02*
G01*
X93397854Y-89941789D01*
X93397854Y-91545000D01*
X93492376Y-91545000D01*
X93492376Y-89941789D01*
G37*
G36*
X92582195Y-90368866D02*
G01*
X92655439Y-90386138D01*
X92732686Y-90420842D01*
X92801098Y-90471219D01*
X92852704Y-90526873D01*
X92889750Y-90580822D01*
X92925917Y-90652882D01*
X92953042Y-90732927D01*
X92968739Y-90805731D01*
X92978158Y-90884081D01*
X92981297Y-90967976D01*
X92979305Y-91037167D01*
X92971212Y-91118359D01*
X92956894Y-91193666D01*
X92931495Y-91276266D01*
X92897131Y-91350390D01*
X92853803Y-91416039D01*
X92802158Y-91471818D01*
X92733604Y-91522308D01*
X92656109Y-91557090D01*
X92582569Y-91574400D01*
X92502459Y-91580170D01*
X92423011Y-91574374D01*
X92350080Y-91556986D01*
X92273232Y-91522049D01*
X92205254Y-91471335D01*
X92154047Y-91415307D01*
X92116895Y-91361109D01*
X92080625Y-91288397D01*
X92053423Y-91207313D01*
X92037681Y-91133348D01*
X92028235Y-91053569D01*
X92025087Y-90967976D01*
X92025120Y-90966877D01*
X92119975Y-90966877D01*
X92123594Y-91054547D01*
X92134452Y-91135107D01*
X92152549Y-91208557D01*
X92182810Y-91285263D01*
X92222923Y-91352292D01*
X92229384Y-91360970D01*
X92286274Y-91420475D01*
X92352414Y-91462350D01*
X92427805Y-91486593D01*
X92501360Y-91493342D01*
X92512347Y-91493204D01*
X92585166Y-91484526D01*
X92659630Y-91458080D01*
X92724751Y-91414001D01*
X92780530Y-91352292D01*
X92786796Y-91343442D01*
X92825089Y-91275722D01*
X92853635Y-91197904D01*
X92870344Y-91123165D01*
X92879893Y-91041008D01*
X92882379Y-90966877D01*
X92878760Y-90880765D01*
X92867902Y-90801583D01*
X92849806Y-90729331D01*
X92819544Y-90653794D01*
X92779431Y-90587690D01*
X92772993Y-90579012D01*
X92716258Y-90519506D01*
X92650226Y-90477632D01*
X92574898Y-90453389D01*
X92501360Y-90446639D01*
X92490419Y-90446778D01*
X92408090Y-90457884D01*
X92335012Y-90486758D01*
X92271184Y-90533400D01*
X92222923Y-90588789D01*
X92182810Y-90655467D01*
X92152549Y-90731121D01*
X92134452Y-90803112D01*
X92123594Y-90881697D01*
X92119975Y-90966877D01*
X92025120Y-90966877D01*
X92027102Y-90901154D01*
X92035288Y-90822377D01*
X92049771Y-90748877D01*
X92075462Y-90667643D01*
X92110221Y-90594008D01*
X92154047Y-90527972D01*
X92205254Y-90471944D01*
X92273232Y-90421229D01*
X92350080Y-90386292D01*
X92423011Y-90368904D01*
X92502459Y-90363108D01*
X92582195Y-90368866D01*
G37*
G36*
X91730530Y-90390952D02*
G01*
X91632711Y-90390952D01*
X91361601Y-91419337D01*
X91092690Y-90390952D01*
X90972156Y-90390952D01*
X90701413Y-91424466D01*
X90431402Y-90390952D01*
X90333583Y-90390952D01*
X90635467Y-91545000D01*
X90767358Y-91545000D01*
X91032972Y-90533101D01*
X91297854Y-91545000D01*
X91427547Y-91545000D01*
X91730530Y-90390952D01*
G37*
G36*
X89243283Y-90390952D02*
G01*
X89148394Y-90390952D01*
X89148394Y-91545000D01*
X89243283Y-91545000D01*
X89243283Y-90390952D01*
G37*
G36*
X89243283Y-89941789D02*
G01*
X89148394Y-89941789D01*
X89148394Y-90071482D01*
X89243283Y-90071482D01*
X89243283Y-89941789D01*
G37*
G36*
X87786252Y-90848541D02*
G01*
X87786252Y-91545000D01*
X87881140Y-91545000D01*
X87881140Y-90854769D01*
X87883678Y-90775102D01*
X87893052Y-90694008D01*
X87912223Y-90616957D01*
X87944574Y-90550200D01*
X87953314Y-90538230D01*
X88010943Y-90486084D01*
X88084589Y-90455584D01*
X88165439Y-90446639D01*
X88244368Y-90452822D01*
X88317389Y-90471369D01*
X88384502Y-90502281D01*
X88445708Y-90545558D01*
X88497159Y-90604771D01*
X88530120Y-90671685D01*
X88551826Y-90752694D01*
X88561473Y-90833348D01*
X88563311Y-90892871D01*
X88563311Y-91545000D01*
X88657833Y-91545000D01*
X88657833Y-90390952D01*
X88563311Y-90390952D01*
X88563311Y-90607473D01*
X88524786Y-90541029D01*
X88474167Y-90481876D01*
X88430321Y-90446639D01*
X88359873Y-90406261D01*
X88285369Y-90379097D01*
X88206808Y-90365148D01*
X88161409Y-90363108D01*
X88080191Y-90370390D01*
X88007628Y-90392234D01*
X87943720Y-90428642D01*
X87888468Y-90479612D01*
X87843748Y-90545947D01*
X87815100Y-90618153D01*
X87798330Y-90690564D01*
X87788748Y-90772687D01*
X87786252Y-90848541D01*
G37*
G36*
X86673970Y-90425024D02*
G01*
X86673970Y-90529071D01*
X86742839Y-90491988D01*
X86798900Y-90467156D01*
X86874211Y-90453889D01*
X86951852Y-90447601D01*
X86978053Y-90446639D01*
X87055035Y-90450692D01*
X87131239Y-90464941D01*
X87202995Y-90492805D01*
X87233775Y-90511486D01*
X87282361Y-90572945D01*
X87302351Y-90648954D01*
X87304849Y-90695034D01*
X87290118Y-90768751D01*
X87241930Y-90828926D01*
X87237805Y-90832055D01*
X87170020Y-90871463D01*
X87096984Y-90898481D01*
X87034839Y-90914487D01*
X86969993Y-90928775D01*
X86892919Y-90948765D01*
X86818144Y-90975687D01*
X86749880Y-91011107D01*
X86721598Y-91030990D01*
X86665256Y-91087993D01*
X86630733Y-91155732D01*
X86618283Y-91226629D01*
X86624351Y-91304069D01*
X86645683Y-91380570D01*
X86682375Y-91445826D01*
X86715369Y-91483084D01*
X86783218Y-91527536D01*
X86860217Y-91554836D01*
X86940477Y-91569294D01*
X87018843Y-91574682D01*
X87046929Y-91575041D01*
X87120796Y-91573324D01*
X87198744Y-91565957D01*
X87240736Y-91557456D01*
X87311842Y-91535828D01*
X87386033Y-91510693D01*
X87407798Y-91502868D01*
X87407798Y-91384166D01*
X87337881Y-91423228D01*
X87268969Y-91457599D01*
X87244766Y-91466598D01*
X87168636Y-91482895D01*
X87093022Y-91491671D01*
X87042899Y-91493342D01*
X86965001Y-91489037D01*
X86890393Y-91473903D01*
X86817940Y-91440609D01*
X86796702Y-91424466D01*
X86747810Y-91365853D01*
X86721483Y-91294979D01*
X86716468Y-91240917D01*
X86726707Y-91167958D01*
X86766667Y-91105572D01*
X86769958Y-91102798D01*
X86833926Y-91063124D01*
X86902364Y-91034591D01*
X86975362Y-91012197D01*
X87016154Y-91002048D01*
X87082100Y-90986660D01*
X87158436Y-90965292D01*
X87230407Y-90936384D01*
X87293954Y-90898304D01*
X87303750Y-90890673D01*
X87358191Y-90833631D01*
X87391808Y-90762516D01*
X87399371Y-90703094D01*
X87393849Y-90628645D01*
X87374014Y-90555538D01*
X87334456Y-90488565D01*
X87283967Y-90442609D01*
X87214907Y-90404179D01*
X87137560Y-90378325D01*
X87061848Y-90365903D01*
X87000767Y-90363108D01*
X86927203Y-90364326D01*
X86850936Y-90369735D01*
X86802930Y-90378496D01*
X86729669Y-90402414D01*
X86673970Y-90425024D01*
G37*
G36*
X86134316Y-90063422D02*
G01*
X86134316Y-90390952D01*
X85743771Y-90390952D01*
X85743771Y-90471186D01*
X86134316Y-90471186D01*
X86134316Y-91164713D01*
X86130988Y-91239417D01*
X86116714Y-91313426D01*
X86100244Y-91349361D01*
X86050248Y-91410219D01*
X85987730Y-91448537D01*
X85912690Y-91464315D01*
X85896179Y-91464766D01*
X85743771Y-91464766D01*
X85743771Y-91545000D01*
X85891050Y-91545000D01*
X85967058Y-91538479D01*
X86043694Y-91515939D01*
X86112101Y-91477299D01*
X86131018Y-91462568D01*
X86178835Y-91405680D01*
X86208202Y-91337450D01*
X86223754Y-91264113D01*
X86229840Y-91178047D01*
X86229937Y-91164713D01*
X86229937Y-90471186D01*
X86368056Y-90471186D01*
X86368056Y-90390952D01*
X86229937Y-90390952D01*
X86229937Y-90063422D01*
X86134316Y-90063422D01*
G37*
G36*
X84785362Y-90472285D02*
G01*
X84847278Y-90452868D01*
X84922852Y-90446737D01*
X84935938Y-90446639D01*
X85009696Y-90452845D01*
X85086994Y-90475136D01*
X85156826Y-90513639D01*
X85219194Y-90568353D01*
X85226465Y-90576332D01*
X85266215Y-90638317D01*
X85291681Y-90707993D01*
X85308450Y-90792079D01*
X85315904Y-90875623D01*
X85317323Y-90937201D01*
X85317323Y-91545000D01*
X85410013Y-91545000D01*
X85410013Y-90390952D01*
X85317323Y-90390952D01*
X85317323Y-90607473D01*
X85277224Y-90541803D01*
X85226717Y-90484375D01*
X85187264Y-90450669D01*
X85119103Y-90408343D01*
X85044451Y-90379868D01*
X84963307Y-90365246D01*
X84915422Y-90363108D01*
X84845446Y-90366039D01*
X84785362Y-90373367D01*
X84785362Y-90472285D01*
G37*
G36*
X84561147Y-91087411D02*
G01*
X84561147Y-90390952D01*
X84466259Y-90390952D01*
X84466259Y-91081182D01*
X84463735Y-91160738D01*
X84454408Y-91241767D01*
X84435334Y-91318829D01*
X84403147Y-91385708D01*
X84394452Y-91397721D01*
X84336780Y-91449867D01*
X84263004Y-91480368D01*
X84181960Y-91489312D01*
X84103032Y-91483130D01*
X84030011Y-91464583D01*
X83962897Y-91433671D01*
X83901692Y-91390394D01*
X83850401Y-91331180D01*
X83817542Y-91264266D01*
X83795904Y-91183258D01*
X83786287Y-91102603D01*
X83784455Y-91043080D01*
X83784455Y-90390952D01*
X83689567Y-90390952D01*
X83689567Y-91545000D01*
X83784455Y-91545000D01*
X83784455Y-91328478D01*
X83822772Y-91394922D01*
X83873261Y-91454076D01*
X83917079Y-91489312D01*
X83987526Y-91529691D01*
X84062031Y-91556855D01*
X84140592Y-91570804D01*
X84185990Y-91572843D01*
X84267232Y-91565562D01*
X84339863Y-91543717D01*
X84403886Y-91507310D01*
X84459298Y-91456339D01*
X84503857Y-91390005D01*
X84532403Y-91317799D01*
X84549113Y-91245388D01*
X84558661Y-91163265D01*
X84561147Y-91087411D01*
G37*
G36*
X82427808Y-90446639D02*
G01*
X82427808Y-90547390D01*
X82492505Y-90510385D01*
X82562147Y-90478782D01*
X82569225Y-90476315D01*
X82645587Y-90457101D01*
X82719288Y-90447683D01*
X82752407Y-90446639D01*
X82826921Y-90449761D01*
X82907224Y-90461748D01*
X82977583Y-90482725D01*
X83047101Y-90518561D01*
X83103086Y-90566634D01*
X83109979Y-90574501D01*
X83152091Y-90636959D01*
X83183860Y-90712776D01*
X83202858Y-90788394D01*
X83214256Y-90873827D01*
X83217950Y-90952519D01*
X83218056Y-90969075D01*
X83215417Y-91049666D01*
X83207502Y-91123370D01*
X83191037Y-91202724D01*
X83166973Y-91272160D01*
X83129293Y-91340634D01*
X83109979Y-91365847D01*
X83055928Y-91415526D01*
X82988343Y-91453002D01*
X82907224Y-91478277D01*
X82826921Y-91490229D01*
X82752407Y-91493342D01*
X82675610Y-91488351D01*
X82599779Y-91473378D01*
X82589741Y-91470628D01*
X82518715Y-91447366D01*
X82447970Y-91415410D01*
X82427808Y-91404682D01*
X82427808Y-91500669D01*
X82498283Y-91529541D01*
X82570582Y-91551399D01*
X82591573Y-91556357D01*
X82666165Y-91569129D01*
X82739916Y-91574749D01*
X82760833Y-91575041D01*
X82837511Y-91571687D01*
X82922793Y-91558807D01*
X83000734Y-91536267D01*
X83071334Y-91504067D01*
X83134592Y-91462207D01*
X83163468Y-91437655D01*
X83214266Y-91379210D01*
X83254555Y-91307189D01*
X83280100Y-91236802D01*
X83298347Y-91156987D01*
X83309295Y-91067745D01*
X83312798Y-90989563D01*
X83312944Y-90969075D01*
X83310609Y-90889379D01*
X83303602Y-90815706D01*
X83288275Y-90732082D01*
X83265649Y-90657868D01*
X83228864Y-90581232D01*
X83181568Y-90518146D01*
X83163468Y-90500129D01*
X83103881Y-90453563D01*
X83036952Y-90416632D01*
X82962682Y-90389335D01*
X82881070Y-90371672D01*
X82807451Y-90364313D01*
X82760833Y-90363108D01*
X82686742Y-90367666D01*
X82614427Y-90380062D01*
X82585711Y-90386922D01*
X82514759Y-90407736D01*
X82444461Y-90437612D01*
X82427808Y-90446639D01*
G37*
G36*
X81965090Y-90063422D02*
G01*
X81965090Y-90390952D01*
X81574546Y-90390952D01*
X81574546Y-90471186D01*
X81965090Y-90471186D01*
X81965090Y-91164713D01*
X81961763Y-91239417D01*
X81947489Y-91313426D01*
X81931018Y-91349361D01*
X81881022Y-91410219D01*
X81818504Y-91448537D01*
X81743464Y-91464315D01*
X81726953Y-91464766D01*
X81574546Y-91464766D01*
X81574546Y-91545000D01*
X81721824Y-91545000D01*
X81797832Y-91538479D01*
X81874468Y-91515939D01*
X81942875Y-91477299D01*
X81961793Y-91462568D01*
X82009610Y-91405680D01*
X82038976Y-91337450D01*
X82054529Y-91264113D01*
X82060615Y-91178047D01*
X82060711Y-91164713D01*
X82060711Y-90471186D01*
X82198831Y-90471186D01*
X82198831Y-90390952D01*
X82060711Y-90390952D01*
X82060711Y-90063422D01*
X81965090Y-90063422D01*
G37*
G36*
X81244818Y-90390952D02*
G01*
X81149930Y-90390952D01*
X81149930Y-91545000D01*
X81244818Y-91545000D01*
X81244818Y-90390952D01*
G37*
G36*
X81244818Y-89941789D02*
G01*
X81149930Y-89941789D01*
X81149930Y-90071482D01*
X81244818Y-90071482D01*
X81244818Y-89941789D01*
G37*
G36*
X80332439Y-90368866D02*
G01*
X80405684Y-90386138D01*
X80482931Y-90420842D01*
X80551342Y-90471219D01*
X80602948Y-90526873D01*
X80639994Y-90580822D01*
X80676161Y-90652882D01*
X80703286Y-90732927D01*
X80718984Y-90805731D01*
X80728402Y-90884081D01*
X80731542Y-90967976D01*
X80729550Y-91037167D01*
X80721457Y-91118359D01*
X80707138Y-91193666D01*
X80681739Y-91276266D01*
X80647375Y-91350390D01*
X80604047Y-91416039D01*
X80552402Y-91471818D01*
X80483848Y-91522308D01*
X80406353Y-91557090D01*
X80332813Y-91574400D01*
X80252704Y-91580170D01*
X80173256Y-91574374D01*
X80100325Y-91556986D01*
X80023476Y-91522049D01*
X79955498Y-91471335D01*
X79904291Y-91415307D01*
X79867140Y-91361109D01*
X79830870Y-91288397D01*
X79803667Y-91207313D01*
X79787925Y-91133348D01*
X79778479Y-91053569D01*
X79775331Y-90967976D01*
X79775364Y-90966877D01*
X79870219Y-90966877D01*
X79873839Y-91054547D01*
X79884696Y-91135107D01*
X79902793Y-91208557D01*
X79933054Y-91285263D01*
X79973168Y-91352292D01*
X79979628Y-91360970D01*
X80036518Y-91420475D01*
X80102658Y-91462350D01*
X80178049Y-91486593D01*
X80251605Y-91493342D01*
X80262591Y-91493204D01*
X80335410Y-91484526D01*
X80409874Y-91458080D01*
X80474995Y-91414001D01*
X80530774Y-91352292D01*
X80537040Y-91343442D01*
X80575333Y-91275722D01*
X80603879Y-91197904D01*
X80620588Y-91123165D01*
X80630137Y-91041008D01*
X80632623Y-90966877D01*
X80629004Y-90880765D01*
X80618146Y-90801583D01*
X80600050Y-90729331D01*
X80569789Y-90653794D01*
X80529675Y-90587690D01*
X80523237Y-90579012D01*
X80466502Y-90519506D01*
X80400470Y-90477632D01*
X80325142Y-90453389D01*
X80251605Y-90446639D01*
X80240663Y-90446778D01*
X80158334Y-90457884D01*
X80085256Y-90486758D01*
X80021428Y-90533400D01*
X79973168Y-90588789D01*
X79933054Y-90655467D01*
X79902793Y-90731121D01*
X79884696Y-90803112D01*
X79873839Y-90881697D01*
X79870219Y-90966877D01*
X79775364Y-90966877D01*
X79777346Y-90901154D01*
X79785532Y-90822377D01*
X79800015Y-90748877D01*
X79825706Y-90667643D01*
X79860465Y-90594008D01*
X79904291Y-90527972D01*
X79955498Y-90471944D01*
X80023476Y-90421229D01*
X80100325Y-90386292D01*
X80173256Y-90368904D01*
X80252704Y-90363108D01*
X80332439Y-90368866D01*
G37*
G36*
X78504047Y-90848541D02*
G01*
X78504047Y-91545000D01*
X78598935Y-91545000D01*
X78598935Y-90854769D01*
X78601473Y-90775102D01*
X78610847Y-90694008D01*
X78630018Y-90616957D01*
X78662369Y-90550200D01*
X78671109Y-90538230D01*
X78728737Y-90486084D01*
X78802383Y-90455584D01*
X78883234Y-90446639D01*
X78962163Y-90452822D01*
X79035184Y-90471369D01*
X79102297Y-90502281D01*
X79163503Y-90545558D01*
X79214954Y-90604771D01*
X79247915Y-90671685D01*
X79269621Y-90752694D01*
X79279268Y-90833348D01*
X79281106Y-90892871D01*
X79281106Y-91545000D01*
X79375628Y-91545000D01*
X79375628Y-90390952D01*
X79281106Y-90390952D01*
X79281106Y-90607473D01*
X79242580Y-90541029D01*
X79191962Y-90481876D01*
X79148115Y-90446639D01*
X79077668Y-90406261D01*
X79003164Y-90379097D01*
X78924602Y-90365148D01*
X78879204Y-90363108D01*
X78797986Y-90370390D01*
X78725423Y-90392234D01*
X78661515Y-90428642D01*
X78606263Y-90479612D01*
X78561543Y-90545947D01*
X78532895Y-90618153D01*
X78516125Y-90690564D01*
X78506542Y-90772687D01*
X78504047Y-90848541D01*
G37*
G36*
X77391765Y-90425024D02*
G01*
X77391765Y-90529071D01*
X77460634Y-90491988D01*
X77516695Y-90467156D01*
X77592006Y-90453889D01*
X77669647Y-90447601D01*
X77695847Y-90446639D01*
X77772830Y-90450692D01*
X77849034Y-90464941D01*
X77920790Y-90492805D01*
X77951570Y-90511486D01*
X78000156Y-90572945D01*
X78020146Y-90648954D01*
X78022644Y-90695034D01*
X78007913Y-90768751D01*
X77959724Y-90828926D01*
X77955600Y-90832055D01*
X77887814Y-90871463D01*
X77814778Y-90898481D01*
X77752634Y-90914487D01*
X77687787Y-90928775D01*
X77610713Y-90948765D01*
X77535939Y-90975687D01*
X77467675Y-91011107D01*
X77439392Y-91030990D01*
X77383051Y-91087993D01*
X77348528Y-91155732D01*
X77336078Y-91226629D01*
X77342146Y-91304069D01*
X77363478Y-91380570D01*
X77400170Y-91445826D01*
X77433164Y-91483084D01*
X77501013Y-91527536D01*
X77578012Y-91554836D01*
X77658272Y-91569294D01*
X77736638Y-91574682D01*
X77764724Y-91575041D01*
X77838591Y-91573324D01*
X77916539Y-91565957D01*
X77958531Y-91557456D01*
X78029637Y-91535828D01*
X78103828Y-91510693D01*
X78125593Y-91502868D01*
X78125593Y-91384166D01*
X78055676Y-91423228D01*
X77986764Y-91457599D01*
X77962561Y-91466598D01*
X77886431Y-91482895D01*
X77810817Y-91491671D01*
X77760694Y-91493342D01*
X77682796Y-91489037D01*
X77608188Y-91473903D01*
X77535735Y-91440609D01*
X77514497Y-91424466D01*
X77465605Y-91365853D01*
X77439278Y-91294979D01*
X77434263Y-91240917D01*
X77444501Y-91167958D01*
X77484462Y-91105572D01*
X77487752Y-91102798D01*
X77551721Y-91063124D01*
X77620159Y-91034591D01*
X77693157Y-91012197D01*
X77733949Y-91002048D01*
X77799895Y-90986660D01*
X77876231Y-90965292D01*
X77948202Y-90936384D01*
X78011749Y-90898304D01*
X78021545Y-90890673D01*
X78075986Y-90833631D01*
X78109603Y-90762516D01*
X78117166Y-90703094D01*
X78111644Y-90628645D01*
X78091809Y-90555538D01*
X78052251Y-90488565D01*
X78001762Y-90442609D01*
X77932702Y-90404179D01*
X77855355Y-90378325D01*
X77779643Y-90365903D01*
X77718562Y-90363108D01*
X77644998Y-90364326D01*
X77568731Y-90369735D01*
X77520725Y-90378496D01*
X77447464Y-90402414D01*
X77391765Y-90425024D01*
G37*
G36*
X75994572Y-90367134D02*
G01*
X76070863Y-90379213D01*
X76142096Y-90397180D01*
X76177314Y-90409159D01*
X76245881Y-90439684D01*
X76312822Y-90477414D01*
X76312822Y-90579630D01*
X76281027Y-90558256D01*
X76212453Y-90516594D01*
X76142096Y-90483642D01*
X76090714Y-90467453D01*
X76014670Y-90451843D01*
X75939863Y-90446639D01*
X75868955Y-90450117D01*
X75786752Y-90465573D01*
X75711133Y-90497741D01*
X75653367Y-90545558D01*
X75623609Y-90584571D01*
X75590518Y-90650288D01*
X75571278Y-90724641D01*
X75565806Y-90797983D01*
X75565806Y-90816667D01*
X75801011Y-90816667D01*
X75836918Y-90817090D01*
X75921099Y-90821839D01*
X75997302Y-90831866D01*
X76078215Y-90850864D01*
X76158091Y-90882633D01*
X76222330Y-90924745D01*
X76230242Y-90931502D01*
X76284492Y-90990658D01*
X76322669Y-91058882D01*
X76344771Y-91136173D01*
X76350924Y-91211242D01*
X76347447Y-91275384D01*
X76331991Y-91351450D01*
X76299823Y-91424106D01*
X76252006Y-91483084D01*
X76205240Y-91518915D01*
X76134861Y-91552052D01*
X76062618Y-91569294D01*
X75981263Y-91575041D01*
X75923238Y-91571042D01*
X75845512Y-91553268D01*
X75773900Y-91524483D01*
X75734289Y-91500721D01*
X75676157Y-91445772D01*
X75630589Y-91380599D01*
X75595465Y-91312039D01*
X75563974Y-91231758D01*
X75563974Y-91545000D01*
X75470184Y-91545000D01*
X75470184Y-90965045D01*
X75565806Y-90965045D01*
X75568149Y-91016071D01*
X75579304Y-91089311D01*
X75599645Y-91164655D01*
X75629172Y-91242102D01*
X75661793Y-91310160D01*
X75694406Y-91362932D01*
X75750012Y-91421787D01*
X75817224Y-91463110D01*
X75896041Y-91486902D01*
X75972836Y-91493342D01*
X76028066Y-91489358D01*
X76103697Y-91468441D01*
X76170673Y-91429595D01*
X76175812Y-91425524D01*
X76224756Y-91363107D01*
X76247597Y-91291967D01*
X76254204Y-91213073D01*
X76253318Y-91184402D01*
X76240036Y-91106307D01*
X76206584Y-91033471D01*
X76153454Y-90975303D01*
X76133371Y-90960703D01*
X76059636Y-90925518D01*
X75988302Y-90907087D01*
X75904731Y-90896476D01*
X75823360Y-90893604D01*
X75565806Y-90893604D01*
X75565806Y-90965045D01*
X75470184Y-90965045D01*
X75470184Y-90886643D01*
X75470296Y-90868462D01*
X75474203Y-90783066D01*
X75483691Y-90706847D01*
X75502445Y-90627498D01*
X75534481Y-90551626D01*
X75584490Y-90486939D01*
X75627468Y-90451265D01*
X75693558Y-90411480D01*
X75766555Y-90383545D01*
X75846459Y-90367462D01*
X75920446Y-90363108D01*
X75994572Y-90367134D01*
G37*
G36*
X74898656Y-90063422D02*
G01*
X74898656Y-90390952D01*
X74508112Y-90390952D01*
X74508112Y-90471186D01*
X74898656Y-90471186D01*
X74898656Y-91164713D01*
X74895329Y-91239417D01*
X74881055Y-91313426D01*
X74864584Y-91349361D01*
X74814588Y-91410219D01*
X74752070Y-91448537D01*
X74677030Y-91464315D01*
X74660519Y-91464766D01*
X74508112Y-91464766D01*
X74508112Y-91545000D01*
X74655390Y-91545000D01*
X74731398Y-91538479D01*
X74808034Y-91515939D01*
X74876441Y-91477299D01*
X74895359Y-91462568D01*
X74943176Y-91405680D01*
X74972542Y-91337450D01*
X74988095Y-91264113D01*
X74994181Y-91178047D01*
X74994277Y-91164713D01*
X74994277Y-90471186D01*
X75132397Y-90471186D01*
X75132397Y-90390952D01*
X74994277Y-90390952D01*
X74994277Y-90063422D01*
X74898656Y-90063422D01*
G37*
G36*
X98605391Y-92679638D02*
G01*
X98693893Y-92689153D01*
X98776545Y-92709241D01*
X98853347Y-92739900D01*
X98924300Y-92781132D01*
X98989403Y-92832937D01*
X99048656Y-92895314D01*
X99070350Y-92923047D01*
X99118463Y-92997427D01*
X99157827Y-93079017D01*
X99183020Y-93149479D01*
X99202615Y-93224555D01*
X99216611Y-93304245D01*
X99225009Y-93388549D01*
X99227808Y-93477466D01*
X99227108Y-93522455D01*
X99221510Y-93608963D01*
X99210313Y-93690845D01*
X99193517Y-93768102D01*
X99171123Y-93840734D01*
X99143131Y-93908740D01*
X99100267Y-93987244D01*
X99048656Y-94058520D01*
X99025657Y-94084739D01*
X98964064Y-94142887D01*
X98896621Y-94190463D01*
X98823328Y-94227466D01*
X98744186Y-94253897D01*
X98659194Y-94269755D01*
X98568353Y-94275041D01*
X98531494Y-94274191D01*
X98443418Y-94264628D01*
X98361156Y-94244439D01*
X98284708Y-94213623D01*
X98214074Y-94172182D01*
X98149254Y-94120114D01*
X98090247Y-94057421D01*
X98068553Y-94029782D01*
X98020441Y-93955663D01*
X97981076Y-93874371D01*
X97955883Y-93804172D01*
X97936288Y-93729382D01*
X97922292Y-93650001D01*
X97913894Y-93566029D01*
X97911095Y-93477466D01*
X98020272Y-93477466D01*
X98021566Y-93538217D01*
X98027319Y-93615451D01*
X98040983Y-93705940D01*
X98061838Y-93789703D01*
X98089884Y-93866740D01*
X98125121Y-93937050D01*
X98167550Y-94000635D01*
X98196285Y-94035073D01*
X98259243Y-94093789D01*
X98329516Y-94138955D01*
X98407105Y-94170571D01*
X98492010Y-94188637D01*
X98568353Y-94193342D01*
X98629850Y-94190331D01*
X98702198Y-94178099D01*
X98782381Y-94150999D01*
X98855324Y-94110350D01*
X98921029Y-94056151D01*
X98970254Y-94000635D01*
X99005030Y-93950305D01*
X99041980Y-93881340D01*
X99071684Y-93805649D01*
X99094144Y-93723231D01*
X99109358Y-93634087D01*
X99116313Y-93557929D01*
X99118632Y-93477466D01*
X99117328Y-93416257D01*
X99111532Y-93338482D01*
X99097766Y-93247430D01*
X99076756Y-93163228D01*
X99048500Y-93085879D01*
X99013000Y-93015380D01*
X98970254Y-92951734D01*
X98941323Y-92917295D01*
X98878030Y-92858579D01*
X98807499Y-92813413D01*
X98729730Y-92781797D01*
X98644722Y-92763731D01*
X98568353Y-92759026D01*
X98506872Y-92762037D01*
X98434594Y-92774269D01*
X98354566Y-92801369D01*
X98281854Y-92842018D01*
X98216458Y-92896217D01*
X98167550Y-92951734D01*
X98133032Y-93002103D01*
X98096356Y-93071231D01*
X98066871Y-93147210D01*
X98044578Y-93230041D01*
X98029477Y-93319724D01*
X98022573Y-93396403D01*
X98020272Y-93477466D01*
X97911095Y-93477466D01*
X97911795Y-93432431D01*
X97917393Y-93345820D01*
X97928590Y-93263823D01*
X97945386Y-93186440D01*
X97967780Y-93113671D01*
X97995772Y-93045516D01*
X98038636Y-92966810D01*
X98090247Y-92895314D01*
X98113152Y-92869094D01*
X98174484Y-92810946D01*
X98241630Y-92763371D01*
X98314590Y-92726368D01*
X98393364Y-92699937D01*
X98477951Y-92684078D01*
X98568353Y-92678792D01*
X98605391Y-92679638D01*
G37*
G36*
X97612875Y-93090952D02*
G01*
X97515055Y-93090952D01*
X97243946Y-94119337D01*
X96975034Y-93090952D01*
X96854501Y-93090952D01*
X96583757Y-94124466D01*
X96313747Y-93090952D01*
X96215928Y-93090952D01*
X96517812Y-94245000D01*
X96649703Y-94245000D01*
X96915317Y-93233101D01*
X97180198Y-94245000D01*
X97309891Y-94245000D01*
X97612875Y-93090952D01*
G37*
G36*
X95377404Y-93063724D02*
G01*
X95462751Y-93072954D01*
X95540551Y-93093262D01*
X95610803Y-93124646D01*
X95673507Y-93167107D01*
X95728663Y-93220645D01*
X95736890Y-93230277D01*
X95780768Y-93294489D01*
X95815244Y-93369699D01*
X95836791Y-93440777D01*
X95851808Y-93519493D01*
X95860297Y-93605848D01*
X95862386Y-93680432D01*
X95860102Y-93752383D01*
X95850823Y-93836026D01*
X95834406Y-93912674D01*
X95805285Y-93995420D01*
X95765885Y-94068093D01*
X95716207Y-94130694D01*
X95680435Y-94164525D01*
X95619027Y-94206815D01*
X95548320Y-94238954D01*
X95468314Y-94260945D01*
X95394539Y-94271517D01*
X95314305Y-94275041D01*
X95293645Y-94274487D01*
X95218678Y-94266168D01*
X95144678Y-94252327D01*
X95078089Y-94236127D01*
X95005997Y-94213678D01*
X94935118Y-94186381D01*
X94935118Y-94086364D01*
X94998495Y-94117183D01*
X95068622Y-94145050D01*
X95139183Y-94166598D01*
X95151758Y-94169836D01*
X95225892Y-94185794D01*
X95302948Y-94193342D01*
X95373834Y-94190328D01*
X95451389Y-94178753D01*
X95531516Y-94154277D01*
X95600494Y-94117985D01*
X95658321Y-94069877D01*
X95664993Y-94062754D01*
X95710743Y-93994043D01*
X95739654Y-93916829D01*
X95756175Y-93837947D01*
X95764117Y-93763259D01*
X95766765Y-93680432D01*
X94890788Y-93680432D01*
X94890788Y-93620715D01*
X94891088Y-93599832D01*
X94986775Y-93599832D01*
X95762735Y-93599832D01*
X95755911Y-93538741D01*
X95740696Y-93456378D01*
X95715391Y-93374352D01*
X95681952Y-93307473D01*
X95633775Y-93249588D01*
X95572042Y-93204548D01*
X95503349Y-93172377D01*
X95427695Y-93153074D01*
X95345080Y-93146639D01*
X95297460Y-93149054D01*
X95219858Y-93165573D01*
X95152688Y-93197741D01*
X95095952Y-93245558D01*
X95058849Y-93291947D01*
X95025264Y-93357756D01*
X95002128Y-93436153D01*
X94990614Y-93513369D01*
X94986775Y-93599832D01*
X94891088Y-93599832D01*
X94891235Y-93589625D01*
X94896258Y-93515158D01*
X94909653Y-93431936D01*
X94931085Y-93355411D01*
X94960555Y-93285584D01*
X95005094Y-93212585D01*
X95052286Y-93161786D01*
X95117241Y-93115805D01*
X95192855Y-93084129D01*
X95266151Y-93068363D01*
X95347278Y-93063108D01*
X95377404Y-93063724D01*
G37*
G36*
X93627564Y-93548541D02*
G01*
X93627564Y-94245000D01*
X93722452Y-94245000D01*
X93722452Y-93554769D01*
X93724990Y-93475102D01*
X93734364Y-93394008D01*
X93753535Y-93316957D01*
X93785886Y-93250200D01*
X93794626Y-93238230D01*
X93852254Y-93186084D01*
X93925900Y-93155584D01*
X94006751Y-93146639D01*
X94085680Y-93152822D01*
X94158701Y-93171369D01*
X94225814Y-93202281D01*
X94287020Y-93245558D01*
X94338471Y-93304771D01*
X94371432Y-93371685D01*
X94393138Y-93452694D01*
X94402785Y-93533348D01*
X94404623Y-93592871D01*
X94404623Y-94245000D01*
X94499145Y-94245000D01*
X94499145Y-93090952D01*
X94404623Y-93090952D01*
X94404623Y-93307473D01*
X94366098Y-93241029D01*
X94315479Y-93181876D01*
X94271632Y-93146639D01*
X94201185Y-93106261D01*
X94126681Y-93079097D01*
X94048119Y-93065148D01*
X94002721Y-93063108D01*
X93921503Y-93070390D01*
X93848940Y-93092234D01*
X93785032Y-93128642D01*
X93729780Y-93179612D01*
X93685060Y-93245947D01*
X93656412Y-93318153D01*
X93639642Y-93390564D01*
X93630060Y-93472687D01*
X93627564Y-93548541D01*
G37*
G36*
X93147993Y-94245000D02*
G01*
X92648272Y-94245000D01*
X92579055Y-94242263D01*
X92502771Y-94231752D01*
X92423117Y-94209528D01*
X92353526Y-94176575D01*
X92293998Y-94132892D01*
X92264718Y-94103308D01*
X92217869Y-94035348D01*
X92189686Y-93966265D01*
X92173460Y-93888206D01*
X92169372Y-93819284D01*
X92273115Y-93819284D01*
X92275432Y-93871563D01*
X92288776Y-93945980D01*
X92317965Y-94016125D01*
X92368004Y-94077205D01*
X92421745Y-94114070D01*
X92497257Y-94142953D01*
X92577760Y-94157436D01*
X92658531Y-94161468D01*
X93045045Y-94161468D01*
X93045045Y-93478199D01*
X92658531Y-93478199D01*
X92588708Y-93481136D01*
X92506631Y-93494187D01*
X92429348Y-93521351D01*
X92368004Y-93561730D01*
X92340668Y-93589753D01*
X92299895Y-93659377D01*
X92279046Y-93737516D01*
X92273115Y-93819284D01*
X92169372Y-93819284D01*
X92169068Y-93814155D01*
X92170247Y-93775847D01*
X92181524Y-93695515D01*
X92204740Y-93623297D01*
X92244539Y-93552571D01*
X92253133Y-93541076D01*
X92309659Y-93486042D01*
X92374646Y-93448031D01*
X92444207Y-93423611D01*
X92405416Y-93408103D01*
X92340166Y-93365908D01*
X92287770Y-93311503D01*
X92284141Y-93306781D01*
X92249580Y-93238560D01*
X92233451Y-93165416D01*
X92229025Y-93090952D01*
X92333932Y-93090952D01*
X92334271Y-93109964D01*
X92344192Y-93187763D01*
X92371326Y-93259318D01*
X92420760Y-93319930D01*
X92462935Y-93348766D01*
X92538269Y-93377674D01*
X92611312Y-93390394D01*
X92684542Y-93393935D01*
X93045045Y-93393935D01*
X93045045Y-92791266D01*
X92684542Y-92791266D01*
X92631348Y-92793100D01*
X92555465Y-92803661D01*
X92483672Y-92826765D01*
X92420760Y-92866371D01*
X92410246Y-92875835D01*
X92364542Y-92938784D01*
X92340800Y-93012014D01*
X92333932Y-93090952D01*
X92229025Y-93090952D01*
X92228785Y-93086922D01*
X92228897Y-93075601D01*
X92235952Y-93000918D01*
X92257453Y-92925355D01*
X92293288Y-92860234D01*
X92343457Y-92805554D01*
X92373545Y-92782370D01*
X92442788Y-92745276D01*
X92513293Y-92722961D01*
X92593054Y-92710114D01*
X92668789Y-92706636D01*
X93147993Y-92706636D01*
X93147993Y-94245000D01*
G37*
G36*
X91167428Y-93172285D02*
G01*
X91229344Y-93152868D01*
X91304918Y-93146737D01*
X91318004Y-93146639D01*
X91391762Y-93152845D01*
X91469059Y-93175136D01*
X91538892Y-93213639D01*
X91601259Y-93268353D01*
X91608531Y-93276332D01*
X91648281Y-93338317D01*
X91673746Y-93407993D01*
X91690516Y-93492079D01*
X91697969Y-93575623D01*
X91699389Y-93637201D01*
X91699389Y-94245000D01*
X91792079Y-94245000D01*
X91792079Y-93090952D01*
X91699389Y-93090952D01*
X91699389Y-93307473D01*
X91659289Y-93241803D01*
X91608782Y-93184375D01*
X91569330Y-93150669D01*
X91501169Y-93108343D01*
X91426516Y-93079868D01*
X91345372Y-93065246D01*
X91297487Y-93063108D01*
X91227512Y-93066039D01*
X91167428Y-93073367D01*
X91167428Y-93172285D01*
G37*
G36*
X90640350Y-93067134D02*
G01*
X90716641Y-93079213D01*
X90787875Y-93097180D01*
X90823092Y-93109159D01*
X90891659Y-93139684D01*
X90958600Y-93177414D01*
X90958600Y-93279630D01*
X90926805Y-93258256D01*
X90858232Y-93216594D01*
X90787875Y-93183642D01*
X90736492Y-93167453D01*
X90660449Y-93151843D01*
X90585642Y-93146639D01*
X90514733Y-93150117D01*
X90432530Y-93165573D01*
X90356911Y-93197741D01*
X90299145Y-93245558D01*
X90269388Y-93284571D01*
X90236296Y-93350288D01*
X90217056Y-93424641D01*
X90211584Y-93497983D01*
X90211584Y-93516667D01*
X90446789Y-93516667D01*
X90482696Y-93517090D01*
X90566878Y-93521839D01*
X90643081Y-93531866D01*
X90723993Y-93550864D01*
X90803869Y-93582633D01*
X90868108Y-93624745D01*
X90876020Y-93631502D01*
X90930270Y-93690658D01*
X90968447Y-93758882D01*
X90990549Y-93836173D01*
X90996702Y-93911242D01*
X90993225Y-93975384D01*
X90977769Y-94051450D01*
X90945601Y-94124106D01*
X90897784Y-94183084D01*
X90851018Y-94218915D01*
X90780639Y-94252052D01*
X90708396Y-94269294D01*
X90627041Y-94275041D01*
X90569016Y-94271042D01*
X90491290Y-94253268D01*
X90419678Y-94224483D01*
X90380067Y-94200721D01*
X90321935Y-94145772D01*
X90276367Y-94080599D01*
X90241243Y-94012039D01*
X90209752Y-93931758D01*
X90209752Y-94245000D01*
X90115963Y-94245000D01*
X90115963Y-93665045D01*
X90211584Y-93665045D01*
X90213927Y-93716071D01*
X90225082Y-93789311D01*
X90245423Y-93864655D01*
X90274950Y-93942102D01*
X90307571Y-94010160D01*
X90340184Y-94062932D01*
X90395790Y-94121787D01*
X90463002Y-94163110D01*
X90541819Y-94186902D01*
X90618614Y-94193342D01*
X90673844Y-94189358D01*
X90749475Y-94168441D01*
X90816451Y-94129595D01*
X90821590Y-94125524D01*
X90870534Y-94063107D01*
X90893375Y-93991967D01*
X90899982Y-93913073D01*
X90899097Y-93884402D01*
X90885814Y-93806307D01*
X90852362Y-93733471D01*
X90799232Y-93675303D01*
X90779149Y-93660703D01*
X90705414Y-93625518D01*
X90634080Y-93607087D01*
X90550509Y-93596476D01*
X90469138Y-93593604D01*
X90211584Y-93593604D01*
X90211584Y-93665045D01*
X90115963Y-93665045D01*
X90115963Y-93586643D01*
X90116074Y-93568462D01*
X90119981Y-93483066D01*
X90129469Y-93406847D01*
X90148223Y-93327498D01*
X90180259Y-93251626D01*
X90230268Y-93186939D01*
X90273246Y-93151265D01*
X90339336Y-93111480D01*
X90412333Y-93083545D01*
X90492237Y-93067462D01*
X90566224Y-93063108D01*
X90640350Y-93067134D01*
G37*
G36*
X89548464Y-92641789D02*
G01*
X89452477Y-92641789D01*
X89452477Y-93615586D01*
X88878750Y-93090952D01*
X88748691Y-93090952D01*
X89345498Y-93636102D01*
X88729274Y-94245000D01*
X88852006Y-94245000D01*
X89452477Y-93653688D01*
X89452477Y-94245000D01*
X89548464Y-94245000D01*
X89548464Y-92641789D01*
G37*
G36*
X88091152Y-93063724D02*
G01*
X88176499Y-93072954D01*
X88254298Y-93093262D01*
X88324550Y-93124646D01*
X88387254Y-93167107D01*
X88442411Y-93220645D01*
X88450638Y-93230277D01*
X88494515Y-93294489D01*
X88528991Y-93369699D01*
X88550538Y-93440777D01*
X88565556Y-93519493D01*
X88574044Y-93605848D01*
X88576133Y-93680432D01*
X88573849Y-93752383D01*
X88564570Y-93836026D01*
X88548154Y-93912674D01*
X88519032Y-93995420D01*
X88479632Y-94068093D01*
X88429954Y-94130694D01*
X88394182Y-94164525D01*
X88332775Y-94206815D01*
X88262068Y-94238954D01*
X88182061Y-94260945D01*
X88108286Y-94271517D01*
X88028053Y-94275041D01*
X88007393Y-94274487D01*
X87932426Y-94266168D01*
X87858426Y-94252327D01*
X87791836Y-94236127D01*
X87719745Y-94213678D01*
X87648866Y-94186381D01*
X87648866Y-94086364D01*
X87712242Y-94117183D01*
X87782370Y-94145050D01*
X87852930Y-94166598D01*
X87865506Y-94169836D01*
X87939640Y-94185794D01*
X88016695Y-94193342D01*
X88087582Y-94190328D01*
X88165136Y-94178753D01*
X88245264Y-94154277D01*
X88314241Y-94117985D01*
X88372069Y-94069877D01*
X88378740Y-94062754D01*
X88424490Y-93994043D01*
X88453401Y-93916829D01*
X88469922Y-93837947D01*
X88477865Y-93763259D01*
X88480512Y-93680432D01*
X87604535Y-93680432D01*
X87604535Y-93620715D01*
X87604835Y-93599832D01*
X87700523Y-93599832D01*
X88476482Y-93599832D01*
X88469659Y-93538741D01*
X88454443Y-93456378D01*
X88429138Y-93374352D01*
X88395699Y-93307473D01*
X88347522Y-93249588D01*
X88285790Y-93204548D01*
X88217096Y-93172377D01*
X88141442Y-93153074D01*
X88058827Y-93146639D01*
X88011207Y-93149054D01*
X87933605Y-93165573D01*
X87866436Y-93197741D01*
X87809699Y-93245558D01*
X87772596Y-93291947D01*
X87739012Y-93357756D01*
X87715876Y-93436153D01*
X87704361Y-93513369D01*
X87700523Y-93599832D01*
X87604835Y-93599832D01*
X87604982Y-93589625D01*
X87610005Y-93515158D01*
X87623400Y-93431936D01*
X87644833Y-93355411D01*
X87674302Y-93285584D01*
X87718841Y-93212585D01*
X87766033Y-93161786D01*
X87830989Y-93115805D01*
X87906603Y-93084129D01*
X87979899Y-93068363D01*
X88061025Y-93063108D01*
X88091152Y-93063724D01*
G37*
G36*
X87169661Y-94115307D02*
G01*
X87064515Y-94115307D01*
X87064515Y-94245000D01*
X87169661Y-94245000D01*
X87169661Y-94115307D01*
G37*
G36*
X85755861Y-93146639D02*
G01*
X85755861Y-93247390D01*
X85820558Y-93210385D01*
X85890200Y-93178782D01*
X85897278Y-93176315D01*
X85973640Y-93157101D01*
X86047341Y-93147683D01*
X86080460Y-93146639D01*
X86154974Y-93149761D01*
X86235277Y-93161748D01*
X86305636Y-93182725D01*
X86375154Y-93218561D01*
X86431139Y-93266634D01*
X86438032Y-93274501D01*
X86480144Y-93336959D01*
X86511913Y-93412776D01*
X86530911Y-93488394D01*
X86542309Y-93573827D01*
X86546004Y-93652519D01*
X86546109Y-93669075D01*
X86543470Y-93749666D01*
X86535555Y-93823370D01*
X86519090Y-93902724D01*
X86495026Y-93972160D01*
X86457346Y-94040634D01*
X86438032Y-94065847D01*
X86383981Y-94115526D01*
X86316396Y-94153002D01*
X86235277Y-94178277D01*
X86154974Y-94190229D01*
X86080460Y-94193342D01*
X86003663Y-94188351D01*
X85927832Y-94173378D01*
X85917794Y-94170628D01*
X85846768Y-94147366D01*
X85776023Y-94115410D01*
X85755861Y-94104682D01*
X85755861Y-94200669D01*
X85826336Y-94229541D01*
X85898635Y-94251399D01*
X85919626Y-94256357D01*
X85994218Y-94269129D01*
X86067969Y-94274749D01*
X86088886Y-94275041D01*
X86165564Y-94271687D01*
X86250846Y-94258807D01*
X86328787Y-94236267D01*
X86399387Y-94204067D01*
X86462645Y-94162207D01*
X86491521Y-94137655D01*
X86542319Y-94079210D01*
X86582608Y-94007189D01*
X86608153Y-93936802D01*
X86626400Y-93856987D01*
X86637348Y-93767745D01*
X86640851Y-93689563D01*
X86640997Y-93669075D01*
X86638662Y-93589379D01*
X86631655Y-93515706D01*
X86616328Y-93432082D01*
X86593702Y-93357868D01*
X86556917Y-93281232D01*
X86509621Y-93218146D01*
X86491521Y-93200129D01*
X86431934Y-93153563D01*
X86365005Y-93116632D01*
X86290735Y-93089335D01*
X86209123Y-93071672D01*
X86135505Y-93064313D01*
X86088886Y-93063108D01*
X86014795Y-93067666D01*
X85942480Y-93080062D01*
X85913764Y-93086922D01*
X85842812Y-93107736D01*
X85772514Y-93137612D01*
X85755861Y-93146639D01*
G37*
G36*
X85065866Y-93068866D02*
G01*
X85139110Y-93086138D01*
X85216357Y-93120842D01*
X85284768Y-93171219D01*
X85336374Y-93226873D01*
X85373420Y-93280822D01*
X85409587Y-93352882D01*
X85436713Y-93432927D01*
X85452410Y-93505731D01*
X85461829Y-93584081D01*
X85464968Y-93667976D01*
X85462976Y-93737167D01*
X85454883Y-93818359D01*
X85440565Y-93893666D01*
X85415165Y-93976266D01*
X85380802Y-94050390D01*
X85337473Y-94116039D01*
X85285829Y-94171818D01*
X85217275Y-94222308D01*
X85139780Y-94257090D01*
X85066239Y-94274400D01*
X84986130Y-94280170D01*
X84906682Y-94274374D01*
X84833751Y-94256986D01*
X84756902Y-94222049D01*
X84688924Y-94171335D01*
X84637718Y-94115307D01*
X84600566Y-94061109D01*
X84564296Y-93988397D01*
X84537093Y-93907313D01*
X84521351Y-93833348D01*
X84511906Y-93753569D01*
X84508757Y-93667976D01*
X84508790Y-93666877D01*
X84603646Y-93666877D01*
X84607265Y-93754547D01*
X84618123Y-93835107D01*
X84636219Y-93908557D01*
X84666480Y-93985263D01*
X84706594Y-94052292D01*
X84713055Y-94060970D01*
X84769944Y-94120475D01*
X84836085Y-94162350D01*
X84911475Y-94186593D01*
X84985031Y-94193342D01*
X84996018Y-94193204D01*
X85068837Y-94184526D01*
X85143300Y-94158080D01*
X85208422Y-94114001D01*
X85264200Y-94052292D01*
X85270467Y-94043442D01*
X85308760Y-93975722D01*
X85337305Y-93897904D01*
X85354015Y-93823165D01*
X85363563Y-93741008D01*
X85366050Y-93666877D01*
X85362430Y-93580765D01*
X85351573Y-93501583D01*
X85333476Y-93429331D01*
X85303215Y-93353794D01*
X85263101Y-93287690D01*
X85256663Y-93279012D01*
X85199928Y-93219506D01*
X85133897Y-93177632D01*
X85058569Y-93153389D01*
X84985031Y-93146639D01*
X84974089Y-93146778D01*
X84891760Y-93157884D01*
X84818682Y-93186758D01*
X84754855Y-93233400D01*
X84706594Y-93288789D01*
X84666480Y-93355467D01*
X84636219Y-93431121D01*
X84618123Y-93503112D01*
X84607265Y-93581697D01*
X84603646Y-93666877D01*
X84508790Y-93666877D01*
X84510772Y-93601154D01*
X84518958Y-93522377D01*
X84533441Y-93448877D01*
X84559132Y-93367643D01*
X84593891Y-93294008D01*
X84637718Y-93227972D01*
X84688924Y-93171944D01*
X84756902Y-93121229D01*
X84833751Y-93086292D01*
X84906682Y-93068904D01*
X84986130Y-93063108D01*
X85065866Y-93068866D01*
G37*
G36*
X83278872Y-93342278D02*
G01*
X83243710Y-93269506D01*
X83198810Y-93207399D01*
X83144174Y-93155956D01*
X83109612Y-93131985D01*
X83037370Y-93095663D01*
X82965499Y-93074476D01*
X82887137Y-93064185D01*
X82850226Y-93063108D01*
X82770251Y-93071513D01*
X82699724Y-93096725D01*
X82638643Y-93138746D01*
X82608792Y-93169354D01*
X82568721Y-93232483D01*
X82543051Y-93305039D01*
X82528024Y-93380095D01*
X82519437Y-93467027D01*
X82517201Y-93548541D01*
X82517201Y-94245000D01*
X82610990Y-94245000D01*
X82610990Y-93554769D01*
X82613309Y-93470504D01*
X82620264Y-93397135D01*
X82636750Y-93316260D01*
X82665151Y-93248431D01*
X82676936Y-93231270D01*
X82732475Y-93179698D01*
X82806362Y-93150689D01*
X82852058Y-93146639D01*
X82929063Y-93152753D01*
X83001443Y-93171094D01*
X83069198Y-93201663D01*
X83132327Y-93244459D01*
X83184146Y-93297445D01*
X83223238Y-93363440D01*
X83249602Y-93442442D01*
X83262070Y-93520512D01*
X83265317Y-93592871D01*
X83265317Y-94245000D01*
X83360205Y-94245000D01*
X83360205Y-93554769D01*
X83362459Y-93473213D01*
X83370787Y-93390697D01*
X83387817Y-93313050D01*
X83420375Y-93240980D01*
X83424319Y-93235300D01*
X83479085Y-93181272D01*
X83547761Y-93152181D01*
X83601273Y-93146639D01*
X83678278Y-93152822D01*
X83750658Y-93171369D01*
X83818413Y-93202281D01*
X83881542Y-93245558D01*
X83933361Y-93298492D01*
X83972453Y-93364328D01*
X83998817Y-93443068D01*
X84011285Y-93520829D01*
X84014532Y-93592871D01*
X84014532Y-94245000D01*
X84109054Y-94245000D01*
X84109054Y-93090952D01*
X84014532Y-93090952D01*
X84014532Y-93307473D01*
X83977495Y-93241141D01*
X83929581Y-93184112D01*
X83870791Y-93136384D01*
X83857728Y-93127955D01*
X83786108Y-93093758D01*
X83713513Y-93073811D01*
X83633210Y-93064122D01*
X83595045Y-93063108D01*
X83520238Y-93072691D01*
X83447492Y-93101439D01*
X83400139Y-93131252D01*
X83349426Y-93185485D01*
X83311967Y-93253506D01*
X83285142Y-93322863D01*
X83278872Y-93342278D01*
G37*
G36*
X81733548Y-92706636D02*
G01*
X81624371Y-92706636D01*
X82160362Y-94440638D01*
X82269539Y-94440638D01*
X81733548Y-92706636D01*
G37*
G36*
X81355094Y-94245000D02*
G01*
X81262404Y-94245000D01*
X81262404Y-93983415D01*
X81254252Y-94001822D01*
X81220730Y-94068066D01*
X81176766Y-94134254D01*
X81120987Y-94189312D01*
X81113741Y-94194586D01*
X81049653Y-94234521D01*
X80980824Y-94262986D01*
X80901535Y-94275041D01*
X80827157Y-94269168D01*
X80746504Y-94247470D01*
X80672443Y-94209783D01*
X80614208Y-94164754D01*
X80560816Y-94107979D01*
X80521553Y-94053214D01*
X80483223Y-93980743D01*
X80454474Y-93900904D01*
X80437838Y-93828744D01*
X80427856Y-93751467D01*
X80424528Y-93669075D01*
X80524546Y-93669075D01*
X80525012Y-93703618D01*
X80530261Y-93784477D01*
X80541341Y-93857483D01*
X80562336Y-93934725D01*
X80597443Y-94010547D01*
X80643981Y-94070976D01*
X80688958Y-94111939D01*
X80750369Y-94153373D01*
X80821428Y-94181976D01*
X80894574Y-94191510D01*
X80942475Y-94187273D01*
X81013118Y-94165026D01*
X81082313Y-94123710D01*
X81142602Y-94070976D01*
X81163816Y-94046963D01*
X81205199Y-93979936D01*
X81231629Y-93910234D01*
X81249712Y-93829223D01*
X81258406Y-93753076D01*
X81261304Y-93669075D01*
X81260841Y-93634532D01*
X81255624Y-93553673D01*
X81244612Y-93480666D01*
X81223746Y-93403425D01*
X81188854Y-93327603D01*
X81142602Y-93267173D01*
X81105055Y-93232449D01*
X81044050Y-93189132D01*
X80974051Y-93158410D01*
X80894574Y-93146639D01*
X80845578Y-93150877D01*
X80773824Y-93173124D01*
X80704156Y-93214440D01*
X80643981Y-93267173D01*
X80622636Y-93291187D01*
X80580997Y-93358213D01*
X80554405Y-93427916D01*
X80536209Y-93508926D01*
X80527462Y-93585074D01*
X80524546Y-93669075D01*
X80424528Y-93669075D01*
X80426658Y-93602671D01*
X80435309Y-93524304D01*
X80450615Y-93451088D01*
X80477766Y-93370030D01*
X80514500Y-93296391D01*
X80560816Y-93230170D01*
X80614208Y-93173395D01*
X80672443Y-93128367D01*
X80746504Y-93090680D01*
X80827157Y-93068982D01*
X80901535Y-93063108D01*
X80914499Y-93063442D01*
X80987594Y-93077197D01*
X81056674Y-93107207D01*
X81120987Y-93148471D01*
X81139946Y-93163876D01*
X81190195Y-93221528D01*
X81229248Y-93285377D01*
X81262404Y-93354734D01*
X81262404Y-92641789D01*
X81355094Y-92641789D01*
X81355094Y-94245000D01*
G37*
G36*
X80027023Y-93090952D02*
G01*
X79932135Y-93090952D01*
X79932135Y-94245000D01*
X80027023Y-94245000D01*
X80027023Y-93090952D01*
G37*
G36*
X80027023Y-92641789D02*
G01*
X79932135Y-92641789D01*
X79932135Y-92771482D01*
X80027023Y-92771482D01*
X80027023Y-92641789D01*
G37*
G36*
X79564305Y-93090952D02*
G01*
X78663782Y-93090952D01*
X78663782Y-93200129D01*
X79498360Y-94164766D01*
X78663782Y-94164766D01*
X78663782Y-94245000D01*
X79589951Y-94245000D01*
X79589951Y-94139853D01*
X78756472Y-93172285D01*
X79564305Y-93172285D01*
X79564305Y-93090952D01*
G37*
G36*
X99086758Y-88960369D02*
G01*
X98746772Y-88960369D01*
X98746772Y-87601524D01*
X99168091Y-87770418D01*
X99168091Y-87675530D01*
X98748604Y-87506636D01*
X98643824Y-87506636D01*
X98643824Y-88960369D01*
X98303471Y-88960369D01*
X98303471Y-89045000D01*
X99086758Y-89045000D01*
X99086758Y-88960369D01*
G37*
G36*
X97782501Y-88915307D02*
G01*
X97677355Y-88915307D01*
X97677355Y-89045000D01*
X97782501Y-89045000D01*
X97782501Y-88915307D01*
G37*
G36*
X96473848Y-89045000D02*
G01*
X96370900Y-89045000D01*
X96370900Y-88383346D01*
X96054361Y-88383346D01*
X95998674Y-88381611D01*
X95921668Y-88372505D01*
X95841727Y-88352016D01*
X95772444Y-88320903D01*
X95706315Y-88272337D01*
X95678752Y-88242851D01*
X95634651Y-88174020D01*
X95608121Y-88103011D01*
X95592846Y-88021940D01*
X95588712Y-87944441D01*
X95693859Y-87944441D01*
X95697194Y-88005806D01*
X95712021Y-88078930D01*
X95742878Y-88149316D01*
X95788747Y-88207124D01*
X95833389Y-88242955D01*
X95901862Y-88276092D01*
X95973188Y-88293335D01*
X96054361Y-88299082D01*
X96370900Y-88299082D01*
X96370900Y-87591999D01*
X96054361Y-87591999D01*
X95992558Y-87595232D01*
X95918770Y-87609600D01*
X95847528Y-87639504D01*
X95788747Y-87683956D01*
X95756500Y-87721355D01*
X95720639Y-87787356D01*
X95699789Y-87865238D01*
X95693859Y-87944441D01*
X95588712Y-87944441D01*
X95589746Y-87904967D01*
X95598015Y-87831526D01*
X95618113Y-87755122D01*
X95654864Y-87680041D01*
X95706315Y-87618011D01*
X95754606Y-87580161D01*
X95820844Y-87545900D01*
X95897740Y-87522298D01*
X95972135Y-87510551D01*
X96054361Y-87506636D01*
X96473848Y-87506636D01*
X96473848Y-89045000D01*
G37*
G36*
X95226011Y-87441789D02*
G01*
X95131489Y-87441789D01*
X95131489Y-89045000D01*
X95226011Y-89045000D01*
X95226011Y-87441789D01*
G37*
G36*
X94655216Y-88587411D02*
G01*
X94655216Y-87890952D01*
X94560327Y-87890952D01*
X94560327Y-88581182D01*
X94557803Y-88660738D01*
X94548476Y-88741767D01*
X94529403Y-88818829D01*
X94497216Y-88885708D01*
X94488520Y-88897721D01*
X94430848Y-88949867D01*
X94357073Y-88980368D01*
X94276029Y-88989312D01*
X94197100Y-88983130D01*
X94124079Y-88964583D01*
X94056966Y-88933671D01*
X93995760Y-88890394D01*
X93944469Y-88831180D01*
X93911611Y-88764266D01*
X93889972Y-88683258D01*
X93880355Y-88602603D01*
X93878524Y-88543080D01*
X93878524Y-87890952D01*
X93783635Y-87890952D01*
X93783635Y-89045000D01*
X93878524Y-89045000D01*
X93878524Y-88828478D01*
X93916840Y-88894922D01*
X93967330Y-88954076D01*
X94011147Y-88989312D01*
X94081595Y-89029691D01*
X94156099Y-89056855D01*
X94234660Y-89070804D01*
X94280059Y-89072843D01*
X94361300Y-89065562D01*
X94433932Y-89043717D01*
X94497954Y-89007310D01*
X94553367Y-88956339D01*
X94597926Y-88890005D01*
X94626471Y-88817799D01*
X94643181Y-88745388D01*
X94652729Y-88663265D01*
X94655216Y-88587411D01*
G37*
G36*
X92982774Y-87866901D02*
G01*
X93056104Y-87881464D01*
X93133028Y-87912258D01*
X93200661Y-87957919D01*
X93259002Y-88018447D01*
X93294253Y-88069935D01*
X93328669Y-88139796D01*
X93354480Y-88218467D01*
X93369417Y-88290756D01*
X93378380Y-88369163D01*
X93381367Y-88453688D01*
X93379455Y-88521974D01*
X93371688Y-88601811D01*
X93357946Y-88675511D01*
X93333568Y-88755852D01*
X93300587Y-88827358D01*
X93259002Y-88890027D01*
X93209564Y-88942694D01*
X93143259Y-88990366D01*
X93067662Y-89023207D01*
X92995470Y-89039551D01*
X92916451Y-89045000D01*
X92864536Y-89041715D01*
X92790334Y-89022926D01*
X92720538Y-88987503D01*
X92662194Y-88942051D01*
X92614873Y-88889271D01*
X92575171Y-88824630D01*
X92545690Y-88755572D01*
X92545690Y-88935823D01*
X92545811Y-88955662D01*
X92550044Y-89047591D01*
X92560323Y-89127410D01*
X92580639Y-89207205D01*
X92615345Y-89278259D01*
X92669521Y-89330397D01*
X92734299Y-89362454D01*
X92805168Y-89385352D01*
X92882127Y-89399091D01*
X92965177Y-89403670D01*
X92980954Y-89403480D01*
X93059163Y-89396831D01*
X93131140Y-89382055D01*
X93156602Y-89374718D01*
X93228369Y-89347991D01*
X93295638Y-89315010D01*
X93295638Y-89423087D01*
X93274761Y-89430627D01*
X93200339Y-89453136D01*
X93123813Y-89469616D01*
X93084481Y-89475183D01*
X93008552Y-89481895D01*
X92935136Y-89483904D01*
X92883707Y-89482164D01*
X92799217Y-89470743D01*
X92721740Y-89448664D01*
X92651275Y-89415926D01*
X92587822Y-89372529D01*
X92579392Y-89365348D01*
X92527876Y-89301477D01*
X92494156Y-89227782D01*
X92473416Y-89153009D01*
X92459366Y-89066088D01*
X92452943Y-88987807D01*
X92450802Y-88901751D01*
X92450802Y-88454420D01*
X92545690Y-88454420D01*
X92548070Y-88526579D01*
X92557206Y-88606297D01*
X92576525Y-88689828D01*
X92605171Y-88763156D01*
X92643143Y-88826280D01*
X92649311Y-88834417D01*
X92704162Y-88890213D01*
X92768814Y-88929477D01*
X92843266Y-88952209D01*
X92916451Y-88958538D01*
X92998837Y-88950271D01*
X93071606Y-88925473D01*
X93134758Y-88884143D01*
X93188293Y-88826280D01*
X93221288Y-88772798D01*
X93251153Y-88700928D01*
X93271727Y-88618855D01*
X93281967Y-88540386D01*
X93285380Y-88454420D01*
X93283010Y-88382060D01*
X93273908Y-88302169D01*
X93254661Y-88218536D01*
X93226123Y-88145211D01*
X93188293Y-88082194D01*
X93134758Y-88024171D01*
X93071606Y-87982726D01*
X92998837Y-87957859D01*
X92916451Y-87949570D01*
X92833424Y-87957859D01*
X92760197Y-87982726D01*
X92696770Y-88024171D01*
X92643143Y-88082194D01*
X92610024Y-88135577D01*
X92580046Y-88207430D01*
X92559395Y-88289591D01*
X92549116Y-88368219D01*
X92545690Y-88454420D01*
X92450802Y-88454420D01*
X92450802Y-87890952D01*
X92545690Y-87890952D01*
X92545690Y-88136050D01*
X92576834Y-88074815D01*
X92620566Y-88009969D01*
X92675383Y-87951769D01*
X92694684Y-87935924D01*
X92763950Y-87894365D01*
X92840800Y-87870122D01*
X92916451Y-87863108D01*
X92982774Y-87866901D01*
G37*
G36*
X91387247Y-87890952D02*
G01*
X91292358Y-87890952D01*
X91292358Y-89045000D01*
X91387247Y-89045000D01*
X91387247Y-87890952D01*
G37*
G36*
X91387247Y-87441789D02*
G01*
X91292358Y-87441789D01*
X91292358Y-87571482D01*
X91387247Y-87571482D01*
X91387247Y-87441789D01*
G37*
G36*
X89930216Y-88348541D02*
G01*
X89930216Y-89045000D01*
X90025104Y-89045000D01*
X90025104Y-88354769D01*
X90027642Y-88275102D01*
X90037016Y-88194008D01*
X90056187Y-88116957D01*
X90088538Y-88050200D01*
X90097278Y-88038230D01*
X90154906Y-87986084D01*
X90228552Y-87955584D01*
X90309403Y-87946639D01*
X90388331Y-87952822D01*
X90461352Y-87971369D01*
X90528466Y-88002281D01*
X90589672Y-88045558D01*
X90641123Y-88104771D01*
X90674084Y-88171685D01*
X90695790Y-88252694D01*
X90705437Y-88333348D01*
X90707274Y-88392871D01*
X90707274Y-89045000D01*
X90801796Y-89045000D01*
X90801796Y-87890952D01*
X90707274Y-87890952D01*
X90707274Y-88107473D01*
X90668749Y-88041029D01*
X90618131Y-87981876D01*
X90574284Y-87946639D01*
X90503837Y-87906261D01*
X90429333Y-87879097D01*
X90350771Y-87865148D01*
X90305373Y-87863108D01*
X90224154Y-87870390D01*
X90151591Y-87892234D01*
X90087684Y-87928642D01*
X90032431Y-87979612D01*
X89987712Y-88045947D01*
X89959064Y-88118153D01*
X89942294Y-88190564D01*
X89932711Y-88272687D01*
X89930216Y-88348541D01*
G37*
D11*
X7379819Y-19056905D02*
X8189342Y-19056905D01*
X8189342Y-19056905D02*
X8284580Y-19104524D01*
X8284580Y-19104524D02*
X8332200Y-19152143D01*
X8332200Y-19152143D02*
X8379819Y-19247381D01*
X8379819Y-19247381D02*
X8379819Y-19437857D01*
X8379819Y-19437857D02*
X8332200Y-19533095D01*
X8332200Y-19533095D02*
X8284580Y-19580714D01*
X8284580Y-19580714D02*
X8189342Y-19628333D01*
X8189342Y-19628333D02*
X7379819Y-19628333D01*
X8379819Y-20628333D02*
X8379819Y-20056905D01*
X8379819Y-20342619D02*
X7379819Y-20342619D01*
X7379819Y-20342619D02*
X7522676Y-20247381D01*
X7522676Y-20247381D02*
X7617914Y-20152143D01*
X7617914Y-20152143D02*
X7665533Y-20056905D01*
X7379819Y-20961667D02*
X7379819Y-21628333D01*
X7379819Y-21628333D02*
X8379819Y-21199762D01*
X187639819Y36467857D02*
X187163628Y36801190D01*
X187639819Y37039285D02*
X186639819Y37039285D01*
X186639819Y37039285D02*
X186639819Y36658333D01*
X186639819Y36658333D02*
X186687438Y36563095D01*
X186687438Y36563095D02*
X186735057Y36515476D01*
X186735057Y36515476D02*
X186830295Y36467857D01*
X186830295Y36467857D02*
X186973152Y36467857D01*
X186973152Y36467857D02*
X187068390Y36515476D01*
X187068390Y36515476D02*
X187116009Y36563095D01*
X187116009Y36563095D02*
X187163628Y36658333D01*
X187163628Y36658333D02*
X187163628Y37039285D01*
X186639819Y36134523D02*
X186639819Y35515476D01*
X186639819Y35515476D02*
X187020771Y35848809D01*
X187020771Y35848809D02*
X187020771Y35705952D01*
X187020771Y35705952D02*
X187068390Y35610714D01*
X187068390Y35610714D02*
X187116009Y35563095D01*
X187116009Y35563095D02*
X187211247Y35515476D01*
X187211247Y35515476D02*
X187449342Y35515476D01*
X187449342Y35515476D02*
X187544580Y35563095D01*
X187544580Y35563095D02*
X187592200Y35610714D01*
X187592200Y35610714D02*
X187639819Y35705952D01*
X187639819Y35705952D02*
X187639819Y35991666D01*
X187639819Y35991666D02*
X187592200Y36086904D01*
X187592200Y36086904D02*
X187544580Y36134523D01*
X186639819Y35182142D02*
X186639819Y34563095D01*
X186639819Y34563095D02*
X187020771Y34896428D01*
X187020771Y34896428D02*
X187020771Y34753571D01*
X187020771Y34753571D02*
X187068390Y34658333D01*
X187068390Y34658333D02*
X187116009Y34610714D01*
X187116009Y34610714D02*
X187211247Y34563095D01*
X187211247Y34563095D02*
X187449342Y34563095D01*
X187449342Y34563095D02*
X187544580Y34610714D01*
X187544580Y34610714D02*
X187592200Y34658333D01*
X187592200Y34658333D02*
X187639819Y34753571D01*
X187639819Y34753571D02*
X187639819Y35039285D01*
X187639819Y35039285D02*
X187592200Y35134523D01*
X187592200Y35134523D02*
X187544580Y35182142D01*
D12*
%TO.C,R37*%
X113403641Y-81870000D02*
X113096359Y-81870000D01*
X113403641Y-82630000D02*
X113096359Y-82630000D01*
%TO.C,C26*%
X114090000Y-94507836D02*
X114090000Y-94292164D01*
X114810000Y-94507836D02*
X114810000Y-94292164D01*
%TO.C,C12*%
X139590000Y-67812164D02*
X139590000Y-68027836D01*
X140310000Y-67812164D02*
X140310000Y-68027836D01*
%TO.C,C39*%
X77621693Y-74169190D02*
X77469190Y-74321693D01*
X78130810Y-74678307D02*
X77978307Y-74830810D01*
D10*
%TO.C,U6*%
X136350000Y-65150000D02*
X136350000Y-63700000D01*
X139650000Y-64050000D02*
X139650000Y-63600000D01*
X139650000Y-64750000D02*
X139650000Y-65200000D01*
D13*
X140350000Y-65650000D02*
G75*
G02*
X140150000Y-65650000I-100000J0D01*
G01*
X140150000Y-65650000D02*
G75*
G02*
X140350000Y-65650000I100000J0D01*
G01*
D10*
%TO.C,U35*%
X129500000Y-99050000D02*
X129500000Y-98600000D01*
X129500000Y-99750000D02*
X129500000Y-100200000D01*
X132800000Y-98650000D02*
X132800000Y-100100000D01*
D13*
X129000000Y-98150000D02*
G75*
G02*
X128800000Y-98150000I-100000J0D01*
G01*
X128800000Y-98150000D02*
G75*
G02*
X129000000Y-98150000I100000J0D01*
G01*
D12*
%TO.C,C2*%
X116340000Y-66507836D02*
X116340000Y-66292164D01*
X117060000Y-66507836D02*
X117060000Y-66292164D01*
%TO.C,C17*%
X131590000Y-79542164D02*
X131590000Y-79757836D01*
X132310000Y-79542164D02*
X132310000Y-79757836D01*
D10*
%TO.C,U12*%
X136600000Y-71650000D02*
X136600000Y-70200000D01*
X139900000Y-70550000D02*
X139900000Y-70100000D01*
X139900000Y-71250000D02*
X139900000Y-71700000D01*
D13*
X140600000Y-72150000D02*
G75*
G02*
X140400000Y-72150000I-100000J0D01*
G01*
X140400000Y-72150000D02*
G75*
G02*
X140600000Y-72150000I100000J0D01*
G01*
D12*
%TO.C,C16*%
X126642164Y-77540000D02*
X126857836Y-77540000D01*
X126642164Y-78260000D02*
X126857836Y-78260000D01*
%TO.C,R48*%
X134320000Y-86996359D02*
X134320000Y-87303641D01*
X135080000Y-86996359D02*
X135080000Y-87303641D01*
%TO.C,R60*%
X133170000Y-92853641D02*
X133170000Y-92546359D01*
X133930000Y-92853641D02*
X133930000Y-92546359D01*
D10*
%TO.C,U21*%
X119750000Y-84300000D02*
X119750000Y-83850000D01*
X119750000Y-85000000D02*
X119750000Y-85450000D01*
X123050000Y-83900000D02*
X123050000Y-85350000D01*
D13*
X119250000Y-83400000D02*
G75*
G02*
X119050000Y-83400000I-100000J0D01*
G01*
X119050000Y-83400000D02*
G75*
G02*
X119250000Y-83400000I100000J0D01*
G01*
D12*
%TO.C,R9*%
X130546359Y-61020000D02*
X130853641Y-61020000D01*
X130546359Y-61780000D02*
X130853641Y-61780000D01*
%TO.C,D38*%
X75230223Y-83130330D02*
X76269670Y-84169777D01*
X76269670Y-84169777D02*
X77885409Y-82554038D01*
X76845962Y-81514591D02*
X75230223Y-83130330D01*
%TO.C,R78*%
X113420000Y-61346359D02*
X113420000Y-61653641D01*
X114180000Y-61346359D02*
X114180000Y-61653641D01*
%TO.C,C24*%
X134340000Y-85022164D02*
X134340000Y-85237836D01*
X135060000Y-85022164D02*
X135060000Y-85237836D01*
%TO.C,C19*%
X106992164Y-82340000D02*
X107207836Y-82340000D01*
X106992164Y-83060000D02*
X107207836Y-83060000D01*
%TO.C,R58*%
X128470000Y-93003641D02*
X128470000Y-92696359D01*
X129230000Y-93003641D02*
X129230000Y-92696359D01*
D10*
%TO.C,U3*%
X122100000Y-65150000D02*
X122100000Y-63700000D01*
X125400000Y-64050000D02*
X125400000Y-63600000D01*
X125400000Y-64750000D02*
X125400000Y-65200000D01*
D13*
X126100000Y-65650000D02*
G75*
G02*
X125900000Y-65650000I-100000J0D01*
G01*
X125900000Y-65650000D02*
G75*
G02*
X126100000Y-65650000I100000J0D01*
G01*
D12*
%TO.C,R18*%
X125770000Y-71246359D02*
X125770000Y-71553641D01*
X126530000Y-71246359D02*
X126530000Y-71553641D01*
%TO.C,R23*%
X137570000Y-67796359D02*
X137570000Y-68103641D01*
X138330000Y-67796359D02*
X138330000Y-68103641D01*
D10*
%TO.C,U8*%
X117350000Y-71650000D02*
X117350000Y-70200000D01*
X120650000Y-70550000D02*
X120650000Y-70100000D01*
X120650000Y-71250000D02*
X120650000Y-71700000D01*
D13*
X121350000Y-72150000D02*
G75*
G02*
X121150000Y-72150000I-100000J0D01*
G01*
X121150000Y-72150000D02*
G75*
G02*
X121350000Y-72150000I100000J0D01*
G01*
D12*
%TO.C,C45*%
X111425000Y-65675336D02*
X111425000Y-65459664D01*
X112145000Y-65675336D02*
X112145000Y-65459664D01*
D10*
%TO.C,U9*%
X122350000Y-71650000D02*
X122350000Y-70200000D01*
X125650000Y-70550000D02*
X125650000Y-70100000D01*
X125650000Y-71250000D02*
X125650000Y-71700000D01*
D13*
X126350000Y-72150000D02*
G75*
G02*
X126150000Y-72150000I-100000J0D01*
G01*
X126150000Y-72150000D02*
G75*
G02*
X126350000Y-72150000I100000J0D01*
G01*
D12*
%TO.C,R31*%
X118820000Y-79246359D02*
X118820000Y-79553641D01*
X119580000Y-79246359D02*
X119580000Y-79553641D01*
%TO.C,R11*%
X135556359Y-61020000D02*
X135863641Y-61020000D01*
X135556359Y-61780000D02*
X135863641Y-61780000D01*
%TO.C,R46*%
X133320000Y-86996359D02*
X133320000Y-87303641D01*
X134080000Y-86996359D02*
X134080000Y-87303641D01*
D10*
%TO.C,U16*%
X123450000Y-80050000D02*
X123450000Y-79600000D01*
X123450000Y-80750000D02*
X123450000Y-81200000D01*
X126750000Y-79650000D02*
X126750000Y-81100000D01*
D13*
X122950000Y-79150000D02*
G75*
G02*
X122750000Y-79150000I-100000J0D01*
G01*
X122750000Y-79150000D02*
G75*
G02*
X122950000Y-79150000I100000J0D01*
G01*
D12*
%TO.C,R20*%
X130470000Y-71396359D02*
X130470000Y-71703641D01*
X131230000Y-71396359D02*
X131230000Y-71703641D01*
D10*
%TO.C,U15*%
X119800000Y-81150000D02*
X119800000Y-79700000D01*
X123100000Y-80050000D02*
X123100000Y-79600000D01*
X123100000Y-80750000D02*
X123100000Y-81200000D01*
D13*
X123800000Y-81650000D02*
G75*
G02*
X123600000Y-81650000I-100000J0D01*
G01*
X123600000Y-81650000D02*
G75*
G02*
X123800000Y-81650000I100000J0D01*
G01*
D12*
%TO.C,R67*%
X128470000Y-99803641D02*
X128470000Y-99496359D01*
X129230000Y-99803641D02*
X129230000Y-99496359D01*
%TO.C,C41*%
X95965010Y-77045543D02*
X95595543Y-77415010D01*
X97004457Y-78084990D02*
X96634990Y-78454457D01*
%TO.C,C42*%
X81569190Y-74578307D02*
X81721693Y-74730810D01*
X82078307Y-74069190D02*
X82230810Y-74221693D01*
D10*
%TO.C,U10*%
X127100000Y-71650000D02*
X127100000Y-70200000D01*
X130400000Y-70550000D02*
X130400000Y-70100000D01*
X130400000Y-71250000D02*
X130400000Y-71700000D01*
D13*
X131100000Y-72150000D02*
G75*
G02*
X130900000Y-72150000I-100000J0D01*
G01*
X130900000Y-72150000D02*
G75*
G02*
X131100000Y-72150000I100000J0D01*
G01*
D12*
%TO.C,R49*%
X111546359Y-96020000D02*
X111853641Y-96020000D01*
X111546359Y-96780000D02*
X111853641Y-96780000D01*
D10*
%TO.C,U34*%
X125000000Y-99050000D02*
X125000000Y-98600000D01*
X125000000Y-99750000D02*
X125000000Y-100200000D01*
X128300000Y-98650000D02*
X128300000Y-100100000D01*
D13*
X124500000Y-98150000D02*
G75*
G02*
X124300000Y-98150000I-100000J0D01*
G01*
X124300000Y-98150000D02*
G75*
G02*
X124500000Y-98150000I100000J0D01*
G01*
D12*
%TO.C,R16*%
X120920000Y-71346359D02*
X120920000Y-71653641D01*
X121680000Y-71346359D02*
X121680000Y-71653641D01*
%TO.C,R2*%
X78462770Y-80198303D02*
X78798303Y-79862770D01*
X79201697Y-80937230D02*
X79537230Y-80601697D01*
%TO.C,C13*%
X110790000Y-74842164D02*
X110790000Y-75057836D01*
X111510000Y-74842164D02*
X111510000Y-75057836D01*
%TO.C,R47*%
X138920000Y-84246359D02*
X138920000Y-84553641D01*
X139680000Y-84246359D02*
X139680000Y-84553641D01*
%TO.C,C21*%
X118692164Y-85790000D02*
X118907836Y-85790000D01*
X118692164Y-86510000D02*
X118907836Y-86510000D01*
%TO.C,C8*%
X120940000Y-69657836D02*
X120940000Y-69442164D01*
X121660000Y-69657836D02*
X121660000Y-69442164D01*
%TO.C,C31*%
X108540000Y-100072164D02*
X108540000Y-100287836D01*
X109260000Y-100072164D02*
X109260000Y-100287836D01*
%TO.C,C4*%
X125840000Y-65007836D02*
X125840000Y-64792164D01*
X126560000Y-65007836D02*
X126560000Y-64792164D01*
%TO.C,R28*%
X112070000Y-77953641D02*
X112070000Y-77646359D01*
X112830000Y-77953641D02*
X112830000Y-77646359D01*
%TO.C,C37*%
X76882282Y-73408601D02*
X76729779Y-73561104D01*
X77391399Y-73917718D02*
X77238896Y-74070221D01*
%TO.C,C18*%
X137590000Y-79542164D02*
X137590000Y-79757836D01*
X138310000Y-79542164D02*
X138310000Y-79757836D01*
%TO.C,R17*%
X125403641Y-67170000D02*
X125096359Y-67170000D01*
X125403641Y-67930000D02*
X125096359Y-67930000D01*
%TO.C,C34*%
X123840000Y-101107836D02*
X123840000Y-100892164D01*
X124560000Y-101107836D02*
X124560000Y-100892164D01*
%TO.C,C6*%
X135390000Y-65057836D02*
X135390000Y-64842164D01*
X136110000Y-65057836D02*
X136110000Y-64842164D01*
D10*
%TO.C,U26*%
X115647500Y-93550000D02*
X115647500Y-93100000D01*
X115647500Y-94250000D02*
X115647500Y-94700000D01*
X118947500Y-93150000D02*
X118947500Y-94600000D01*
D13*
X115147500Y-92650000D02*
G75*
G02*
X114947500Y-92650000I-100000J0D01*
G01*
X114947500Y-92650000D02*
G75*
G02*
X115147500Y-92650000I100000J0D01*
G01*
D10*
%TO.C,U38*%
X112537500Y-65150000D02*
X112537500Y-63700000D01*
X115837500Y-64050000D02*
X115837500Y-63600000D01*
X115837500Y-64750000D02*
X115837500Y-65200000D01*
D13*
X116537500Y-65650000D02*
G75*
G02*
X116337500Y-65650000I-100000J0D01*
G01*
X116337500Y-65650000D02*
G75*
G02*
X116537500Y-65650000I100000J0D01*
G01*
D12*
%TO.C,C35*%
X128540000Y-101657836D02*
X128540000Y-101442164D01*
X129260000Y-101657836D02*
X129260000Y-101442164D01*
%TO.C,U37*%
X83294689Y-76800000D02*
X83506821Y-77012132D01*
X83506821Y-76587868D02*
X83294689Y-76800000D01*
X88187868Y-71906821D02*
X88400000Y-71694689D01*
X88400000Y-71694689D02*
X88612132Y-71906821D01*
X88400000Y-81905311D02*
X88187868Y-81693179D01*
X88612132Y-81693179D02*
X88400000Y-81905311D01*
X93293179Y-77012132D02*
X93505311Y-76800000D01*
X93505311Y-76800000D02*
X93293179Y-76587868D01*
X94291967Y-77346240D02*
X93719211Y-77438164D01*
X93811135Y-76865407D01*
X94291967Y-77346240D01*
G36*
X94291967Y-77346240D02*
G01*
X93719211Y-77438164D01*
X93811135Y-76865407D01*
X94291967Y-77346240D01*
G37*
%TO.C,R36*%
X138570000Y-79803641D02*
X138570000Y-79496359D01*
X139330000Y-79803641D02*
X139330000Y-79496359D01*
D10*
%TO.C,U13*%
X108350000Y-78650000D02*
X108350000Y-77200000D01*
X111650000Y-77550000D02*
X111650000Y-77100000D01*
X111650000Y-78250000D02*
X111650000Y-78700000D01*
D13*
X112350000Y-79150000D02*
G75*
G02*
X112150000Y-79150000I-100000J0D01*
G01*
X112150000Y-79150000D02*
G75*
G02*
X112350000Y-79150000I100000J0D01*
G01*
D12*
%TO.C,C1*%
X93021693Y-81130810D02*
X92869190Y-80978307D01*
X93530810Y-80621693D02*
X93378307Y-80469190D01*
%TO.C,C30*%
X133190000Y-95007836D02*
X133190000Y-94792164D01*
X133910000Y-95007836D02*
X133910000Y-94792164D01*
%TO.C,R40*%
X118820000Y-82236359D02*
X118820000Y-82543641D01*
X119580000Y-82236359D02*
X119580000Y-82543641D01*
%TO.C,R79*%
X116296359Y-61520000D02*
X116603641Y-61520000D01*
X116296359Y-62280000D02*
X116603641Y-62280000D01*
D10*
%TO.C,U19*%
X108350000Y-84650000D02*
X108350000Y-83200000D01*
X111650000Y-83550000D02*
X111650000Y-83100000D01*
X111650000Y-84250000D02*
X111650000Y-84700000D01*
D13*
X112350000Y-85150000D02*
G75*
G02*
X112150000Y-85150000I-100000J0D01*
G01*
X112150000Y-85150000D02*
G75*
G02*
X112350000Y-85150000I100000J0D01*
G01*
D12*
%TO.C,C23*%
X133340000Y-85042164D02*
X133340000Y-85257836D01*
X134060000Y-85042164D02*
X134060000Y-85257836D01*
%TO.C,R71*%
X139270000Y-98546359D02*
X139270000Y-98853641D01*
X140030000Y-98546359D02*
X140030000Y-98853641D01*
D10*
%TO.C,D37*%
X80984746Y-71258579D02*
X81479720Y-71753553D01*
X81479720Y-71753553D02*
X81479720Y-72213173D01*
X82292893Y-73026346D02*
X82540381Y-73273833D01*
X82540381Y-73273833D02*
X82787868Y-73026346D01*
X83247487Y-69738299D02*
X83459619Y-69526167D01*
X83459619Y-69526167D02*
X83689429Y-69755977D01*
X84661701Y-70728249D02*
X84873833Y-70940381D01*
X84873833Y-70940381D02*
X84626346Y-71187868D01*
D12*
%TO.C,R68*%
X125846359Y-101520000D02*
X126153641Y-101520000D01*
X125846359Y-102280000D02*
X126153641Y-102280000D01*
%TO.C,C32*%
X115590000Y-102407836D02*
X115590000Y-102192164D01*
X116310000Y-102407836D02*
X116310000Y-102192164D01*
%TO.C,R15*%
X119453641Y-68070000D02*
X119146359Y-68070000D01*
X119453641Y-68830000D02*
X119146359Y-68830000D01*
%TO.C,D39*%
X95954038Y-70785409D02*
X97569777Y-69169670D01*
X96530330Y-68130223D02*
X94914591Y-69745962D01*
X97569777Y-69169670D02*
X96530330Y-68130223D01*
%TO.C,R65*%
X123820000Y-99253641D02*
X123820000Y-98946359D01*
X124580000Y-99253641D02*
X124580000Y-98946359D01*
%TO.C,R54*%
X119220000Y-92553641D02*
X119220000Y-92246359D01*
X119980000Y-92553641D02*
X119980000Y-92246359D01*
%TO.C,C22*%
X126840000Y-84192164D02*
X126840000Y-84407836D01*
X127560000Y-84192164D02*
X127560000Y-84407836D01*
%TO.C,C11*%
X135690000Y-69207836D02*
X135690000Y-68992164D01*
X136410000Y-69207836D02*
X136410000Y-68992164D01*
%TO.C,R27*%
X112796359Y-75770000D02*
X113103641Y-75770000D01*
X112796359Y-76530000D02*
X113103641Y-76530000D01*
D10*
%TO.C,U36*%
X134000000Y-99050000D02*
X134000000Y-98600000D01*
X134000000Y-99750000D02*
X134000000Y-100200000D01*
X137300000Y-98650000D02*
X137300000Y-100100000D01*
D13*
X133500000Y-98150000D02*
G75*
G02*
X133300000Y-98150000I-100000J0D01*
G01*
X133300000Y-98150000D02*
G75*
G02*
X133500000Y-98150000I100000J0D01*
G01*
D12*
%TO.C,R24*%
X140070000Y-69756359D02*
X140070000Y-70063641D01*
X140830000Y-69756359D02*
X140830000Y-70063641D01*
%TO.C,R30*%
X123570000Y-77603641D02*
X123570000Y-77296359D01*
X124330000Y-77603641D02*
X124330000Y-77296359D01*
D10*
%TO.C,U25*%
X110602500Y-93550000D02*
X110602500Y-93100000D01*
X110602500Y-94250000D02*
X110602500Y-94700000D01*
X113902500Y-93150000D02*
X113902500Y-94600000D01*
D13*
X110102500Y-92650000D02*
G75*
G02*
X109902500Y-92650000I-100000J0D01*
G01*
X109902500Y-92650000D02*
G75*
G02*
X110102500Y-92650000I100000J0D01*
G01*
D12*
%TO.C,R26*%
X109770000Y-75103641D02*
X109770000Y-74796359D01*
X110530000Y-75103641D02*
X110530000Y-74796359D01*
D10*
%TO.C,U24*%
X135250000Y-84300000D02*
X135250000Y-83850000D01*
X135250000Y-85000000D02*
X135250000Y-85450000D01*
X138550000Y-83900000D02*
X138550000Y-85350000D01*
D13*
X134750000Y-83400000D02*
G75*
G02*
X134550000Y-83400000I-100000J0D01*
G01*
X134550000Y-83400000D02*
G75*
G02*
X134750000Y-83400000I100000J0D01*
G01*
D10*
%TO.C,U1*%
X78235697Y-75587348D02*
X78500862Y-75322183D01*
X78447829Y-75799480D02*
X78235697Y-75587348D01*
X79137258Y-74685787D02*
X78942803Y-74880241D01*
X79596877Y-74615076D02*
X79137258Y-74685787D01*
X79632233Y-74650431D02*
X79596877Y-74615076D01*
X80180240Y-74102424D02*
X79632233Y-74650431D01*
X80321662Y-77673313D02*
X80410050Y-77761701D01*
X80569149Y-77920800D02*
X80357017Y-77708668D01*
X80887347Y-77602602D02*
X80569149Y-77920800D01*
X81488388Y-76506587D02*
X81735875Y-76754074D01*
X81735875Y-76754074D02*
X81400000Y-77089950D01*
D12*
%TO.C,R57*%
X128796359Y-96020000D02*
X129103641Y-96020000D01*
X128796359Y-96780000D02*
X129103641Y-96780000D01*
%TO.C,C15*%
X122422164Y-77590000D02*
X122637836Y-77590000D01*
X122422164Y-78310000D02*
X122637836Y-78310000D01*
D10*
%TO.C,U31*%
X110540000Y-99050000D02*
X110540000Y-98600000D01*
X110540000Y-99750000D02*
X110540000Y-100200000D01*
X113840000Y-98650000D02*
X113840000Y-100100000D01*
D13*
X110040000Y-98150000D02*
G75*
G02*
X109840000Y-98150000I-100000J0D01*
G01*
X109840000Y-98150000D02*
G75*
G02*
X110040000Y-98150000I100000J0D01*
G01*
D10*
%TO.C,U18*%
X133897500Y-80050000D02*
X133897500Y-79600000D01*
X133897500Y-80750000D02*
X133897500Y-81200000D01*
X137197500Y-79650000D02*
X137197500Y-81100000D01*
D13*
X133397500Y-79150000D02*
G75*
G02*
X133197500Y-79150000I-100000J0D01*
G01*
X133197500Y-79150000D02*
G75*
G02*
X133397500Y-79150000I100000J0D01*
G01*
D10*
%TO.C,U17*%
X127900000Y-80050000D02*
X127900000Y-79600000D01*
X127900000Y-80750000D02*
X127900000Y-81200000D01*
X131200000Y-79650000D02*
X131200000Y-81100000D01*
D13*
X127400000Y-79150000D02*
G75*
G02*
X127200000Y-79150000I-100000J0D01*
G01*
X127200000Y-79150000D02*
G75*
G02*
X127400000Y-79150000I100000J0D01*
G01*
D12*
%TO.C,R14*%
X116170000Y-71246359D02*
X116170000Y-71553641D01*
X116930000Y-71246359D02*
X116930000Y-71553641D01*
%TO.C,R25*%
X111553641Y-69420000D02*
X111246359Y-69420000D01*
X111553641Y-70180000D02*
X111246359Y-70180000D01*
D10*
%TO.C,U30*%
X134000000Y-93550000D02*
X134000000Y-93100000D01*
X134000000Y-94250000D02*
X134000000Y-94700000D01*
X137300000Y-93150000D02*
X137300000Y-94600000D01*
D13*
X133500000Y-92650000D02*
G75*
G02*
X133300000Y-92650000I-100000J0D01*
G01*
X133300000Y-92650000D02*
G75*
G02*
X133500000Y-92650000I100000J0D01*
G01*
D12*
%TO.C,R3*%
X118370000Y-61346359D02*
X118370000Y-61653641D01*
X119130000Y-61346359D02*
X119130000Y-61653641D01*
%TO.C,R66*%
X121956359Y-101470000D02*
X122263641Y-101470000D01*
X121956359Y-102230000D02*
X122263641Y-102230000D01*
%TO.C,R55*%
X124296359Y-96020000D02*
X124603641Y-96020000D01*
X124296359Y-96780000D02*
X124603641Y-96780000D01*
%TO.C,R32*%
X127546359Y-76570000D02*
X127853641Y-76570000D01*
X127546359Y-77330000D02*
X127853641Y-77330000D01*
%TO.C,R22*%
X135470000Y-71046359D02*
X135470000Y-71353641D01*
X136230000Y-71046359D02*
X136230000Y-71353641D01*
%TO.C,C25*%
X109340000Y-93542164D02*
X109340000Y-93757836D01*
X110060000Y-93542164D02*
X110060000Y-93757836D01*
%TO.C,R29*%
X119796359Y-77520000D02*
X120103641Y-77520000D01*
X119796359Y-78280000D02*
X120103641Y-78280000D01*
%TO.C,R59*%
X133796359Y-96020000D02*
X134103641Y-96020000D01*
X133796359Y-96780000D02*
X134103641Y-96780000D01*
%TO.C,R34*%
X132570000Y-79793641D02*
X132570000Y-79486359D01*
X133330000Y-79793641D02*
X133330000Y-79486359D01*
%TO.C,R8*%
X125820000Y-63053641D02*
X125820000Y-62746359D01*
X126580000Y-63053641D02*
X126580000Y-62746359D01*
D10*
%TO.C,U4*%
X126850000Y-65150000D02*
X126850000Y-63700000D01*
X130150000Y-64050000D02*
X130150000Y-63600000D01*
X130150000Y-64750000D02*
X130150000Y-65200000D01*
D13*
X130850000Y-65650000D02*
G75*
G02*
X130650000Y-65650000I-100000J0D01*
G01*
X130650000Y-65650000D02*
G75*
G02*
X130850000Y-65650000I100000J0D01*
G01*
D10*
%TO.C,U27*%
X120250000Y-93550000D02*
X120250000Y-93100000D01*
X120250000Y-94250000D02*
X120250000Y-94700000D01*
X123550000Y-93150000D02*
X123550000Y-94600000D01*
D13*
X119750000Y-92650000D02*
G75*
G02*
X119550000Y-92650000I-100000J0D01*
G01*
X119550000Y-92650000D02*
G75*
G02*
X119750000Y-92650000I100000J0D01*
G01*
D12*
%TO.C,C44*%
X75538781Y-72739970D02*
X75339970Y-72938781D01*
X76260030Y-73461219D02*
X76061219Y-73660030D01*
%TO.C,C20*%
X118307836Y-80540000D02*
X118092164Y-80540000D01*
X118307836Y-81260000D02*
X118092164Y-81260000D01*
D10*
%TO.C,U33*%
X120147500Y-99050000D02*
X120147500Y-98600000D01*
X120147500Y-99750000D02*
X120147500Y-100200000D01*
X123447500Y-98650000D02*
X123447500Y-100100000D01*
D13*
X119647500Y-98150000D02*
G75*
G02*
X119447500Y-98150000I-100000J0D01*
G01*
X119447500Y-98150000D02*
G75*
G02*
X119647500Y-98150000I100000J0D01*
G01*
D12*
%TO.C,R63*%
X119170000Y-99996359D02*
X119170000Y-100303641D01*
X119930000Y-99996359D02*
X119930000Y-100303641D01*
%TO.C,C5*%
X130590000Y-65257836D02*
X130590000Y-65042164D01*
X131310000Y-65257836D02*
X131310000Y-65042164D01*
D10*
%TO.C,U20*%
X114350000Y-84650000D02*
X114350000Y-83200000D01*
X117650000Y-83550000D02*
X117650000Y-83100000D01*
X117650000Y-84250000D02*
X117650000Y-84700000D01*
D13*
X118350000Y-85150000D02*
G75*
G02*
X118150000Y-85150000I-100000J0D01*
G01*
X118150000Y-85150000D02*
G75*
G02*
X118350000Y-85150000I100000J0D01*
G01*
D12*
%TO.C,R72*%
X134846359Y-101470000D02*
X135153641Y-101470000D01*
X134846359Y-102230000D02*
X135153641Y-102230000D01*
D10*
%TO.C,U5*%
X131850000Y-65150000D02*
X131850000Y-63700000D01*
X135150000Y-64050000D02*
X135150000Y-63600000D01*
X135150000Y-64750000D02*
X135150000Y-65200000D01*
D13*
X135850000Y-65650000D02*
G75*
G02*
X135650000Y-65650000I-100000J0D01*
G01*
X135650000Y-65650000D02*
G75*
G02*
X135850000Y-65650000I100000J0D01*
G01*
D12*
%TO.C,C9*%
X125840000Y-69507836D02*
X125840000Y-69292164D01*
X126560000Y-69507836D02*
X126560000Y-69292164D01*
D10*
%TO.C,U14*%
X114150000Y-78650000D02*
X114150000Y-77200000D01*
X117450000Y-77550000D02*
X117450000Y-77100000D01*
X117450000Y-78250000D02*
X117450000Y-78700000D01*
D13*
X118150000Y-79150000D02*
G75*
G02*
X117950000Y-79150000I-100000J0D01*
G01*
X117950000Y-79150000D02*
G75*
G02*
X118150000Y-79150000I100000J0D01*
G01*
D12*
%TO.C,R56*%
X123820000Y-92553641D02*
X123820000Y-92246359D01*
X124580000Y-92553641D02*
X124580000Y-92246359D01*
%TO.C,D2*%
X73573376Y-81487177D02*
X74612823Y-82526624D01*
X74612823Y-82526624D02*
X76228562Y-80910885D01*
X75189115Y-79871438D02*
X73573376Y-81487177D01*
D10*
%TO.C,U28*%
X125000000Y-93550000D02*
X125000000Y-93100000D01*
X125000000Y-94250000D02*
X125000000Y-94700000D01*
X128300000Y-93150000D02*
X128300000Y-94600000D01*
D13*
X124500000Y-92650000D02*
G75*
G02*
X124300000Y-92650000I-100000J0D01*
G01*
X124300000Y-92650000D02*
G75*
G02*
X124500000Y-92650000I100000J0D01*
G01*
D12*
%TO.C,R53*%
X119306359Y-96020000D02*
X119613641Y-96020000D01*
X119306359Y-96780000D02*
X119613641Y-96780000D01*
%TO.C,R70*%
X130196359Y-101620000D02*
X130503641Y-101620000D01*
X130196359Y-102380000D02*
X130503641Y-102380000D01*
%TO.C,C7*%
X116040000Y-69487836D02*
X116040000Y-69272164D01*
X116760000Y-69487836D02*
X116760000Y-69272164D01*
%TO.C,R13*%
X113953641Y-68070000D02*
X113646359Y-68070000D01*
X113953641Y-68830000D02*
X113646359Y-68830000D01*
%TO.C,R33*%
X126920000Y-82303641D02*
X126920000Y-81996359D01*
X127680000Y-82303641D02*
X127680000Y-81996359D01*
D10*
%TO.C,U22*%
X123250000Y-84300000D02*
X123250000Y-83850000D01*
X123250000Y-85000000D02*
X123250000Y-85450000D01*
X126550000Y-83900000D02*
X126550000Y-85350000D01*
D13*
X122750000Y-83400000D02*
G75*
G02*
X122550000Y-83400000I-100000J0D01*
G01*
X122550000Y-83400000D02*
G75*
G02*
X122750000Y-83400000I100000J0D01*
G01*
D10*
%TO.C,U2*%
X117600000Y-65150000D02*
X117600000Y-63700000D01*
X120900000Y-64050000D02*
X120900000Y-63600000D01*
X120900000Y-64750000D02*
X120900000Y-65200000D01*
D13*
X121600000Y-65650000D02*
G75*
G02*
X121400000Y-65650000I-100000J0D01*
G01*
X121400000Y-65650000D02*
G75*
G02*
X121600000Y-65650000I100000J0D01*
G01*
D12*
%TO.C,R73*%
X93598303Y-71362770D02*
X93262770Y-71698303D01*
X94337230Y-72101697D02*
X94001697Y-72437230D01*
%TO.C,C27*%
X119240000Y-94507836D02*
X119240000Y-94292164D01*
X119960000Y-94507836D02*
X119960000Y-94292164D01*
D10*
%TO.C,U7*%
X112452500Y-71650000D02*
X112452500Y-70200000D01*
X115752500Y-70550000D02*
X115752500Y-70100000D01*
X115752500Y-71250000D02*
X115752500Y-71700000D01*
D13*
X116452500Y-72150000D02*
G75*
G02*
X116252500Y-72150000I-100000J0D01*
G01*
X116252500Y-72150000D02*
G75*
G02*
X116452500Y-72150000I100000J0D01*
G01*
D10*
%TO.C,U29*%
X129450000Y-93550000D02*
X129450000Y-93100000D01*
X129450000Y-94250000D02*
X129450000Y-94700000D01*
X132750000Y-93150000D02*
X132750000Y-94600000D01*
D13*
X128950000Y-92650000D02*
G75*
G02*
X128750000Y-92650000I-100000J0D01*
G01*
X128750000Y-92650000D02*
G75*
G02*
X128950000Y-92650000I100000J0D01*
G01*
D12*
%TO.C,R4*%
X116320000Y-64053641D02*
X116320000Y-63746359D01*
X117080000Y-64053641D02*
X117080000Y-63746359D01*
%TO.C,C36*%
X133090000Y-101557836D02*
X133090000Y-101342164D01*
X133810000Y-101557836D02*
X133810000Y-101342164D01*
%TO.C,R43*%
X127803641Y-85570000D02*
X127496359Y-85570000D01*
X127803641Y-86330000D02*
X127496359Y-86330000D01*
%TO.C,R1*%
X76762770Y-78598303D02*
X77098303Y-78262770D01*
X77501697Y-79337230D02*
X77837230Y-79001697D01*
%TO.C,R42*%
X118903641Y-86770000D02*
X118596359Y-86770000D01*
X118903641Y-87530000D02*
X118596359Y-87530000D01*
%TO.C,C43*%
X92221693Y-81830810D02*
X92069190Y-81678307D01*
X92730810Y-81321693D02*
X92578307Y-81169190D01*
%TO.C,R39*%
X113370000Y-84553641D02*
X113370000Y-84246359D01*
X114130000Y-84553641D02*
X114130000Y-84246359D01*
%TO.C,C14*%
X113090000Y-78737836D02*
X113090000Y-78522164D01*
X113810000Y-78737836D02*
X113810000Y-78522164D01*
%TO.C,R61*%
X114570000Y-99996359D02*
X114570000Y-100303641D01*
X115330000Y-99996359D02*
X115330000Y-100303641D01*
%TO.C,R10*%
X130570000Y-63303641D02*
X130570000Y-62996359D01*
X131330000Y-63303641D02*
X131330000Y-62996359D01*
%TO.C,C3*%
X121140000Y-65007836D02*
X121140000Y-64792164D01*
X121860000Y-65007836D02*
X121860000Y-64792164D01*
%TO.C,R50*%
X109320000Y-95496359D02*
X109320000Y-95803641D01*
X110080000Y-95496359D02*
X110080000Y-95803641D01*
%TO.C,C33*%
X120290000Y-102457836D02*
X120290000Y-102242164D01*
X121010000Y-102457836D02*
X121010000Y-102242164D01*
%TO.C,R44*%
X128020000Y-84603641D02*
X128020000Y-84296359D01*
X128780000Y-84603641D02*
X128780000Y-84296359D01*
%TO.C,R45*%
X131520000Y-88303641D02*
X131520000Y-87996359D01*
X132280000Y-88303641D02*
X132280000Y-87996359D01*
D10*
%TO.C,U11*%
X131850000Y-71650000D02*
X131850000Y-70200000D01*
X135150000Y-70550000D02*
X135150000Y-70100000D01*
X135150000Y-71250000D02*
X135150000Y-71700000D01*
D13*
X135850000Y-72150000D02*
G75*
G02*
X135650000Y-72150000I-100000J0D01*
G01*
X135650000Y-72150000D02*
G75*
G02*
X135850000Y-72150000I100000J0D01*
G01*
D12*
%TO.C,R7*%
X126296359Y-61020000D02*
X126603641Y-61020000D01*
X126296359Y-61780000D02*
X126603641Y-61780000D01*
%TO.C,R19*%
X129053641Y-67820000D02*
X128746359Y-67820000D01*
X129053641Y-68580000D02*
X128746359Y-68580000D01*
%TO.C,C28*%
X123740000Y-94642164D02*
X123740000Y-94857836D01*
X124460000Y-94642164D02*
X124460000Y-94857836D01*
%TO.C,C29*%
X128590000Y-94642164D02*
X128590000Y-94857836D01*
X129310000Y-94642164D02*
X129310000Y-94857836D01*
%TO.C,R52*%
X114570000Y-92543641D02*
X114570000Y-92236359D01*
X115330000Y-92543641D02*
X115330000Y-92236359D01*
%TO.C,R5*%
X121796359Y-61020000D02*
X122103641Y-61020000D01*
X121796359Y-61780000D02*
X122103641Y-61780000D01*
%TO.C,C40*%
X94271693Y-76469190D02*
X94119190Y-76621693D01*
X94780810Y-76978307D02*
X94628307Y-77130810D01*
%TO.C,R21*%
X134153641Y-67320000D02*
X133846359Y-67320000D01*
X134153641Y-68080000D02*
X133846359Y-68080000D01*
%TO.C,R64*%
X117296359Y-101670000D02*
X117603641Y-101670000D01*
X117296359Y-102430000D02*
X117603641Y-102430000D01*
%TO.C,R38*%
X107253641Y-83320000D02*
X106946359Y-83320000D01*
X107253641Y-84080000D02*
X106946359Y-84080000D01*
%TO.C,R41*%
X122403641Y-86720000D02*
X122096359Y-86720000D01*
X122403641Y-87480000D02*
X122096359Y-87480000D01*
D10*
%TO.C,U32*%
X115500000Y-99050000D02*
X115500000Y-98600000D01*
X115500000Y-99750000D02*
X115500000Y-100200000D01*
X118800000Y-98650000D02*
X118800000Y-100100000D01*
D13*
X115000000Y-98150000D02*
G75*
G02*
X114800000Y-98150000I-100000J0D01*
G01*
X114800000Y-98150000D02*
G75*
G02*
X115000000Y-98150000I100000J0D01*
G01*
D12*
%TO.C,R35*%
X132546359Y-81270000D02*
X132853641Y-81270000D01*
X132546359Y-82030000D02*
X132853641Y-82030000D01*
%TO.C,C10*%
X130740000Y-69357836D02*
X130740000Y-69142164D01*
X131460000Y-69357836D02*
X131460000Y-69142164D01*
%TO.C,R62*%
X109620000Y-100293641D02*
X109620000Y-99986359D01*
X110380000Y-100293641D02*
X110380000Y-99986359D01*
%TO.C,C38*%
X81621693Y-78930810D02*
X81469190Y-78778307D01*
X82130810Y-78421693D02*
X81978307Y-78269190D01*
D10*
%TO.C,U23*%
X129750000Y-84800000D02*
X129750000Y-84350000D01*
X129750000Y-85500000D02*
X129750000Y-85950000D01*
X133050000Y-84400000D02*
X133050000Y-85850000D01*
D13*
X129250000Y-83900000D02*
G75*
G02*
X129050000Y-83900000I-100000J0D01*
G01*
X129050000Y-83900000D02*
G75*
G02*
X129250000Y-83900000I100000J0D01*
G01*
D12*
%TO.C,R12*%
X135320000Y-63053641D02*
X135320000Y-62746359D01*
X136080000Y-63053641D02*
X136080000Y-62746359D01*
%TO.C,R6*%
X121070000Y-63053641D02*
X121070000Y-62746359D01*
X121830000Y-63053641D02*
X121830000Y-62746359D01*
%TO.C,R51*%
X114796359Y-96270000D02*
X115103641Y-96270000D01*
X114796359Y-97030000D02*
X115103641Y-97030000D01*
%TO.C,R69*%
X132970000Y-99703641D02*
X132970000Y-99396359D01*
X133730000Y-99703641D02*
X133730000Y-99396359D01*
%TD*%
%LPC*%
D14*
%TO.C,J2*%
X87580000Y-63000000D03*
D15*
X90120000Y-63000000D03*
X92660000Y-63000000D03*
X95200000Y-63000000D03*
X97740000Y-63000000D03*
X100280000Y-63000000D03*
%TD*%
D16*
%TO.C,R37*%
X112740000Y-82250000D03*
X113760000Y-82250000D03*
%TD*%
D17*
%TO.C,C26*%
X114450000Y-93920000D03*
X114450000Y-94880000D03*
%TD*%
D18*
%TO.C,C12*%
X139950000Y-68400000D03*
X139950000Y-67440000D03*
%TD*%
D19*
%TO.C,C39*%
X77460589Y-74839411D03*
X78139411Y-74160589D03*
%TD*%
D20*
%TO.C,U6*%
X139150000Y-65650000D03*
X138350000Y-65650000D03*
X137550000Y-65650000D03*
X136750000Y-65650000D03*
X136750000Y-63150000D03*
X137550000Y-63150000D03*
X138350000Y-63150000D03*
X139150000Y-63150000D03*
%TD*%
D21*
%TO.C,U35*%
X130000000Y-98150000D03*
X130800000Y-98150000D03*
X131600000Y-98150000D03*
X132400000Y-98150000D03*
X132400000Y-100650000D03*
X131600000Y-100650000D03*
X130800000Y-100650000D03*
X130000000Y-100650000D03*
%TD*%
D17*
%TO.C,C2*%
X116700000Y-65920000D03*
X116700000Y-66880000D03*
%TD*%
D18*
%TO.C,C17*%
X131950000Y-80130000D03*
X131950000Y-79170000D03*
%TD*%
D20*
%TO.C,U12*%
X139400000Y-72150000D03*
X138600000Y-72150000D03*
X137800000Y-72150000D03*
X137000000Y-72150000D03*
X137000000Y-69650000D03*
X137800000Y-69650000D03*
X138600000Y-69650000D03*
X139400000Y-69650000D03*
%TD*%
D22*
%TO.C,C16*%
X127230000Y-77900000D03*
X126270000Y-77900000D03*
%TD*%
D23*
%TO.C,R48*%
X134700000Y-87660000D03*
X134700000Y-86640000D03*
%TD*%
D24*
%TO.C,R60*%
X133550000Y-92190000D03*
X133550000Y-93210000D03*
%TD*%
D21*
%TO.C,U21*%
X120250000Y-83400000D03*
X121050000Y-83400000D03*
X121850000Y-83400000D03*
X122650000Y-83400000D03*
X122650000Y-85900000D03*
X121850000Y-85900000D03*
X121050000Y-85900000D03*
X120250000Y-85900000D03*
%TD*%
D25*
%TO.C,R9*%
X131210000Y-61400000D03*
X130190000Y-61400000D03*
%TD*%
D26*
%TO.C,D38*%
X76243153Y-83156847D03*
X77356847Y-82043153D03*
%TD*%
D23*
%TO.C,R78*%
X113800000Y-62010000D03*
X113800000Y-60990000D03*
%TD*%
D18*
%TO.C,C24*%
X134700000Y-85610000D03*
X134700000Y-84650000D03*
%TD*%
D22*
%TO.C,C19*%
X107580000Y-82700000D03*
X106620000Y-82700000D03*
%TD*%
D24*
%TO.C,R58*%
X128850000Y-92340000D03*
X128850000Y-93360000D03*
%TD*%
D20*
%TO.C,U3*%
X124900000Y-65650000D03*
X124100000Y-65650000D03*
X123300000Y-65650000D03*
X122500000Y-65650000D03*
X122500000Y-63150000D03*
X123300000Y-63150000D03*
X124100000Y-63150000D03*
X124900000Y-63150000D03*
%TD*%
D23*
%TO.C,R18*%
X126150000Y-71910000D03*
X126150000Y-70890000D03*
%TD*%
%TO.C,R23*%
X137950000Y-68460000D03*
X137950000Y-67440000D03*
%TD*%
D20*
%TO.C,U8*%
X120150000Y-72150000D03*
X119350000Y-72150000D03*
X118550000Y-72150000D03*
X117750000Y-72150000D03*
X117750000Y-69650000D03*
X118550000Y-69650000D03*
X119350000Y-69650000D03*
X120150000Y-69650000D03*
%TD*%
D17*
%TO.C,C45*%
X111785000Y-65087500D03*
X111785000Y-66047500D03*
%TD*%
D20*
%TO.C,U9*%
X125150000Y-72150000D03*
X124350000Y-72150000D03*
X123550000Y-72150000D03*
X122750000Y-72150000D03*
X122750000Y-69650000D03*
X123550000Y-69650000D03*
X124350000Y-69650000D03*
X125150000Y-69650000D03*
%TD*%
D23*
%TO.C,R31*%
X119200000Y-79910000D03*
X119200000Y-78890000D03*
%TD*%
D25*
%TO.C,R11*%
X136220000Y-61400000D03*
X135200000Y-61400000D03*
%TD*%
D23*
%TO.C,R46*%
X133700000Y-87660000D03*
X133700000Y-86640000D03*
%TD*%
D21*
%TO.C,U16*%
X123950000Y-79150000D03*
X124750000Y-79150000D03*
X125550000Y-79150000D03*
X126350000Y-79150000D03*
X126350000Y-81650000D03*
X125550000Y-81650000D03*
X124750000Y-81650000D03*
X123950000Y-81650000D03*
%TD*%
D23*
%TO.C,R20*%
X130850000Y-72060000D03*
X130850000Y-71040000D03*
%TD*%
D20*
%TO.C,U15*%
X122600000Y-81650000D03*
X121800000Y-81650000D03*
X121000000Y-81650000D03*
X120200000Y-81650000D03*
X120200000Y-79150000D03*
X121000000Y-79150000D03*
X121800000Y-79150000D03*
X122600000Y-79150000D03*
%TD*%
D24*
%TO.C,R67*%
X128850000Y-99140000D03*
X128850000Y-100160000D03*
%TD*%
D27*
%TO.C,C41*%
X95628249Y-78421751D03*
X96971751Y-77078249D03*
%TD*%
D28*
%TO.C,C42*%
X82239411Y-74739411D03*
X81560589Y-74060589D03*
%TD*%
D20*
%TO.C,U10*%
X129900000Y-72150000D03*
X129100000Y-72150000D03*
X128300000Y-72150000D03*
X127500000Y-72150000D03*
X127500000Y-69650000D03*
X128300000Y-69650000D03*
X129100000Y-69650000D03*
X129900000Y-69650000D03*
%TD*%
D25*
%TO.C,R49*%
X112210000Y-96400000D03*
X111190000Y-96400000D03*
%TD*%
D21*
%TO.C,U34*%
X125500000Y-98150000D03*
X126300000Y-98150000D03*
X127100000Y-98150000D03*
X127900000Y-98150000D03*
X127900000Y-100650000D03*
X127100000Y-100650000D03*
X126300000Y-100650000D03*
X125500000Y-100650000D03*
%TD*%
D23*
%TO.C,R16*%
X121300000Y-72010000D03*
X121300000Y-70990000D03*
%TD*%
D29*
%TO.C,R2*%
X79583363Y-79816637D03*
X78416637Y-80983363D03*
%TD*%
D18*
%TO.C,C13*%
X111150000Y-75430000D03*
X111150000Y-74470000D03*
%TD*%
D23*
%TO.C,R47*%
X139300000Y-84910000D03*
X139300000Y-83890000D03*
%TD*%
D22*
%TO.C,C21*%
X119280000Y-86150000D03*
X118320000Y-86150000D03*
%TD*%
D17*
%TO.C,C8*%
X121300000Y-69070000D03*
X121300000Y-70030000D03*
%TD*%
D18*
%TO.C,C31*%
X108900000Y-100660000D03*
X108900000Y-99700000D03*
%TD*%
D17*
%TO.C,C4*%
X126200000Y-64420000D03*
X126200000Y-65380000D03*
%TD*%
D24*
%TO.C,R28*%
X112450000Y-77290000D03*
X112450000Y-78310000D03*
%TD*%
D19*
%TO.C,C37*%
X76721178Y-74078822D03*
X77400000Y-73400000D03*
%TD*%
D18*
%TO.C,C18*%
X137950000Y-80130000D03*
X137950000Y-79170000D03*
%TD*%
D16*
%TO.C,R17*%
X124740000Y-67550000D03*
X125760000Y-67550000D03*
%TD*%
D17*
%TO.C,C34*%
X124200000Y-100520000D03*
X124200000Y-101480000D03*
%TD*%
%TO.C,C6*%
X135750000Y-64470000D03*
X135750000Y-65430000D03*
%TD*%
D21*
%TO.C,U26*%
X116147500Y-92650000D03*
X116947500Y-92650000D03*
X117747500Y-92650000D03*
X118547500Y-92650000D03*
X118547500Y-95150000D03*
X117747500Y-95150000D03*
X116947500Y-95150000D03*
X116147500Y-95150000D03*
%TD*%
D20*
%TO.C,U38*%
X115337500Y-65650000D03*
X114537500Y-65650000D03*
X113737500Y-65650000D03*
X112937500Y-65650000D03*
X112937500Y-63150000D03*
X113737500Y-63150000D03*
X114537500Y-63150000D03*
X115337500Y-63150000D03*
%TD*%
D17*
%TO.C,C35*%
X128900000Y-101070000D03*
X128900000Y-102030000D03*
%TD*%
D30*
%TO.C,U37*%
X93332070Y-77772272D03*
X92766384Y-78337957D03*
X92200699Y-78903643D03*
X91635014Y-79469328D03*
X91069328Y-80035014D03*
X90503643Y-80600699D03*
X89937957Y-81166384D03*
X89372272Y-81732070D03*
D31*
X87427728Y-81732070D03*
X86862043Y-81166384D03*
X86296357Y-80600699D03*
X85730672Y-80035014D03*
X85164986Y-79469328D03*
X84599301Y-78903643D03*
X84033616Y-78337957D03*
X83467930Y-77772272D03*
D30*
X83467930Y-75827728D03*
X84033616Y-75262043D03*
X84599301Y-74696357D03*
X85164986Y-74130672D03*
X85730672Y-73564986D03*
X86296357Y-72999301D03*
X86862043Y-72433616D03*
X87427728Y-71867930D03*
D31*
X89372272Y-71867930D03*
X89937957Y-72433616D03*
X90503643Y-72999301D03*
X91069328Y-73564986D03*
X91635014Y-74130672D03*
X92200699Y-74696357D03*
X92766384Y-75262043D03*
X93332070Y-75827728D03*
%TD*%
D24*
%TO.C,R36*%
X138950000Y-79140000D03*
X138950000Y-80160000D03*
%TD*%
D20*
%TO.C,U13*%
X111150000Y-79150000D03*
X110350000Y-79150000D03*
X109550000Y-79150000D03*
X108750000Y-79150000D03*
X108750000Y-76650000D03*
X109550000Y-76650000D03*
X110350000Y-76650000D03*
X111150000Y-76650000D03*
%TD*%
D32*
%TO.C,C1*%
X92860589Y-80460589D03*
X93539411Y-81139411D03*
%TD*%
D17*
%TO.C,C30*%
X133550000Y-94420000D03*
X133550000Y-95380000D03*
%TD*%
D23*
%TO.C,R40*%
X119200000Y-82900000D03*
X119200000Y-81880000D03*
%TD*%
D25*
%TO.C,R79*%
X116960000Y-61900000D03*
X115940000Y-61900000D03*
%TD*%
D20*
%TO.C,U19*%
X111150000Y-85150000D03*
X110350000Y-85150000D03*
X109550000Y-85150000D03*
X108750000Y-85150000D03*
X108750000Y-82650000D03*
X109550000Y-82650000D03*
X110350000Y-82650000D03*
X111150000Y-82650000D03*
%TD*%
D18*
%TO.C,C23*%
X133700000Y-85630000D03*
X133700000Y-84670000D03*
%TD*%
D23*
%TO.C,R71*%
X139650000Y-99210000D03*
X139650000Y-98190000D03*
%TD*%
D33*
%TO.C,D37*%
X81515076Y-71258579D03*
X82186827Y-70586827D03*
X82858579Y-69915076D03*
X84484924Y-71541421D03*
X83813173Y-72213173D03*
X83141421Y-72884924D03*
%TD*%
D25*
%TO.C,R68*%
X126510000Y-101900000D03*
X125490000Y-101900000D03*
%TD*%
D17*
%TO.C,C32*%
X115950000Y-101820000D03*
X115950000Y-102780000D03*
%TD*%
D16*
%TO.C,R15*%
X118790000Y-68450000D03*
X119810000Y-68450000D03*
%TD*%
D34*
%TO.C,D39*%
X96556847Y-69143153D03*
X95443153Y-70256847D03*
%TD*%
D24*
%TO.C,R65*%
X124200000Y-98590000D03*
X124200000Y-99610000D03*
%TD*%
%TO.C,R54*%
X119600000Y-91890000D03*
X119600000Y-92910000D03*
%TD*%
D18*
%TO.C,C22*%
X127200000Y-84780000D03*
X127200000Y-83820000D03*
%TD*%
D17*
%TO.C,C11*%
X136050000Y-68620000D03*
X136050000Y-69580000D03*
%TD*%
D25*
%TO.C,R27*%
X113460000Y-76150000D03*
X112440000Y-76150000D03*
%TD*%
D21*
%TO.C,U36*%
X134500000Y-98150000D03*
X135300000Y-98150000D03*
X136100000Y-98150000D03*
X136900000Y-98150000D03*
X136900000Y-100650000D03*
X136100000Y-100650000D03*
X135300000Y-100650000D03*
X134500000Y-100650000D03*
%TD*%
D23*
%TO.C,R24*%
X140450000Y-70420000D03*
X140450000Y-69400000D03*
%TD*%
D24*
%TO.C,R30*%
X123950000Y-76940000D03*
X123950000Y-77960000D03*
%TD*%
D21*
%TO.C,U25*%
X111102500Y-92650000D03*
X111902500Y-92650000D03*
X112702500Y-92650000D03*
X113502500Y-92650000D03*
X113502500Y-95150000D03*
X112702500Y-95150000D03*
X111902500Y-95150000D03*
X111102500Y-95150000D03*
%TD*%
D24*
%TO.C,R26*%
X110150000Y-74440000D03*
X110150000Y-75460000D03*
%TD*%
D21*
%TO.C,U24*%
X135750000Y-83400000D03*
X136550000Y-83400000D03*
X137350000Y-83400000D03*
X138150000Y-83400000D03*
X138150000Y-85900000D03*
X137350000Y-85900000D03*
X136550000Y-85900000D03*
X135750000Y-85900000D03*
%TD*%
D35*
%TO.C,U1*%
X80056497Y-74756497D03*
X81400000Y-76100000D03*
X79243324Y-76913173D03*
%TD*%
D25*
%TO.C,R57*%
X129460000Y-96400000D03*
X128440000Y-96400000D03*
%TD*%
D22*
%TO.C,C15*%
X123010000Y-77950000D03*
X122050000Y-77950000D03*
%TD*%
D21*
%TO.C,U31*%
X111040000Y-98150000D03*
X111840000Y-98150000D03*
X112640000Y-98150000D03*
X113440000Y-98150000D03*
X113440000Y-100650000D03*
X112640000Y-100650000D03*
X111840000Y-100650000D03*
X111040000Y-100650000D03*
%TD*%
%TO.C,U18*%
X134397500Y-79150000D03*
X135197500Y-79150000D03*
X135997500Y-79150000D03*
X136797500Y-79150000D03*
X136797500Y-81650000D03*
X135997500Y-81650000D03*
X135197500Y-81650000D03*
X134397500Y-81650000D03*
%TD*%
%TO.C,U17*%
X128400000Y-79150000D03*
X129200000Y-79150000D03*
X130000000Y-79150000D03*
X130800000Y-79150000D03*
X130800000Y-81650000D03*
X130000000Y-81650000D03*
X129200000Y-81650000D03*
X128400000Y-81650000D03*
%TD*%
D23*
%TO.C,R14*%
X116550000Y-71910000D03*
X116550000Y-70890000D03*
%TD*%
D16*
%TO.C,R25*%
X110890000Y-69800000D03*
X111910000Y-69800000D03*
%TD*%
D21*
%TO.C,U30*%
X134500000Y-92650000D03*
X135300000Y-92650000D03*
X136100000Y-92650000D03*
X136900000Y-92650000D03*
X136900000Y-95150000D03*
X136100000Y-95150000D03*
X135300000Y-95150000D03*
X134500000Y-95150000D03*
%TD*%
D23*
%TO.C,R3*%
X118750000Y-62010000D03*
X118750000Y-60990000D03*
%TD*%
D25*
%TO.C,R66*%
X122620000Y-101850000D03*
X121600000Y-101850000D03*
%TD*%
%TO.C,R55*%
X124960000Y-96400000D03*
X123940000Y-96400000D03*
%TD*%
%TO.C,R32*%
X128210000Y-76950000D03*
X127190000Y-76950000D03*
%TD*%
D23*
%TO.C,R22*%
X135850000Y-71710000D03*
X135850000Y-70690000D03*
%TD*%
D18*
%TO.C,C25*%
X109700000Y-94130000D03*
X109700000Y-93170000D03*
%TD*%
D25*
%TO.C,R29*%
X120460000Y-77900000D03*
X119440000Y-77900000D03*
%TD*%
%TO.C,R59*%
X134460000Y-96400000D03*
X133440000Y-96400000D03*
%TD*%
D24*
%TO.C,R34*%
X132950000Y-79130000D03*
X132950000Y-80150000D03*
%TD*%
%TO.C,R8*%
X126200000Y-62390000D03*
X126200000Y-63410000D03*
%TD*%
D20*
%TO.C,U4*%
X129650000Y-65650000D03*
X128850000Y-65650000D03*
X128050000Y-65650000D03*
X127250000Y-65650000D03*
X127250000Y-63150000D03*
X128050000Y-63150000D03*
X128850000Y-63150000D03*
X129650000Y-63150000D03*
%TD*%
D21*
%TO.C,U27*%
X120750000Y-92650000D03*
X121550000Y-92650000D03*
X122350000Y-92650000D03*
X123150000Y-92650000D03*
X123150000Y-95150000D03*
X122350000Y-95150000D03*
X121550000Y-95150000D03*
X120750000Y-95150000D03*
%TD*%
D36*
%TO.C,C44*%
X75251992Y-73748008D03*
X76348008Y-72651992D03*
%TD*%
D37*
%TO.C,C20*%
X117720000Y-80900000D03*
X118680000Y-80900000D03*
%TD*%
D21*
%TO.C,U33*%
X120647500Y-98150000D03*
X121447500Y-98150000D03*
X122247500Y-98150000D03*
X123047500Y-98150000D03*
X123047500Y-100650000D03*
X122247500Y-100650000D03*
X121447500Y-100650000D03*
X120647500Y-100650000D03*
%TD*%
D23*
%TO.C,R63*%
X119550000Y-100660000D03*
X119550000Y-99640000D03*
%TD*%
D17*
%TO.C,C5*%
X130950000Y-64670000D03*
X130950000Y-65630000D03*
%TD*%
D20*
%TO.C,U20*%
X117150000Y-85150000D03*
X116350000Y-85150000D03*
X115550000Y-85150000D03*
X114750000Y-85150000D03*
X114750000Y-82650000D03*
X115550000Y-82650000D03*
X116350000Y-82650000D03*
X117150000Y-82650000D03*
%TD*%
D25*
%TO.C,R72*%
X135510000Y-101850000D03*
X134490000Y-101850000D03*
%TD*%
D20*
%TO.C,U5*%
X134650000Y-65650000D03*
X133850000Y-65650000D03*
X133050000Y-65650000D03*
X132250000Y-65650000D03*
X132250000Y-63150000D03*
X133050000Y-63150000D03*
X133850000Y-63150000D03*
X134650000Y-63150000D03*
%TD*%
D17*
%TO.C,C9*%
X126200000Y-68920000D03*
X126200000Y-69880000D03*
%TD*%
D20*
%TO.C,U14*%
X116950000Y-79150000D03*
X116150000Y-79150000D03*
X115350000Y-79150000D03*
X114550000Y-79150000D03*
X114550000Y-76650000D03*
X115350000Y-76650000D03*
X116150000Y-76650000D03*
X116950000Y-76650000D03*
%TD*%
D24*
%TO.C,R56*%
X124200000Y-91890000D03*
X124200000Y-92910000D03*
%TD*%
D26*
%TO.C,D2*%
X74586306Y-81513694D03*
X75700000Y-80400000D03*
%TD*%
D21*
%TO.C,U28*%
X125500000Y-92650000D03*
X126300000Y-92650000D03*
X127100000Y-92650000D03*
X127900000Y-92650000D03*
X127900000Y-95150000D03*
X127100000Y-95150000D03*
X126300000Y-95150000D03*
X125500000Y-95150000D03*
%TD*%
D25*
%TO.C,R53*%
X119970000Y-96400000D03*
X118950000Y-96400000D03*
%TD*%
%TO.C,R70*%
X130860000Y-102000000D03*
X129840000Y-102000000D03*
%TD*%
D17*
%TO.C,C7*%
X116400000Y-68900000D03*
X116400000Y-69860000D03*
%TD*%
D16*
%TO.C,R13*%
X113290000Y-68450000D03*
X114310000Y-68450000D03*
%TD*%
D24*
%TO.C,R33*%
X127300000Y-81640000D03*
X127300000Y-82660000D03*
%TD*%
D21*
%TO.C,U22*%
X123750000Y-83400000D03*
X124550000Y-83400000D03*
X125350000Y-83400000D03*
X126150000Y-83400000D03*
X126150000Y-85900000D03*
X125350000Y-85900000D03*
X124550000Y-85900000D03*
X123750000Y-85900000D03*
%TD*%
D20*
%TO.C,U2*%
X120400000Y-65650000D03*
X119600000Y-65650000D03*
X118800000Y-65650000D03*
X118000000Y-65650000D03*
X118000000Y-63150000D03*
X118800000Y-63150000D03*
X119600000Y-63150000D03*
X120400000Y-63150000D03*
%TD*%
D38*
%TO.C,R73*%
X93216637Y-72483363D03*
X94383363Y-71316637D03*
%TD*%
D17*
%TO.C,C27*%
X119600000Y-93920000D03*
X119600000Y-94880000D03*
%TD*%
D20*
%TO.C,U7*%
X115252500Y-72150000D03*
X114452500Y-72150000D03*
X113652500Y-72150000D03*
X112852500Y-72150000D03*
X112852500Y-69650000D03*
X113652500Y-69650000D03*
X114452500Y-69650000D03*
X115252500Y-69650000D03*
%TD*%
D21*
%TO.C,U29*%
X129950000Y-92650000D03*
X130750000Y-92650000D03*
X131550000Y-92650000D03*
X132350000Y-92650000D03*
X132350000Y-95150000D03*
X131550000Y-95150000D03*
X130750000Y-95150000D03*
X129950000Y-95150000D03*
%TD*%
D24*
%TO.C,R4*%
X116700000Y-63390000D03*
X116700000Y-64410000D03*
%TD*%
D17*
%TO.C,C36*%
X133450000Y-100970000D03*
X133450000Y-101930000D03*
%TD*%
D16*
%TO.C,R43*%
X127140000Y-85950000D03*
X128160000Y-85950000D03*
%TD*%
D29*
%TO.C,R1*%
X77883363Y-78216637D03*
X76716637Y-79383363D03*
%TD*%
D16*
%TO.C,R42*%
X118240000Y-87150000D03*
X119260000Y-87150000D03*
%TD*%
D32*
%TO.C,C43*%
X92060589Y-81160589D03*
X92739411Y-81839411D03*
%TD*%
D24*
%TO.C,R39*%
X113750000Y-83890000D03*
X113750000Y-84910000D03*
%TD*%
D17*
%TO.C,C14*%
X113450000Y-78150000D03*
X113450000Y-79110000D03*
%TD*%
D23*
%TO.C,R61*%
X114950000Y-100660000D03*
X114950000Y-99640000D03*
%TD*%
D24*
%TO.C,R10*%
X130950000Y-62640000D03*
X130950000Y-63660000D03*
%TD*%
D17*
%TO.C,C3*%
X121500000Y-64420000D03*
X121500000Y-65380000D03*
%TD*%
D23*
%TO.C,R50*%
X109700000Y-96160000D03*
X109700000Y-95140000D03*
%TD*%
D17*
%TO.C,C33*%
X120650000Y-101870000D03*
X120650000Y-102830000D03*
%TD*%
D24*
%TO.C,R44*%
X128400000Y-83940000D03*
X128400000Y-84960000D03*
%TD*%
%TO.C,R45*%
X131900000Y-87640000D03*
X131900000Y-88660000D03*
%TD*%
D20*
%TO.C,U11*%
X134650000Y-72150000D03*
X133850000Y-72150000D03*
X133050000Y-72150000D03*
X132250000Y-72150000D03*
X132250000Y-69650000D03*
X133050000Y-69650000D03*
X133850000Y-69650000D03*
X134650000Y-69650000D03*
%TD*%
D25*
%TO.C,R7*%
X126960000Y-61400000D03*
X125940000Y-61400000D03*
%TD*%
D16*
%TO.C,R19*%
X128390000Y-68200000D03*
X129410000Y-68200000D03*
%TD*%
D18*
%TO.C,C28*%
X124100000Y-95230000D03*
X124100000Y-94270000D03*
%TD*%
%TO.C,C29*%
X128950000Y-95230000D03*
X128950000Y-94270000D03*
%TD*%
D24*
%TO.C,R52*%
X114950000Y-91880000D03*
X114950000Y-92900000D03*
%TD*%
D25*
%TO.C,R5*%
X122460000Y-61400000D03*
X121440000Y-61400000D03*
%TD*%
D19*
%TO.C,C40*%
X94110589Y-77139411D03*
X94789411Y-76460589D03*
%TD*%
D16*
%TO.C,R21*%
X133490000Y-67700000D03*
X134510000Y-67700000D03*
%TD*%
D25*
%TO.C,R64*%
X117960000Y-102050000D03*
X116940000Y-102050000D03*
%TD*%
D16*
%TO.C,R38*%
X106590000Y-83700000D03*
X107610000Y-83700000D03*
%TD*%
%TO.C,R41*%
X121740000Y-87100000D03*
X122760000Y-87100000D03*
%TD*%
D21*
%TO.C,U32*%
X116000000Y-98150000D03*
X116800000Y-98150000D03*
X117600000Y-98150000D03*
X118400000Y-98150000D03*
X118400000Y-100650000D03*
X117600000Y-100650000D03*
X116800000Y-100650000D03*
X116000000Y-100650000D03*
%TD*%
D25*
%TO.C,R35*%
X133210000Y-81650000D03*
X132190000Y-81650000D03*
%TD*%
D17*
%TO.C,C10*%
X131100000Y-68770000D03*
X131100000Y-69730000D03*
%TD*%
D24*
%TO.C,R62*%
X110000000Y-99630000D03*
X110000000Y-100650000D03*
%TD*%
D32*
%TO.C,C38*%
X81460589Y-78260589D03*
X82139411Y-78939411D03*
%TD*%
D21*
%TO.C,U23*%
X130250000Y-83900000D03*
X131050000Y-83900000D03*
X131850000Y-83900000D03*
X132650000Y-83900000D03*
X132650000Y-86400000D03*
X131850000Y-86400000D03*
X131050000Y-86400000D03*
X130250000Y-86400000D03*
%TD*%
D24*
%TO.C,R12*%
X135700000Y-62390000D03*
X135700000Y-63410000D03*
%TD*%
%TO.C,R6*%
X121450000Y-62390000D03*
X121450000Y-63410000D03*
%TD*%
D25*
%TO.C,R51*%
X115460000Y-96650000D03*
X114440000Y-96650000D03*
%TD*%
D24*
%TO.C,R69*%
X133350000Y-99040000D03*
X133350000Y-100060000D03*
%TD*%
%LPD*%
M02*
