M48
; DRILL file {KiCad 8.0.5} date 2024-11-01T13:06:34-0700
; FORMAT={-:-/ absolute / metric / decimal}
; #@! TF.CreationDate,2024-11-01T13:06:34-07:00
; #@! TF.GenerationSoftware,Kicad,Pcbnew,8.0.5
; #@! TF.FileFunction,Plated,1,2,PTH
FMAT,2
METRIC
; #@! TA.AperFunction,Plated,PTH,ViaDrill
T1C0.300
; #@! TA.AperFunction,Plated,PTH,ComponentDrill
T2C1.000
%
G90
G05
T1
X76.1Y-74.75
X80.6Y-70.5
X81.0Y-72.6
X82.0Y-69.1
X82.9Y-73.95
X84.2Y-69.4
X85.0Y-70.3
X104.15Y-85.7
X104.35Y-80.0
X105.85Y-76.6
X106.6Y-84.65
X107.65Y-85.55
X108.75Y-95.6
X109.65Y-69.3
X109.898Y-84.105
X109.9Y-98.7
X110.15Y-73.6
X110.699Y-80.101
X110.9Y-70.9
X111.04Y-97.26
X111.2Y-91.65
X111.45Y-84.15
X111.55Y-68.85
X111.8Y-79.55
X111.84Y-97.35
X111.95Y-85.15
X112.0Y-86.35
X112.7Y-91.65
X112.75Y-75.0
X112.95Y-62.15
X112.95Y-96.9
X113.25Y-73.4
X113.3Y-90.65
X113.55Y-85.85
X113.7Y-67.05
X114.0Y-91.7
X114.5Y-67.35
X114.7Y-61.9
X115.0Y-90.3
X115.7Y-81.4
X115.89Y-66.999
X116.2Y-97.15
X116.4Y-72.9
X116.4Y-87.85
X116.531Y-80.075
X116.631Y-74.977
X116.85Y-86.141
X116.95Y-84.2
X117.101Y-88.301
X117.31Y-62.685
X117.45Y-97.4
X117.631Y-79.246
X117.7Y-61.9
X117.701Y-87.6
X117.715Y-81.834
X117.95Y-67.4
X117.95Y-82.65
X118.05Y-96.65
X118.126Y-76.126
X118.422Y-79.54
X118.466Y-75.386
X118.649Y-71.149
X118.7Y-88.4
X118.8Y-66.9
X119.096Y-101.927
X119.3Y-91.1
X119.5Y-83.85
X119.6Y-88.0
X119.7Y-61.9
X119.777Y-70.581
X119.78Y-75.45
X120.2Y-80.65
X120.3Y-82.6
X120.4Y-87.35
X120.45Y-67.4
X120.45Y-97.15
X120.7Y-61.35
X120.8Y-76.55
X120.9Y-84.4
X121.356Y-75.968
X121.4Y-67.85
X121.495Y-82.46
X121.55Y-67.0
X121.55Y-72.55
X121.7Y-84.4
X121.75Y-99.616
X122.05Y-76.5
X122.2Y-97.15
X122.45Y-80.65
X122.543Y-88.805
X122.55Y-88.0
X122.55Y-96.391
X122.563Y-62.352
X122.8Y-85.15
X122.908Y-75.208
X122.93Y-70.65
X123.12Y-82.514
X123.249Y-99.799
X123.3Y-76.0
X123.321Y-79.666
X123.405Y-101.756
X123.45Y-84.4
X123.955Y-75.395
X124.0Y-91.0
X124.012Y-88.475
X124.2Y-61.4
X124.65Y-68.55
X124.768Y-82.6
X124.8Y-97.85
X124.864Y-76.183
X124.9Y-66.7
X124.929Y-78.395
X125.027Y-84.282
X125.2Y-62.0
X125.2Y-71.15
X125.55Y-80.15
X125.7Y-75.75
X125.8Y-87.45
X125.843Y-88.323
X125.95Y-66.4
X126.3Y-96.65
X126.4Y-99.2
X126.7Y-88.4
X126.859Y-72.877
X127.02Y-62.309
X127.1Y-97.3
X127.126Y-76.026
X127.191Y-67.153
X127.2Y-79.4
X127.35Y-78.549
X127.4Y-101.85
X127.95Y-66.9
X127.95Y-99.65
X128.2Y-61.65
X128.4Y-76.25
X128.7Y-80.15
X128.7Y-86.65
X128.8Y-91.05
X128.825Y-88.525
X128.87Y-78.211
X129.026Y-74.976
X129.202Y-83.903
X129.203Y-77.348
X129.43Y-76.33
X129.45Y-62.0
X129.6Y-97.3
X129.65Y-66.65
X129.7Y-71.05
X129.7Y-84.65
X130.7Y-84.9
X130.883Y-66.883
X130.95Y-99.7
X131.089Y-87.398
X131.2Y-97.15
X131.7Y-84.9
X131.7Y-101.9
X131.95Y-62.15
X131.95Y-96.65
X132.05Y-66.65
X132.35Y-91.35
X132.425Y-99.925
X132.707Y-88.399
X132.9Y-77.65
X133.276Y-91.574
X133.632Y-62.104
X133.7Y-78.4
X134.2Y-91.5
X134.3Y-93.7
X134.325Y-97.275
X134.35Y-70.75
X134.45Y-80.15
X134.65Y-62.1
X134.65Y-66.65
X134.7Y-78.15
X134.7Y-83.15
X135.6Y-87.7
X135.7Y-84.4
X135.85Y-72.4
X135.95Y-90.85
X135.95Y-91.65
X135.95Y-97.15
X136.1Y-67.106
X136.45Y-96.4
X136.75Y-62.2
X136.95Y-66.65
X137.2Y-67.85
X137.45Y-82.4
X137.6Y-97.05
X138.0Y-73.35
X138.6Y-82.5
X138.85Y-95.85
X138.95Y-78.3
X138.965Y-66.412
X139.074Y-101.824
X139.45Y-73.4
X139.65Y-81.35
X140.45Y-71.25
T2
X87.58Y-63.0
X90.12Y-63.0
X92.66Y-63.0
X95.2Y-63.0
X97.74Y-63.0
X100.28Y-63.0
M30
