%TF.GenerationSoftware,KiCad,Pcbnew,8.0.5*%
%TF.CreationDate,2024-11-01T13:05:59-07:00*%
%TF.ProjectId,bizcard,62697a63-6172-4642-9e6b-696361645f70,rev?*%
%TF.SameCoordinates,Original*%
%TF.FileFunction,Paste,Bot*%
%TF.FilePolarity,Positive*%
%FSLAX46Y46*%
G04 Gerber Fmt 4.6, Leading zero omitted, Abs format (unit mm)*
G04 Created by KiCad (PCBNEW 8.0.5) date 2024-11-01 13:05:59*
%MOMM*%
%LPD*%
G01*
G04 APERTURE LIST*
G04 Aperture macros list*
%AMRoundRect*
0 Rectangle with rounded corners*
0 $1 Rounding radius*
0 $2 $3 $4 $5 $6 $7 $8 $9 X,Y pos of 4 corners*
0 Add a 4 corners polygon primitive as box body*
4,1,4,$2,$3,$4,$5,$6,$7,$8,$9,$2,$3,0*
0 Add four circle primitives for the rounded corners*
1,1,$1+$1,$2,$3*
1,1,$1+$1,$4,$5*
1,1,$1+$1,$6,$7*
1,1,$1+$1,$8,$9*
0 Add four rect primitives between the rounded corners*
20,1,$1+$1,$2,$3,$4,$5,0*
20,1,$1+$1,$4,$5,$6,$7,0*
20,1,$1+$1,$6,$7,$8,$9,0*
20,1,$1+$1,$8,$9,$2,$3,0*%
%AMRotRect*
0 Rectangle, with rotation*
0 The origin of the aperture is its center*
0 $1 length*
0 $2 width*
0 $3 Rotation angle, in degrees counterclockwise*
0 Add horizontal line*
21,1,$1,$2,0,0,$3*%
G04 Aperture macros list end*
%ADD10RoundRect,0.135000X-0.135000X-0.185000X0.135000X-0.185000X0.135000X0.185000X-0.135000X0.185000X0*%
%ADD11RoundRect,0.140000X-0.170000X0.140000X-0.170000X-0.140000X0.170000X-0.140000X0.170000X0.140000X0*%
%ADD12RoundRect,0.140000X0.170000X-0.140000X0.170000X0.140000X-0.170000X0.140000X-0.170000X-0.140000X0*%
%ADD13RoundRect,0.140000X0.021213X-0.219203X0.219203X-0.021213X-0.021213X0.219203X-0.219203X0.021213X0*%
%ADD14R,0.450000X0.900000*%
%ADD15RoundRect,0.140000X0.140000X0.170000X-0.140000X0.170000X-0.140000X-0.170000X0.140000X-0.170000X0*%
%ADD16RoundRect,0.135000X0.185000X-0.135000X0.185000X0.135000X-0.185000X0.135000X-0.185000X-0.135000X0*%
%ADD17RoundRect,0.135000X-0.185000X0.135000X-0.185000X-0.135000X0.185000X-0.135000X0.185000X0.135000X0*%
%ADD18RoundRect,0.135000X0.135000X0.185000X-0.135000X0.185000X-0.135000X-0.185000X0.135000X-0.185000X0*%
%ADD19RoundRect,0.218750X0.026517X-0.335876X0.335876X-0.026517X-0.026517X0.335876X-0.335876X0.026517X0*%
%ADD20RoundRect,0.250000X0.159099X-0.512652X0.512652X-0.159099X-0.159099X0.512652X-0.512652X0.159099X0*%
%ADD21RoundRect,0.140000X0.219203X0.021213X0.021213X0.219203X-0.219203X-0.021213X-0.021213X-0.219203X0*%
%ADD22RoundRect,0.200000X-0.053033X0.335876X-0.335876X0.053033X0.053033X-0.335876X0.335876X-0.053033X0*%
%ADD23RoundRect,0.125000X0.530330X-0.353553X-0.353553X0.530330X-0.530330X0.353553X0.353553X-0.530330X0*%
%ADD24RoundRect,0.125000X0.530330X0.353553X0.353553X0.530330X-0.530330X-0.353553X-0.353553X-0.530330X0*%
%ADD25RoundRect,0.140000X-0.219203X-0.021213X-0.021213X-0.219203X0.219203X0.021213X0.021213X0.219203X0*%
%ADD26RotRect,0.600000X1.200000X45.000000*%
%ADD27RoundRect,0.218750X-0.026517X0.335876X-0.335876X0.026517X0.026517X-0.335876X0.335876X-0.026517X0*%
%ADD28RotRect,1.300000X0.600000X225.000000*%
%ADD29RoundRect,0.225000X0.017678X-0.335876X0.335876X-0.017678X-0.017678X0.335876X-0.335876X0.017678X0*%
%ADD30RoundRect,0.140000X-0.140000X-0.170000X0.140000X-0.170000X0.140000X0.170000X-0.140000X0.170000X0*%
%ADD31RoundRect,0.200000X0.053033X-0.335876X0.335876X-0.053033X-0.053033X0.335876X-0.335876X0.053033X0*%
G04 APERTURE END LIST*
D10*
%TO.C,R37*%
X112740000Y-82250000D03*
X113760000Y-82250000D03*
%TD*%
D11*
%TO.C,C26*%
X114450000Y-93920000D03*
X114450000Y-94880000D03*
%TD*%
D12*
%TO.C,C12*%
X139950000Y-68400000D03*
X139950000Y-67440000D03*
%TD*%
D13*
%TO.C,C39*%
X77460589Y-74839411D03*
X78139411Y-74160589D03*
%TD*%
D14*
%TO.C,U6*%
X139150000Y-65650000D03*
X138350000Y-65650000D03*
X137550000Y-65650000D03*
X136750000Y-65650000D03*
X136750000Y-63150000D03*
X137550000Y-63150000D03*
X138350000Y-63150000D03*
X139150000Y-63150000D03*
%TD*%
%TO.C,U35*%
X130000000Y-98150000D03*
X130800000Y-98150000D03*
X131600000Y-98150000D03*
X132400000Y-98150000D03*
X132400000Y-100650000D03*
X131600000Y-100650000D03*
X130800000Y-100650000D03*
X130000000Y-100650000D03*
%TD*%
D11*
%TO.C,C2*%
X116700000Y-65920000D03*
X116700000Y-66880000D03*
%TD*%
D12*
%TO.C,C17*%
X131950000Y-80130000D03*
X131950000Y-79170000D03*
%TD*%
D14*
%TO.C,U12*%
X139400000Y-72150000D03*
X138600000Y-72150000D03*
X137800000Y-72150000D03*
X137000000Y-72150000D03*
X137000000Y-69650000D03*
X137800000Y-69650000D03*
X138600000Y-69650000D03*
X139400000Y-69650000D03*
%TD*%
D15*
%TO.C,C16*%
X127230000Y-77900000D03*
X126270000Y-77900000D03*
%TD*%
D16*
%TO.C,R48*%
X134700000Y-87660000D03*
X134700000Y-86640000D03*
%TD*%
D17*
%TO.C,R60*%
X133550000Y-92190000D03*
X133550000Y-93210000D03*
%TD*%
D14*
%TO.C,U21*%
X120250000Y-83400000D03*
X121050000Y-83400000D03*
X121850000Y-83400000D03*
X122650000Y-83400000D03*
X122650000Y-85900000D03*
X121850000Y-85900000D03*
X121050000Y-85900000D03*
X120250000Y-85900000D03*
%TD*%
D18*
%TO.C,R9*%
X131210000Y-61400000D03*
X130190000Y-61400000D03*
%TD*%
D19*
%TO.C,D38*%
X76243153Y-83156847D03*
X77356847Y-82043153D03*
%TD*%
D16*
%TO.C,R78*%
X113800000Y-62010000D03*
X113800000Y-60990000D03*
%TD*%
D12*
%TO.C,C24*%
X134700000Y-85610000D03*
X134700000Y-84650000D03*
%TD*%
D15*
%TO.C,C19*%
X107580000Y-82700000D03*
X106620000Y-82700000D03*
%TD*%
D17*
%TO.C,R58*%
X128850000Y-92340000D03*
X128850000Y-93360000D03*
%TD*%
D14*
%TO.C,U3*%
X124900000Y-65650000D03*
X124100000Y-65650000D03*
X123300000Y-65650000D03*
X122500000Y-65650000D03*
X122500000Y-63150000D03*
X123300000Y-63150000D03*
X124100000Y-63150000D03*
X124900000Y-63150000D03*
%TD*%
D16*
%TO.C,R18*%
X126150000Y-71910000D03*
X126150000Y-70890000D03*
%TD*%
%TO.C,R23*%
X137950000Y-68460000D03*
X137950000Y-67440000D03*
%TD*%
D14*
%TO.C,U8*%
X120150000Y-72150000D03*
X119350000Y-72150000D03*
X118550000Y-72150000D03*
X117750000Y-72150000D03*
X117750000Y-69650000D03*
X118550000Y-69650000D03*
X119350000Y-69650000D03*
X120150000Y-69650000D03*
%TD*%
D11*
%TO.C,C45*%
X111785000Y-65087500D03*
X111785000Y-66047500D03*
%TD*%
D14*
%TO.C,U9*%
X125150000Y-72150000D03*
X124350000Y-72150000D03*
X123550000Y-72150000D03*
X122750000Y-72150000D03*
X122750000Y-69650000D03*
X123550000Y-69650000D03*
X124350000Y-69650000D03*
X125150000Y-69650000D03*
%TD*%
D16*
%TO.C,R31*%
X119200000Y-79910000D03*
X119200000Y-78890000D03*
%TD*%
D18*
%TO.C,R11*%
X136220000Y-61400000D03*
X135200000Y-61400000D03*
%TD*%
D16*
%TO.C,R46*%
X133700000Y-87660000D03*
X133700000Y-86640000D03*
%TD*%
D14*
%TO.C,U16*%
X123950000Y-79150000D03*
X124750000Y-79150000D03*
X125550000Y-79150000D03*
X126350000Y-79150000D03*
X126350000Y-81650000D03*
X125550000Y-81650000D03*
X124750000Y-81650000D03*
X123950000Y-81650000D03*
%TD*%
D16*
%TO.C,R20*%
X130850000Y-72060000D03*
X130850000Y-71040000D03*
%TD*%
D14*
%TO.C,U15*%
X122600000Y-81650000D03*
X121800000Y-81650000D03*
X121000000Y-81650000D03*
X120200000Y-81650000D03*
X120200000Y-79150000D03*
X121000000Y-79150000D03*
X121800000Y-79150000D03*
X122600000Y-79150000D03*
%TD*%
D17*
%TO.C,R67*%
X128850000Y-99140000D03*
X128850000Y-100160000D03*
%TD*%
D20*
%TO.C,C41*%
X95628249Y-78421751D03*
X96971751Y-77078249D03*
%TD*%
D21*
%TO.C,C42*%
X82239411Y-74739411D03*
X81560589Y-74060589D03*
%TD*%
D14*
%TO.C,U10*%
X129900000Y-72150000D03*
X129100000Y-72150000D03*
X128300000Y-72150000D03*
X127500000Y-72150000D03*
X127500000Y-69650000D03*
X128300000Y-69650000D03*
X129100000Y-69650000D03*
X129900000Y-69650000D03*
%TD*%
D18*
%TO.C,R49*%
X112210000Y-96400000D03*
X111190000Y-96400000D03*
%TD*%
D14*
%TO.C,U34*%
X125500000Y-98150000D03*
X126300000Y-98150000D03*
X127100000Y-98150000D03*
X127900000Y-98150000D03*
X127900000Y-100650000D03*
X127100000Y-100650000D03*
X126300000Y-100650000D03*
X125500000Y-100650000D03*
%TD*%
D16*
%TO.C,R16*%
X121300000Y-72010000D03*
X121300000Y-70990000D03*
%TD*%
D22*
%TO.C,R2*%
X79583363Y-79816637D03*
X78416637Y-80983363D03*
%TD*%
D12*
%TO.C,C13*%
X111150000Y-75430000D03*
X111150000Y-74470000D03*
%TD*%
D16*
%TO.C,R47*%
X139300000Y-84910000D03*
X139300000Y-83890000D03*
%TD*%
D15*
%TO.C,C21*%
X119280000Y-86150000D03*
X118320000Y-86150000D03*
%TD*%
D11*
%TO.C,C8*%
X121300000Y-69070000D03*
X121300000Y-70030000D03*
%TD*%
D12*
%TO.C,C31*%
X108900000Y-100660000D03*
X108900000Y-99700000D03*
%TD*%
D11*
%TO.C,C4*%
X126200000Y-64420000D03*
X126200000Y-65380000D03*
%TD*%
D17*
%TO.C,R28*%
X112450000Y-77290000D03*
X112450000Y-78310000D03*
%TD*%
D13*
%TO.C,C37*%
X76721178Y-74078822D03*
X77400000Y-73400000D03*
%TD*%
D12*
%TO.C,C18*%
X137950000Y-80130000D03*
X137950000Y-79170000D03*
%TD*%
D10*
%TO.C,R17*%
X124740000Y-67550000D03*
X125760000Y-67550000D03*
%TD*%
D11*
%TO.C,C34*%
X124200000Y-100520000D03*
X124200000Y-101480000D03*
%TD*%
%TO.C,C6*%
X135750000Y-64470000D03*
X135750000Y-65430000D03*
%TD*%
D14*
%TO.C,U26*%
X116147500Y-92650000D03*
X116947500Y-92650000D03*
X117747500Y-92650000D03*
X118547500Y-92650000D03*
X118547500Y-95150000D03*
X117747500Y-95150000D03*
X116947500Y-95150000D03*
X116147500Y-95150000D03*
%TD*%
%TO.C,U38*%
X115337500Y-65650000D03*
X114537500Y-65650000D03*
X113737500Y-65650000D03*
X112937500Y-65650000D03*
X112937500Y-63150000D03*
X113737500Y-63150000D03*
X114537500Y-63150000D03*
X115337500Y-63150000D03*
%TD*%
D11*
%TO.C,C35*%
X128900000Y-101070000D03*
X128900000Y-102030000D03*
%TD*%
D23*
%TO.C,U37*%
X93332070Y-77772272D03*
X92766384Y-78337957D03*
X92200699Y-78903643D03*
X91635014Y-79469328D03*
X91069328Y-80035014D03*
X90503643Y-80600699D03*
X89937957Y-81166384D03*
X89372272Y-81732070D03*
D24*
X87427728Y-81732070D03*
X86862043Y-81166384D03*
X86296357Y-80600699D03*
X85730672Y-80035014D03*
X85164986Y-79469328D03*
X84599301Y-78903643D03*
X84033616Y-78337957D03*
X83467930Y-77772272D03*
D23*
X83467930Y-75827728D03*
X84033616Y-75262043D03*
X84599301Y-74696357D03*
X85164986Y-74130672D03*
X85730672Y-73564986D03*
X86296357Y-72999301D03*
X86862043Y-72433616D03*
X87427728Y-71867930D03*
D24*
X89372272Y-71867930D03*
X89937957Y-72433616D03*
X90503643Y-72999301D03*
X91069328Y-73564986D03*
X91635014Y-74130672D03*
X92200699Y-74696357D03*
X92766384Y-75262043D03*
X93332070Y-75827728D03*
%TD*%
D17*
%TO.C,R36*%
X138950000Y-79140000D03*
X138950000Y-80160000D03*
%TD*%
D14*
%TO.C,U13*%
X111150000Y-79150000D03*
X110350000Y-79150000D03*
X109550000Y-79150000D03*
X108750000Y-79150000D03*
X108750000Y-76650000D03*
X109550000Y-76650000D03*
X110350000Y-76650000D03*
X111150000Y-76650000D03*
%TD*%
D25*
%TO.C,C1*%
X92860589Y-80460589D03*
X93539411Y-81139411D03*
%TD*%
D11*
%TO.C,C30*%
X133550000Y-94420000D03*
X133550000Y-95380000D03*
%TD*%
D16*
%TO.C,R40*%
X119200000Y-82900000D03*
X119200000Y-81880000D03*
%TD*%
D18*
%TO.C,R79*%
X116960000Y-61900000D03*
X115940000Y-61900000D03*
%TD*%
D14*
%TO.C,U19*%
X111150000Y-85150000D03*
X110350000Y-85150000D03*
X109550000Y-85150000D03*
X108750000Y-85150000D03*
X108750000Y-82650000D03*
X109550000Y-82650000D03*
X110350000Y-82650000D03*
X111150000Y-82650000D03*
%TD*%
D12*
%TO.C,C23*%
X133700000Y-85630000D03*
X133700000Y-84670000D03*
%TD*%
D16*
%TO.C,R71*%
X139650000Y-99210000D03*
X139650000Y-98190000D03*
%TD*%
D26*
%TO.C,D37*%
X81515076Y-71258579D03*
X82186827Y-70586827D03*
X82858579Y-69915076D03*
X84484924Y-71541421D03*
X83813173Y-72213173D03*
X83141421Y-72884924D03*
%TD*%
D18*
%TO.C,R68*%
X126510000Y-101900000D03*
X125490000Y-101900000D03*
%TD*%
D11*
%TO.C,C32*%
X115950000Y-101820000D03*
X115950000Y-102780000D03*
%TD*%
D10*
%TO.C,R15*%
X118790000Y-68450000D03*
X119810000Y-68450000D03*
%TD*%
D27*
%TO.C,D39*%
X96556847Y-69143153D03*
X95443153Y-70256847D03*
%TD*%
D17*
%TO.C,R65*%
X124200000Y-98590000D03*
X124200000Y-99610000D03*
%TD*%
%TO.C,R54*%
X119600000Y-91890000D03*
X119600000Y-92910000D03*
%TD*%
D12*
%TO.C,C22*%
X127200000Y-84780000D03*
X127200000Y-83820000D03*
%TD*%
D11*
%TO.C,C11*%
X136050000Y-68620000D03*
X136050000Y-69580000D03*
%TD*%
D18*
%TO.C,R27*%
X113460000Y-76150000D03*
X112440000Y-76150000D03*
%TD*%
D14*
%TO.C,U36*%
X134500000Y-98150000D03*
X135300000Y-98150000D03*
X136100000Y-98150000D03*
X136900000Y-98150000D03*
X136900000Y-100650000D03*
X136100000Y-100650000D03*
X135300000Y-100650000D03*
X134500000Y-100650000D03*
%TD*%
D16*
%TO.C,R24*%
X140450000Y-70420000D03*
X140450000Y-69400000D03*
%TD*%
D17*
%TO.C,R30*%
X123950000Y-76940000D03*
X123950000Y-77960000D03*
%TD*%
D14*
%TO.C,U25*%
X111102500Y-92650000D03*
X111902500Y-92650000D03*
X112702500Y-92650000D03*
X113502500Y-92650000D03*
X113502500Y-95150000D03*
X112702500Y-95150000D03*
X111902500Y-95150000D03*
X111102500Y-95150000D03*
%TD*%
D17*
%TO.C,R26*%
X110150000Y-74440000D03*
X110150000Y-75460000D03*
%TD*%
D14*
%TO.C,U24*%
X135750000Y-83400000D03*
X136550000Y-83400000D03*
X137350000Y-83400000D03*
X138150000Y-83400000D03*
X138150000Y-85900000D03*
X137350000Y-85900000D03*
X136550000Y-85900000D03*
X135750000Y-85900000D03*
%TD*%
D28*
%TO.C,U1*%
X80056497Y-74756497D03*
X81400000Y-76100000D03*
X79243324Y-76913173D03*
%TD*%
D18*
%TO.C,R57*%
X129460000Y-96400000D03*
X128440000Y-96400000D03*
%TD*%
D15*
%TO.C,C15*%
X123010000Y-77950000D03*
X122050000Y-77950000D03*
%TD*%
D14*
%TO.C,U31*%
X111040000Y-98150000D03*
X111840000Y-98150000D03*
X112640000Y-98150000D03*
X113440000Y-98150000D03*
X113440000Y-100650000D03*
X112640000Y-100650000D03*
X111840000Y-100650000D03*
X111040000Y-100650000D03*
%TD*%
%TO.C,U18*%
X134397500Y-79150000D03*
X135197500Y-79150000D03*
X135997500Y-79150000D03*
X136797500Y-79150000D03*
X136797500Y-81650000D03*
X135997500Y-81650000D03*
X135197500Y-81650000D03*
X134397500Y-81650000D03*
%TD*%
%TO.C,U17*%
X128400000Y-79150000D03*
X129200000Y-79150000D03*
X130000000Y-79150000D03*
X130800000Y-79150000D03*
X130800000Y-81650000D03*
X130000000Y-81650000D03*
X129200000Y-81650000D03*
X128400000Y-81650000D03*
%TD*%
D16*
%TO.C,R14*%
X116550000Y-71910000D03*
X116550000Y-70890000D03*
%TD*%
D10*
%TO.C,R25*%
X110890000Y-69800000D03*
X111910000Y-69800000D03*
%TD*%
D14*
%TO.C,U30*%
X134500000Y-92650000D03*
X135300000Y-92650000D03*
X136100000Y-92650000D03*
X136900000Y-92650000D03*
X136900000Y-95150000D03*
X136100000Y-95150000D03*
X135300000Y-95150000D03*
X134500000Y-95150000D03*
%TD*%
D16*
%TO.C,R3*%
X118750000Y-62010000D03*
X118750000Y-60990000D03*
%TD*%
D18*
%TO.C,R66*%
X122620000Y-101850000D03*
X121600000Y-101850000D03*
%TD*%
%TO.C,R55*%
X124960000Y-96400000D03*
X123940000Y-96400000D03*
%TD*%
%TO.C,R32*%
X128210000Y-76950000D03*
X127190000Y-76950000D03*
%TD*%
D16*
%TO.C,R22*%
X135850000Y-71710000D03*
X135850000Y-70690000D03*
%TD*%
D12*
%TO.C,C25*%
X109700000Y-94130000D03*
X109700000Y-93170000D03*
%TD*%
D18*
%TO.C,R29*%
X120460000Y-77900000D03*
X119440000Y-77900000D03*
%TD*%
%TO.C,R59*%
X134460000Y-96400000D03*
X133440000Y-96400000D03*
%TD*%
D17*
%TO.C,R34*%
X132950000Y-79130000D03*
X132950000Y-80150000D03*
%TD*%
%TO.C,R8*%
X126200000Y-62390000D03*
X126200000Y-63410000D03*
%TD*%
D14*
%TO.C,U4*%
X129650000Y-65650000D03*
X128850000Y-65650000D03*
X128050000Y-65650000D03*
X127250000Y-65650000D03*
X127250000Y-63150000D03*
X128050000Y-63150000D03*
X128850000Y-63150000D03*
X129650000Y-63150000D03*
%TD*%
%TO.C,U27*%
X120750000Y-92650000D03*
X121550000Y-92650000D03*
X122350000Y-92650000D03*
X123150000Y-92650000D03*
X123150000Y-95150000D03*
X122350000Y-95150000D03*
X121550000Y-95150000D03*
X120750000Y-95150000D03*
%TD*%
D29*
%TO.C,C44*%
X75251992Y-73748008D03*
X76348008Y-72651992D03*
%TD*%
D30*
%TO.C,C20*%
X117720000Y-80900000D03*
X118680000Y-80900000D03*
%TD*%
D14*
%TO.C,U33*%
X120647500Y-98150000D03*
X121447500Y-98150000D03*
X122247500Y-98150000D03*
X123047500Y-98150000D03*
X123047500Y-100650000D03*
X122247500Y-100650000D03*
X121447500Y-100650000D03*
X120647500Y-100650000D03*
%TD*%
D16*
%TO.C,R63*%
X119550000Y-100660000D03*
X119550000Y-99640000D03*
%TD*%
D11*
%TO.C,C5*%
X130950000Y-64670000D03*
X130950000Y-65630000D03*
%TD*%
D14*
%TO.C,U20*%
X117150000Y-85150000D03*
X116350000Y-85150000D03*
X115550000Y-85150000D03*
X114750000Y-85150000D03*
X114750000Y-82650000D03*
X115550000Y-82650000D03*
X116350000Y-82650000D03*
X117150000Y-82650000D03*
%TD*%
D18*
%TO.C,R72*%
X135510000Y-101850000D03*
X134490000Y-101850000D03*
%TD*%
D14*
%TO.C,U5*%
X134650000Y-65650000D03*
X133850000Y-65650000D03*
X133050000Y-65650000D03*
X132250000Y-65650000D03*
X132250000Y-63150000D03*
X133050000Y-63150000D03*
X133850000Y-63150000D03*
X134650000Y-63150000D03*
%TD*%
D11*
%TO.C,C9*%
X126200000Y-68920000D03*
X126200000Y-69880000D03*
%TD*%
D14*
%TO.C,U14*%
X116950000Y-79150000D03*
X116150000Y-79150000D03*
X115350000Y-79150000D03*
X114550000Y-79150000D03*
X114550000Y-76650000D03*
X115350000Y-76650000D03*
X116150000Y-76650000D03*
X116950000Y-76650000D03*
%TD*%
D17*
%TO.C,R56*%
X124200000Y-91890000D03*
X124200000Y-92910000D03*
%TD*%
D19*
%TO.C,D2*%
X74586306Y-81513694D03*
X75700000Y-80400000D03*
%TD*%
D14*
%TO.C,U28*%
X125500000Y-92650000D03*
X126300000Y-92650000D03*
X127100000Y-92650000D03*
X127900000Y-92650000D03*
X127900000Y-95150000D03*
X127100000Y-95150000D03*
X126300000Y-95150000D03*
X125500000Y-95150000D03*
%TD*%
D18*
%TO.C,R53*%
X119970000Y-96400000D03*
X118950000Y-96400000D03*
%TD*%
%TO.C,R70*%
X130860000Y-102000000D03*
X129840000Y-102000000D03*
%TD*%
D11*
%TO.C,C7*%
X116400000Y-68900000D03*
X116400000Y-69860000D03*
%TD*%
D10*
%TO.C,R13*%
X113290000Y-68450000D03*
X114310000Y-68450000D03*
%TD*%
D17*
%TO.C,R33*%
X127300000Y-81640000D03*
X127300000Y-82660000D03*
%TD*%
D14*
%TO.C,U22*%
X123750000Y-83400000D03*
X124550000Y-83400000D03*
X125350000Y-83400000D03*
X126150000Y-83400000D03*
X126150000Y-85900000D03*
X125350000Y-85900000D03*
X124550000Y-85900000D03*
X123750000Y-85900000D03*
%TD*%
%TO.C,U2*%
X120400000Y-65650000D03*
X119600000Y-65650000D03*
X118800000Y-65650000D03*
X118000000Y-65650000D03*
X118000000Y-63150000D03*
X118800000Y-63150000D03*
X119600000Y-63150000D03*
X120400000Y-63150000D03*
%TD*%
D31*
%TO.C,R73*%
X93216637Y-72483363D03*
X94383363Y-71316637D03*
%TD*%
D11*
%TO.C,C27*%
X119600000Y-93920000D03*
X119600000Y-94880000D03*
%TD*%
D14*
%TO.C,U7*%
X115252500Y-72150000D03*
X114452500Y-72150000D03*
X113652500Y-72150000D03*
X112852500Y-72150000D03*
X112852500Y-69650000D03*
X113652500Y-69650000D03*
X114452500Y-69650000D03*
X115252500Y-69650000D03*
%TD*%
%TO.C,U29*%
X129950000Y-92650000D03*
X130750000Y-92650000D03*
X131550000Y-92650000D03*
X132350000Y-92650000D03*
X132350000Y-95150000D03*
X131550000Y-95150000D03*
X130750000Y-95150000D03*
X129950000Y-95150000D03*
%TD*%
D17*
%TO.C,R4*%
X116700000Y-63390000D03*
X116700000Y-64410000D03*
%TD*%
D11*
%TO.C,C36*%
X133450000Y-100970000D03*
X133450000Y-101930000D03*
%TD*%
D10*
%TO.C,R43*%
X127140000Y-85950000D03*
X128160000Y-85950000D03*
%TD*%
D22*
%TO.C,R1*%
X77883363Y-78216637D03*
X76716637Y-79383363D03*
%TD*%
D10*
%TO.C,R42*%
X118240000Y-87150000D03*
X119260000Y-87150000D03*
%TD*%
D25*
%TO.C,C43*%
X92060589Y-81160589D03*
X92739411Y-81839411D03*
%TD*%
D17*
%TO.C,R39*%
X113750000Y-83890000D03*
X113750000Y-84910000D03*
%TD*%
D11*
%TO.C,C14*%
X113450000Y-78150000D03*
X113450000Y-79110000D03*
%TD*%
D16*
%TO.C,R61*%
X114950000Y-100660000D03*
X114950000Y-99640000D03*
%TD*%
D17*
%TO.C,R10*%
X130950000Y-62640000D03*
X130950000Y-63660000D03*
%TD*%
D11*
%TO.C,C3*%
X121500000Y-64420000D03*
X121500000Y-65380000D03*
%TD*%
D16*
%TO.C,R50*%
X109700000Y-96160000D03*
X109700000Y-95140000D03*
%TD*%
D11*
%TO.C,C33*%
X120650000Y-101870000D03*
X120650000Y-102830000D03*
%TD*%
D17*
%TO.C,R44*%
X128400000Y-83940000D03*
X128400000Y-84960000D03*
%TD*%
%TO.C,R45*%
X131900000Y-87640000D03*
X131900000Y-88660000D03*
%TD*%
D14*
%TO.C,U11*%
X134650000Y-72150000D03*
X133850000Y-72150000D03*
X133050000Y-72150000D03*
X132250000Y-72150000D03*
X132250000Y-69650000D03*
X133050000Y-69650000D03*
X133850000Y-69650000D03*
X134650000Y-69650000D03*
%TD*%
D18*
%TO.C,R7*%
X126960000Y-61400000D03*
X125940000Y-61400000D03*
%TD*%
D10*
%TO.C,R19*%
X128390000Y-68200000D03*
X129410000Y-68200000D03*
%TD*%
D12*
%TO.C,C28*%
X124100000Y-95230000D03*
X124100000Y-94270000D03*
%TD*%
%TO.C,C29*%
X128950000Y-95230000D03*
X128950000Y-94270000D03*
%TD*%
D17*
%TO.C,R52*%
X114950000Y-91880000D03*
X114950000Y-92900000D03*
%TD*%
D18*
%TO.C,R5*%
X122460000Y-61400000D03*
X121440000Y-61400000D03*
%TD*%
D13*
%TO.C,C40*%
X94110589Y-77139411D03*
X94789411Y-76460589D03*
%TD*%
D10*
%TO.C,R21*%
X133490000Y-67700000D03*
X134510000Y-67700000D03*
%TD*%
D18*
%TO.C,R64*%
X117960000Y-102050000D03*
X116940000Y-102050000D03*
%TD*%
D10*
%TO.C,R38*%
X106590000Y-83700000D03*
X107610000Y-83700000D03*
%TD*%
%TO.C,R41*%
X121740000Y-87100000D03*
X122760000Y-87100000D03*
%TD*%
D14*
%TO.C,U32*%
X116000000Y-98150000D03*
X116800000Y-98150000D03*
X117600000Y-98150000D03*
X118400000Y-98150000D03*
X118400000Y-100650000D03*
X117600000Y-100650000D03*
X116800000Y-100650000D03*
X116000000Y-100650000D03*
%TD*%
D18*
%TO.C,R35*%
X133210000Y-81650000D03*
X132190000Y-81650000D03*
%TD*%
D11*
%TO.C,C10*%
X131100000Y-68770000D03*
X131100000Y-69730000D03*
%TD*%
D17*
%TO.C,R62*%
X110000000Y-99630000D03*
X110000000Y-100650000D03*
%TD*%
D25*
%TO.C,C38*%
X81460589Y-78260589D03*
X82139411Y-78939411D03*
%TD*%
D14*
%TO.C,U23*%
X130250000Y-83900000D03*
X131050000Y-83900000D03*
X131850000Y-83900000D03*
X132650000Y-83900000D03*
X132650000Y-86400000D03*
X131850000Y-86400000D03*
X131050000Y-86400000D03*
X130250000Y-86400000D03*
%TD*%
D17*
%TO.C,R12*%
X135700000Y-62390000D03*
X135700000Y-63410000D03*
%TD*%
%TO.C,R6*%
X121450000Y-62390000D03*
X121450000Y-63410000D03*
%TD*%
D18*
%TO.C,R51*%
X115460000Y-96650000D03*
X114440000Y-96650000D03*
%TD*%
D17*
%TO.C,R69*%
X133350000Y-99040000D03*
X133350000Y-100060000D03*
%TD*%
M02*
